<mxfile host="app.diagrams.net" modified="2021-09-09T03:12:07.406Z" agent="5.0 (Macintosh; Intel Mac OS X 10_15_5) AppleWebKit/537.36 (KHTML, like Gecko) Chrome/93.0.4577.63 Safari/537.36" etag="PhQXs4Z0Ljm_xzgO9VNA" version="15.1.2" type="github">
  <diagram id="C5RBs43oDa-KdzZeNtuy" name="Page-1">
    <mxGraphModel dx="1426" dy="714" grid="1" gridSize="10" guides="1" tooltips="1" connect="1" arrows="1" fold="1" page="1" pageScale="1" pageWidth="827" pageHeight="1169" math="0" shadow="0">
      <root>
        <mxCell id="WIyWlLk6GJQsqaUBKTNV-0" />
        <mxCell id="WIyWlLk6GJQsqaUBKTNV-1" parent="WIyWlLk6GJQsqaUBKTNV-0" />
        <mxCell id="zkfFHV4jXpPFQw0GAbJ--0" value="Person" style="swimlane;fontStyle=2;align=center;verticalAlign=top;childLayout=stackLayout;horizontal=1;startSize=26;horizontalStack=0;resizeParent=1;resizeLast=0;collapsible=1;marginBottom=0;rounded=0;shadow=0;strokeWidth=1;" parent="WIyWlLk6GJQsqaUBKTNV-1" vertex="1">
          <mxGeometry x="220" y="120" width="160" height="138" as="geometry">
            <mxRectangle x="230" y="140" width="160" height="26" as="alternateBounds" />
          </mxGeometry>
        </mxCell>
        <mxCell id="zkfFHV4jXpPFQw0GAbJ--1" value="Name" style="text;align=left;verticalAlign=top;spacingLeft=4;spacingRight=4;overflow=hidden;rotatable=0;points=[[0,0.5],[1,0.5]];portConstraint=eastwest;" parent="zkfFHV4jXpPFQw0GAbJ--0" vertex="1">
          <mxGeometry y="26" width="160" height="26" as="geometry" />
        </mxCell>
        <mxCell id="zkfFHV4jXpPFQw0GAbJ--2" value="Phone Number" style="text;align=left;verticalAlign=top;spacingLeft=4;spacingRight=4;overflow=hidden;rotatable=0;points=[[0,0.5],[1,0.5]];portConstraint=eastwest;rounded=0;shadow=0;html=0;" parent="zkfFHV4jXpPFQw0GAbJ--0" vertex="1">
          <mxGeometry y="52" width="160" height="26" as="geometry" />
        </mxCell>
        <mxCell id="zkfFHV4jXpPFQw0GAbJ--3" value="Email Address" style="text;align=left;verticalAlign=top;spacingLeft=4;spacingRight=4;overflow=hidden;rotatable=0;points=[[0,0.5],[1,0.5]];portConstraint=eastwest;rounded=0;shadow=0;html=0;" parent="zkfFHV4jXpPFQw0GAbJ--0" vertex="1">
          <mxGeometry y="78" width="160" height="26" as="geometry" />
        </mxCell>
        <mxCell id="zkfFHV4jXpPFQw0GAbJ--4" value="" style="line;html=1;strokeWidth=1;align=left;verticalAlign=middle;spacingTop=-1;spacingLeft=3;spacingRight=3;rotatable=0;labelPosition=right;points=[];portConstraint=eastwest;" parent="zkfFHV4jXpPFQw0GAbJ--0" vertex="1">
          <mxGeometry y="104" width="160" height="8" as="geometry" />
        </mxCell>
        <mxCell id="zkfFHV4jXpPFQw0GAbJ--5" value="Purchase Parking Pass" style="text;align=left;verticalAlign=top;spacingLeft=4;spacingRight=4;overflow=hidden;rotatable=0;points=[[0,0.5],[1,0.5]];portConstraint=eastwest;" parent="zkfFHV4jXpPFQw0GAbJ--0" vertex="1">
          <mxGeometry y="112" width="160" height="26" as="geometry" />
        </mxCell>
        <mxCell id="zkfFHV4jXpPFQw0GAbJ--6" value="Student" style="swimlane;fontStyle=0;align=center;verticalAlign=top;childLayout=stackLayout;horizontal=1;startSize=26;horizontalStack=0;resizeParent=1;resizeLast=0;collapsible=1;marginBottom=0;rounded=0;shadow=0;strokeWidth=1;" parent="WIyWlLk6GJQsqaUBKTNV-1" vertex="1">
          <mxGeometry x="120" y="360" width="160" height="138" as="geometry">
            <mxRectangle x="130" y="380" width="160" height="26" as="alternateBounds" />
          </mxGeometry>
        </mxCell>
        <mxCell id="zkfFHV4jXpPFQw0GAbJ--7" value="Student Number" style="text;align=left;verticalAlign=top;spacingLeft=4;spacingRight=4;overflow=hidden;rotatable=0;points=[[0,0.5],[1,0.5]];portConstraint=eastwest;" parent="zkfFHV4jXpPFQw0GAbJ--6" vertex="1">
          <mxGeometry y="26" width="160" height="26" as="geometry" />
        </mxCell>
        <mxCell id="zkfFHV4jXpPFQw0GAbJ--8" value="Average Mark" style="text;align=left;verticalAlign=top;spacingLeft=4;spacingRight=4;overflow=hidden;rotatable=0;points=[[0,0.5],[1,0.5]];portConstraint=eastwest;rounded=0;shadow=0;html=0;" parent="zkfFHV4jXpPFQw0GAbJ--6" vertex="1">
          <mxGeometry y="52" width="160" height="26" as="geometry" />
        </mxCell>
        <mxCell id="zkfFHV4jXpPFQw0GAbJ--9" value="" style="line;html=1;strokeWidth=1;align=left;verticalAlign=middle;spacingTop=-1;spacingLeft=3;spacingRight=3;rotatable=0;labelPosition=right;points=[];portConstraint=eastwest;" parent="zkfFHV4jXpPFQw0GAbJ--6" vertex="1">
          <mxGeometry y="78" width="160" height="8" as="geometry" />
        </mxCell>
        <mxCell id="zkfFHV4jXpPFQw0GAbJ--10" value="Is Eligible To Enroll" style="text;align=left;verticalAlign=top;spacingLeft=4;spacingRight=4;overflow=hidden;rotatable=0;points=[[0,0.5],[1,0.5]];portConstraint=eastwest;fontStyle=4" parent="zkfFHV4jXpPFQw0GAbJ--6" vertex="1">
          <mxGeometry y="86" width="160" height="26" as="geometry" />
        </mxCell>
        <mxCell id="zkfFHV4jXpPFQw0GAbJ--11" value="Get Seminars Taken" style="text;align=left;verticalAlign=top;spacingLeft=4;spacingRight=4;overflow=hidden;rotatable=0;points=[[0,0.5],[1,0.5]];portConstraint=eastwest;" parent="zkfFHV4jXpPFQw0GAbJ--6" vertex="1">
          <mxGeometry y="112" width="160" height="26" as="geometry" />
        </mxCell>
        <mxCell id="zkfFHV4jXpPFQw0GAbJ--12" value="" style="endArrow=block;endSize=10;endFill=0;shadow=0;strokeWidth=1;rounded=0;edgeStyle=elbowEdgeStyle;elbow=vertical;" parent="WIyWlLk6GJQsqaUBKTNV-1" source="zkfFHV4jXpPFQw0GAbJ--6" target="zkfFHV4jXpPFQw0GAbJ--0" edge="1">
          <mxGeometry width="160" relative="1" as="geometry">
            <mxPoint x="200" y="203" as="sourcePoint" />
            <mxPoint x="200" y="203" as="targetPoint" />
          </mxGeometry>
        </mxCell>
        <mxCell id="zkfFHV4jXpPFQw0GAbJ--13" value="Professor" style="swimlane;fontStyle=0;align=center;verticalAlign=top;childLayout=stackLayout;horizontal=1;startSize=26;horizontalStack=0;resizeParent=1;resizeLast=0;collapsible=1;marginBottom=0;rounded=0;shadow=0;strokeWidth=1;" parent="WIyWlLk6GJQsqaUBKTNV-1" vertex="1">
          <mxGeometry x="330" y="360" width="160" height="70" as="geometry">
            <mxRectangle x="340" y="380" width="170" height="26" as="alternateBounds" />
          </mxGeometry>
        </mxCell>
        <mxCell id="zkfFHV4jXpPFQw0GAbJ--15" value="" style="line;html=1;strokeWidth=1;align=left;verticalAlign=middle;spacingTop=-1;spacingLeft=3;spacingRight=3;rotatable=0;labelPosition=right;points=[];portConstraint=eastwest;" parent="zkfFHV4jXpPFQw0GAbJ--13" vertex="1">
          <mxGeometry y="26" width="160" height="8" as="geometry" />
        </mxCell>
        <mxCell id="zkfFHV4jXpPFQw0GAbJ--16" value="" style="endArrow=block;endSize=10;endFill=0;shadow=0;strokeWidth=1;rounded=0;edgeStyle=elbowEdgeStyle;elbow=vertical;" parent="WIyWlLk6GJQsqaUBKTNV-1" source="zkfFHV4jXpPFQw0GAbJ--13" target="zkfFHV4jXpPFQw0GAbJ--0" edge="1">
          <mxGeometry width="160" relative="1" as="geometry">
            <mxPoint x="210" y="373" as="sourcePoint" />
            <mxPoint x="310" y="271" as="targetPoint" />
          </mxGeometry>
        </mxCell>
        <mxCell id="zkfFHV4jXpPFQw0GAbJ--17" value="Address" style="swimlane;fontStyle=0;align=center;verticalAlign=top;childLayout=stackLayout;horizontal=1;startSize=26;horizontalStack=0;resizeParent=1;resizeLast=0;collapsible=1;marginBottom=0;rounded=0;shadow=0;strokeWidth=1;" parent="WIyWlLk6GJQsqaUBKTNV-1" vertex="1">
          <mxGeometry x="508" y="120" width="160" height="602" as="geometry">
            <mxRectangle x="508" y="120" width="160" height="26" as="alternateBounds" />
          </mxGeometry>
        </mxCell>
        <mxCell id="zkfFHV4jXpPFQw0GAbJ--18" value="Street" style="text;align=left;verticalAlign=top;spacingLeft=4;spacingRight=4;overflow=hidden;rotatable=0;points=[[0,0.5],[1,0.5]];portConstraint=eastwest;" parent="zkfFHV4jXpPFQw0GAbJ--17" vertex="1">
          <mxGeometry y="26" width="160" height="26" as="geometry" />
        </mxCell>
        <mxCell id="zkfFHV4jXpPFQw0GAbJ--19" value="City" style="text;align=left;verticalAlign=top;spacingLeft=4;spacingRight=4;overflow=hidden;rotatable=0;points=[[0,0.5],[1,0.5]];portConstraint=eastwest;rounded=0;shadow=0;html=0;" parent="zkfFHV4jXpPFQw0GAbJ--17" vertex="1">
          <mxGeometry y="52" width="160" height="26" as="geometry" />
        </mxCell>
        <mxCell id="zkfFHV4jXpPFQw0GAbJ--20" value="State" style="text;align=left;verticalAlign=top;spacingLeft=4;spacingRight=4;overflow=hidden;rotatable=0;points=[[0,0.5],[1,0.5]];portConstraint=eastwest;rounded=0;shadow=0;html=0;" parent="zkfFHV4jXpPFQw0GAbJ--17" vertex="1">
          <mxGeometry y="78" width="160" height="26" as="geometry" />
        </mxCell>
        <mxCell id="zkfFHV4jXpPFQw0GAbJ--21" value="Postal Code" style="text;align=left;verticalAlign=top;spacingLeft=4;spacingRight=4;overflow=hidden;rotatable=0;points=[[0,0.5],[1,0.5]];portConstraint=eastwest;rounded=0;shadow=0;html=0;" parent="zkfFHV4jXpPFQw0GAbJ--17" vertex="1">
          <mxGeometry y="104" width="160" height="26" as="geometry" />
        </mxCell>
        <mxCell id="zkfFHV4jXpPFQw0GAbJ--22" value="Country" style="text;align=left;verticalAlign=top;spacingLeft=4;spacingRight=4;overflow=hidden;rotatable=0;points=[[0,0.5],[1,0.5]];portConstraint=eastwest;rounded=0;shadow=0;html=0;" parent="zkfFHV4jXpPFQw0GAbJ--17" vertex="1">
          <mxGeometry y="130" width="160" height="26" as="geometry" />
        </mxCell>
        <mxCell id="zkfFHV4jXpPFQw0GAbJ--23" value="" style="line;html=1;strokeWidth=1;align=left;verticalAlign=middle;spacingTop=-1;spacingLeft=3;spacingRight=3;rotatable=0;labelPosition=right;points=[];portConstraint=eastwest;" parent="zkfFHV4jXpPFQw0GAbJ--17" vertex="1">
          <mxGeometry y="156" width="160" height="8" as="geometry" />
        </mxCell>
        <mxCell id="zkfFHV4jXpPFQw0GAbJ--24" value="Validate" style="text;align=left;verticalAlign=top;spacingLeft=4;spacingRight=4;overflow=hidden;rotatable=0;points=[[0,0.5],[1,0.5]];portConstraint=eastwest;" parent="zkfFHV4jXpPFQw0GAbJ--17" vertex="1">
          <mxGeometry y="164" width="160" height="26" as="geometry" />
        </mxCell>
        <mxCell id="zkfFHV4jXpPFQw0GAbJ--25" value="Output As Label" style="text;align=left;verticalAlign=top;spacingLeft=4;spacingRight=4;overflow=hidden;rotatable=0;points=[[0,0.5],[1,0.5]];portConstraint=eastwest;" parent="zkfFHV4jXpPFQw0GAbJ--17" vertex="1">
          <mxGeometry y="190" width="160" height="26" as="geometry" />
        </mxCell>
        <mxCell id="_ZNIMbnDklHwUm5HZe9v-0" value="" style="shape=image;verticalLabelPosition=bottom;labelBackgroundColor=#ffffff;verticalAlign=top;aspect=fixed;imageAspect=0;image=data:image/png,iVBORw0KGgoAAAANSUhEUgAAAoQAAAGCCAYAAAB5BtLPAAAgAElEQVR4Aey9+XMl2XXf+Wbfx7OPZjxjaSzZWizbEv+YqupuUbQpsZukxFaItiXSlmTaFCNGIqnQEjGi54exJKs7xGYoLEoiNRbZTfY0SZGsFbUvWKpQqAVAAajlAdVdBSAnvt9zvveed5FvAx66uwq3Il7lQ77MvHnuPZn3k99z7s1O553/9+91Op39/Pz7nU6nfmodVB+oPlB9oPpA9YHqA3vxgf1kFRz7wP2bVIXupVHrvvWmUH2g+kD1geoD1QeqD+yHD0yKc55KQNxL5exHY416zP+g0+nUT62D6gPVB6oPVB+oPvB0+MCo/f9+bLcXFnqi4XC3hk+yEeoF/HRcwLUdaztWH6g+UH2g+sC7wQcmySi75aQnBg7HNXCvlbtbB/kPO51O/dQ6qD5QfaD6QPWB6gPVB6IP7JYr9soz4/LTuxYMxzFkt5U2SiPFRq3f60VefaD6QPWB6gPVB6oP7IcPjMIku+WdcZjqXQOG45z0uBUzrLL30sD/UafTqZ9aB9UHqg9UH6g+UH2g+kD0gb2wxTBuGZeDxmGsdxQMRz3RcSqgX2WO00CxYYd9/487nU791DqoPlB9oPpA9YHqAwfbB4bxQvx9HCbpxzXjsNGovPW2Q+GoJzaqsf0qa5QKjw1Uft+Pi/s/6XQ69VProPpA9YHqA9UHqg+8u31gPxig5Iz49yjM0o93RuWlUfnrbQHDUU5mVMPaKmZYhcbK1/dxGn23F/B/2ul06qfWQfWB6gPVB6oPVB94snxgt/3+OGwhHonLYTzTxkCj8tMoLLavUDjKCYxiTFkJgyotVq6+D2ukQY1fL+Qn60Ku7VXbq/pA9YHqA9UH3gkfGMQSwzhEvBKXg1in5KJRWGoUJtsXKBxW8CgnXxo8qHJiJeJ7v8pva7BRHec/63Q69VProPpA9YHqA9UHqg9UH4APjMoPbezRj1NKnhnEPiUnjcJWw/hsolA4rLBhJ1wa2K8yykprq9y2RhjUgP0u8v+80+nUT62D6gPVB6oPVB+oPlB9IPpAP24YxBptbNLGMCXn9OOhkpuGcdYwTpsIFA4rZNBJlgbh7zbjYwW1VWBZ0f0apWzE2MD9vv8XnU5n1M9/2el06qfWQfWB6gPVB6oPVB94Mnxg1P4d2/XjhLi+5Ix+PFJySxvbRPZpY6M2hhrEXMN4bc9QOKiAQSdWGtJmbKyMtsqKFdpW6bFhYoPF7/2cYS8X83/V6XTqp9ZB9YHqA9UHqg9UH3h3+sBe+vh+3BDZIn6PLNLGKpFl2lgnslAbK5U8NYi9BjHbnoBw0IEHnVB58qWB0fi2ylHltVVsrPjYIPheNuIghxh2Ef/XnU6nfmodVB+oPlB9oPpA9YGnyweG9f+D2KHkjJJDIqO0MYz4po19IhuV3FRy1SAGG8Ruu4LCQQccdCLxpEuD8Hc0uKwQVVRZibGCy8qPjdPWiGXDj3Jh/7VOp1M/tQ6qD1QfqD5QfaD6wNPpA6OwQMkPbYwRGaTkk8guJdeId0oOiozUxlCRsQax2CCGGxsK+x1s0AnEEy0NiUaWFaCKKStMlVlWshqgbJzYeP0au+3i/m86nU791DqoPlB9oPpA9YHqAwfTB9rYoB9HRNYoOUR8UnKLeKbkHPFPyUWRmUqeiqw1iMn6cdxYQNjvIIMKjidYnnw0LBqtiigrSBUXK1SVXFa+Gqat4WID97vI/9tOp9Pv8991Op36qXVQfaD6QPWB6gPVB54OH+jX32N9P06ILNHGGuKQkk/ELZFlxDcl94iHIiNFdiq5KjLXIDbrx3MjQ2G/A/QrNJ5YedIyKBqJ7zI+VooqKlaeKjRWtCq/bBg1WlujRicYdmH/951Op35qHVQfqD5QfaD6QPWBp9MHhnFAZIY2phBvlBwiPonMIo6JbCPeiQwkLip5SRxV8lVkr3581o/nRgLCfjv3KyyeUHmyMiIaJ4NjJahiYmWpAlWpquRY+WqQsrFiQ5aNXl7c/0On0xn2+R87nU791DqoPlB9oPpA9YHqA0+mDwzr5/F7yQclP0S2KLlDPBIZRdwijhHXRNYR/0QmEidFdhJPlZwVGawfp/XjuqFQ2LZjv0LiiZQnqZOPBsnIaDgqI1aOKkwVqAqNlayKjw2ihooNGBu3zRnKC/t/6nQ69VProPpA9YHqA9UHqg8cDB8oOaCNFSJLRMYQd0QWEZ9EZhHHiGvEOZF9wEKRjcRLkaHEVSVvRRbrx2ttbDcQCNt2wLq2AuIJlCenk46GyDgZLCpWhaiCVGGqQFWqKjlWvBpDDRQbLTZqbPC2i/x/7nQ65ed7Op1O/dQ6qD5QfaD6QPWB6gNPlw+U/T3+bmODyA6RKSJriD/EI5FRxC3iGHGNOEfcIw4SF4mTxE2RpcRXJXdFJmtjtn581xcK23ZoO3AsuDwpnWw0AEbJQCxltCoBlaIKwhKVpgpUhaqSVelqBDVMbCw1YtnA0QnaLvD/pdPptH3+106nUz+1DqoPVB+oPlB9oPrAk+kDbX071rWxQGSFkiPEF5E5xCHiEnGKuEUcI64B40TmAQOJh8RHkZnAUJGpxFklf0U2a2O3NsabGBCWJ6OTjCfeBoMyHMsIg6JnVRoqURWqClaFowFig6iR1Hhq0LKxo1P0u7D/eqfTafv8b51Op35qHVQfqD5QfaD6QPWBJ8MH2vpyrOvX/0dGKPlBXCHOEHdEFgGbiFPELeIYMI34RrwjMIxQCDYCGO4FCvcEhG3k2HbASKARCMeFQRhfwqAqalQQVGOocdRYsRHVuLHxo4P0u6j/906nM+jzNzqdTv3UOqg+UH2g+kD1geoD7y4fGNR347d+/X5kg8gM4ojIFuIN8Yd4RHA4DhhGKIxguBsojIzWxnBtrLdDJWzbqDxYLGhSMChK7geDIu2oCKLi1QhqFDWUGi42pho5OkF0mH4X8/d2Op36qXVQfaD6QPWB6gPVB54OH+jX30cmiKwgfohMIc4Qd4hDxCVglH5gOEwtlFimSOqkobCN9XqAsG2DEgbx96hAqERIyZ0wSMaNqgqOAoJqDDWOGkwNqEaNDR2dIV7g39fpdNo+/0en06mfWgfVB6oPVB+oPlB94Mn2gbY+HusiC0RGiOwgnhBfiDfEH+IRwOFewDCqheKmCIXiK6XmKTobRbrIam0s18Z8CQrbfmw7iAqJBetkdHI62UnCYKkIquLREGoUNZIaTQ2pxlWDlw4RL/C/2el02j7f3+l06qfWQfWB6gPVB6oPVB94Mn2grW/HusgAJR+IG8QR4gpxhrhDHAImEZ+0gWEZRu6nFk4SCttYro35xgLCUWAQUBgHkYyrDA5SBVG5qugSBNU4aCw1HJZozNjAavjoGPHi/oFOp9P2+VudTqd+ah1UH6g+UH2g+kD1gSfTB9r6dqyLDBDZQLwQGQJMERkDzCH+ABwOAsN+YeS9QKGEOCwlzkXBTtxWQuFYQFjurINiGQvTCeikShgUEA4LE2MkTgmDbargKCAYIVANqkZWw0fHiBf33+50Om2fH+x0OvVT66D6QPWB6gPVB6oPPJk+0Na3Y11kgMgG4gXxg3hCgBjhcBgYjqoWlqOQS6UQTFWGj8Vf4rHIaJHdSq4robCvQljuqIPGglS4TmaUUDEGkJSDRwbBYJsqCAoXkUsRRMMIBNVoakQ0amxkNX50Dl3gP9TpdNo+P9zpdOqn1kH1geoD1QeqD1QfeDJ9oK1vxzr1/5EJxAmRHcAS4gpxBuBQ/AHlsA0M28LIUgvbQshtUNhv5LG4SxwmLousJn4ruW4kICx3wt86YCwEBesksCzVQSVDSh2Mo4k1rcwoMBhVwTYQFK2jgdRYEQLRsLGh1fjROXSB/0in02n7/J1Op1M/tQ6qD1QfqD5QfaD6wJPpA219O9ap/49MIE6I7ACWECCWcCgOkWoYwbAMI0stHAUKxU1QCgdBYWQxsFlkNfFbG9tFKGxVCMuddLBYgChUJ1HC4KBQcRsMani2wsRSBgWDUgWlCMb8QIEgGkggKLpHY6ph1dhq/OgcusB/tNPplJ+/2+l0Rv38vU6nUz+1DqoPVB+oPlB9oPrA2+MDo/bP2K7s3/G3+v/IBOIEcYM4AkwhvgAcijsgRoFFpBgqz1BgqPxCqYUlFIKBlDYHoQx5hVIKAYWTCh2XfLcDCOMKfC936AeEgsF+6qCUQRiiULFgEMbK+HFhMIaGpQiK2qMaiAZUY6Jx1dhq/OgYcqi2C/jvdzqd8vNjnU6nfmodVB+oPlB9oPpA9YF3pw+U/Tb+buvj1f9HJhAniBvAEOIJsIWUw6gaikdKMNwNFJYDTfpBoWZzgSgXmWxUlbDkv065IgKhYBBLKYTD1MG2ULHyBmWkQsWabFrKoEYRS2JViFi0LVlWFR8VQamBarQSAmNjwwGiY8hxygv7xzudTvy8p9Pp1E+tg+oD1QeqD1QfqD7wZPhA7MPxvezn1f9HJijVRADiIDgUGIJJxCfiFfGLeEZ8I97BnIVl+FgqIZhJ/CQoHCV0LE4Tt0WWi4xX8l8PEMYN8V0H0UGxREEiUSU0ilLHCRWXMKgwsSoLlccQ8Q/8wA98/xtvvPHhGzdufHF1dW32wYMH69319WYdn+56s76Rl1jPT7fbrK/jg+1syX2wfdx3vdt0w7put9ts+N9Y38W+XK43Gxvradtafq3/6n/5utN1WK+/ev+p91/0E7X/Ub+r5UHqf8Eoa2urs2AWsAsYxqerkVoozgEUluFjDTQRFA4LHYu/xGPis92ohGMBoahTBZa5g/3UQYWK+ymDfWHwjddff/7evXtX6VQAtQBrBDVeeHYTxjY9cLe+Qfizi1Mg2CUwojMn7BEqfTvs70ApJ94QPDoY1vKtHlnPAOVa/+Zj/uBR/U/XGa6vev3xPuPXiD2I1vsPwaDef2v/I8Gm+/T3v2CY119//fkJQuFeVMJS+Isq4cSBULmDyhuE3KlQccwbVJhYMKgBJFQGv+d7vuf7ZuZmPkeVbiMofHQi3VSlAFonlOCN4AhlL/6+4X8DGuN6HKvbrLMMbINjSRU0wOzW8nugh+DtAGSdXK1/1EP1P4fBev3ZvabnPlPvP3Y/rvff2v8c3P53bm7mc2CbMD0NlMJ+A03ES+KnfqHjUeclVMR3V0ConQeFiyVVKlQMhbAEwn7qIOLmrTAIip6bm/ucnqg3CGgbTRehYXa8Gz1KXre7QcgTuEVIkeKXL8IS+vxvVx6xr55ga/kGx7X+8YBQ/a9ef/X+U++/ePCr/Y/6VYvK1f4XfDEqf8zMzH2uRSksoRCDbYeFjkdVCSPDiesiFLYqhHEDfNeOOtgo4eJRYVDqIOLnUgYxLJs5g5BWFXpLcObAZmDnTxhS8zysy22pTsRwsEEN8gwBNjru+obJ1AoNQyW0ELKrgypPIWP9zaf+Wj5hudZ/yk9NDxLV/zzntrhG6vVX7z/1/lv7H+9HD3r/+8Ybb8TwcTklzaBBJmU+oaBwUiphChmPAoQxd1D5g+Oog6BewaDUQUimmmfwbyD5ck05g4AxgZiHik218/CcgEROBvXQB4BoO8szBPxZB2Xg5ypg2C9tv2FPf9q+lm+qSIJlB2SGR2v9p/QC+U/1v0JhZ55pvf50P6n3H0v3SQ/veuDWst5/PUIVH6gkcPg6pafU++8Te/8F44SBJkiTExS2DTJB6LjfABMBIaKzgsJBg0sk9JW8J5VwIBBKHcSyHF1choulDmLeQcS6Rw0VCwahDn4vRuSk8G6CO8GcAWK+mYT1nqRMcEGSapBw0/YOgAYzvm8qwy46/FbL9xtPqptQz1qnm1EIsVtnZ+HVWv85hFD9zx/s6vXnKS+oj3r/wUMUc8QdBnH/qPff2v8clP4XrOOvvdPIY7DQOKHjtsmqxWWAQgl4baONxwJCUaSAsF+4GEQqhVBAqMEkJRBGdTCGitP0Mpjle2HhxhdxoyC0uarHG0f4jqdtA7/Q0aCzCZBCxcY7ID2dE1L0JMpjeDgZ63CDBkTGTiuUyfJ69rXQMstU2bX8pMTW+pc/9voY4ZB+ZEpJ9M3qf/X6q/cfi0jU+3+4b7jYwXtqunfU/mdH3/uE9b8LN2580d9sgnkKBYVxkEkMHY+iEorHAIUlEEYoFN9FKOxRCOMP+K4dRgFCTTUjWhUQYmRMOc1MHEjSEyp2Uv6+1bXVWXSa9sETow364N89o/bsxmEXiYchMIegXzz2lOHhX6pavTmDApZcls8z6KBYy5diWusfN57qf0G5SA9Gugbr9Sf/qPcfu2/U+y8U4Nr/4Lqw+2ftf8UqAvu11bXZ4lV3/ULHbQNMEIXVRNVgL3FYDBtHhXAYEIL7AIX8bxQg1MGVOwgKnag6iBm+MaFjmhhacOdPRRwYgtGeUblDZ+2qXo/aon16nhqyApH20b6+HRy4lm8dPTu5qKRiYECt/+p/9fpj6Bc3dtxH0r1E9ZIeXF3F0XpcS36/0ZIqh3eaFvmo9596/633X15bT3n/D9bxt5pgGppJqoTDwsYS/EruGwiEUgf75Q8KBgdNNQOZU28kGaQOokLw/r+/yScK3EB7QE0XSFyfVYly23SzdYfiU7sDn+g8hZwj8MTvtXzr9FQPXpe5rmv9E5iZauBKmddV9T+vj3r98eGh3n8EzZ6b3HMvsfuIPcyH77rvaNmzj6X41OsP9Rr7RO8nizqr/vfu9T8HQr37GFA4ikqI6Gu/0cbl4BIJeVEhBNMBCkcCQtGjgHBQ/qBkSoWLNXFiGS6OI4s1zYxyB7/XZVO8/+/7M7BZ6IG5fVT7gjIYLwL+VoT0kAuYnsrNGQw07UayoUmocZPB6+j8jQoqOz6d1PJ1E6/1n3yq+l9+YKvXHx+cEpxQ7av3n3St4B7rKRe8vyKtp95/GU5mP1P7nwPd/4J5gkoIFipzCTEbi3IJy3kJxVviL/HYbsPGrQrhICDUcOZRwsVRHQQQtk4z4zBIdbDT6fwALhJOhOwdDW8iflNhKCGELO1GgzBMfkoi+HGUscFfCiNLdUwhHuxj+ynvR+pXLV8QGJSeroeyav2nh43qfyFfTOoogUiTvcOP5Et+jdbrz8PG9f5T77+1/0Gfe5D7XzDPiCohGCrmEg5SCSMQanCJhD0JfeK8qBKODISSHcfJH4xAWIaLW9XBTqfzt5AnyKftBHDWoSSFT+v9SVzAyCX3VdjBjgOHs6dVTWmQIYdlsSMLZdTya/3H8BQeGvi3/MbBpvpfmjolXYP1+uO9Rvcqezit9596/8U9pPY/OXTt91LcLw54/wvmGaISxnkJxwXCttHG+wKEbfmDbXMPtk01o3kHES9X7iBkU5Dy36aiACdJHbElYidnYjgYv8OpAvwl5SFPgps6Km5r4eF0fA4e8c5e5fkxeexavoNQrX/ctKr/+c27Xn98YKr3n3r/rf1P7X/Tw98u+QPM4+wDBmrLJdS8hAobg6napqBB2LjfJNUS9GIe4UQVQgGh5h7EyZRAqMEkbeFixMkFhMwddFL+wQRxDBkbsGWVT52SPWHoCTztI6BT3gqhzpyWnbqDYdxeDRov7vS7wl1JZazl84nO67HWvx5M/Im3+l8KEcNPbOqRev3hOqn3nzx6Ot1feV/1ayc83Kff6/03DexTTma9/+Z77tPQ/3Q6nR9sUQk14rh8e0kMG5dvLlEeoaAwho33DQg1nLkEQs09qMmo28LFbYNJUu6gk/IPZTAzZSo2OjuYjbLzlSKop5XeEJ8uJCqDDPOZQ/HCcujckOrhf7NM3KB0wxIAATBr+ekmZXVa69/qofqfrht06PZd4VJcs/nhjg946eGs29TrT75j9aR6rPcf96N6/7VoTe1/nrr+t9Pp/FBQCSGOgYkGDS7ZTdh4z0CoOLMSEXHAUfIH4+jiUcLFUR2EdPpD+enQwC8CnToZ2wY3Ucvn0jJ3RAZz/Bs3E368Q/J91Inbb6HDIhRa2Xa8vF8tP9cL6k/1rmWtf4FQ9T89cHFZr7+UAsP7DgEH9xXPR01/x+vLvvPa6nlQ1Tb1+tN9R8t6/6n3n/gw9ST0/wEIy1zCOAXNsLAxorOapLpUCGMeoXhOfIew8UiDSrQDDiC6HAaEUgf1dpISCPVmkjJczNxBl05/2ECjBeJ08/TwCxpbn3zT1E3URirDOTRieOfUMgI97aPBAv60XnZitfw01Yg6+1r/wXd6/LH6H667ev3V+0+9/1o/U/sfvalE/Xbtf9F/djqdH3b2US4hRLI4UXUMGw/KIxwFCMFyZR7hRIBQ890obl3mDyJkDCAcNLoY0mgaTOKk/CMJCB3ASPwK3TIUBXCzp+NeMAlP3OqcfT8Ao47D43O9z6vHp3MAqI0Cq+V7XdX6JwDLb7is/ueqcL3+eE/RvcMVPNw7GHGo95+UVoLrpt5/a/+j+2jtf5WKZvzR6XR+JKiEEMc0uKQMG5ejjfsNLAGTic+U4qepZ8YGQo08GaQQ7jZ/sN/oYkilSKxELP1H5ufnm/nr15uFhevN9evhs7DQLFxfaK7fWLD1/vsNLheaBfy+cKO5vbjYrK6sMKFdTqinVN6wPTeQ6hbBEBcr5k0TCK03D7rdZm1tlce6ceOGnUuf8heuzzfz8zjfBS6vL/j54dwXrvOccY74/fr1eR4L28M22DOP/a/DNmyPY/Tab3bZb6X9OLelxdvNysqq2StwTiOkTWkdZv+D7npzd22tWVxaanBMnIfqvyx/fuE6zxG2wYZY/7RriP2og2vX5vvazzbvU/7NGzeb20uLzeqq2Ys2pBLlHTMeEKzN9VTebv+DB2jftWZpcam5cRP23kj1X5bPv71tyvofxX5sAx9R+5f2sx77lL9w40Zz+/Zt+iJ8krl3ymF16NiN/elBqo//sw71EOWwo2sJE7lLGd5t/dfyvQ5r/Tss9t5/q//BP3J/lL7DX+r191TdfwIQxsEl/UYba5LqcfMIBwFhDBvvmIdwr0CocDFGGGNEDBRCkC1i4CUQQhrtCRd3Op2/w0533jpQguH16838tWsGEIQNgyjrYPHd4dEh4to8YGO+WbixwE7fbi42yk+dmj3F2wWX1vkFuLa61tzgsezY+H6dxxTU9Zav8gRROh+AHs7R/gYM+ndALQHSIA/7z19zUHRIRHnad9Tyb9y8SXDIN9MARR5mT7YSoMz+lZUVgikAUOcKOO1XPqAP0Nqv/ofZD9tlL+psh/2o+xHKv0l77/rgBd0847LdfrQvfIzA6+2j9mizH+cyjv+V9pt/AJ6t/Uv7sf0o5QPUAbEGvW6bADh1HsPtjzmz8IfkE36MDX84AuzhN0y3oymguM4hJn+PnVctn/XJumz3v1r/9pAmyKn+11sf9fqzh4ODcv8B8wwJG+tVdmUeYXxrSb/X2I070niiQDhoQAnyB9smoxYQUh3sdDo/ur293WxvbTVbW1uNfd9utrDOP3G9ttV2m5tbzcbGRrO0tNhcnzdFbnl5uel2H6QQxvqGOi1diPa0DgVmaXGR4AnggdKIY21tbjVb234u29vpvLa2/JzCeeo8dK7bab9sC37L+8JW/7jdtu9w+7c2txvau77eLC0tESqgRuE77cXbWhDCcoWHS4Cg248R21DIpIBBHUTnv7m5SRtjPbfVf7ah1zbak9pL9da7zeam6i63q9Vd3r4sH+ewtblJe3DehMrrC2yz+KaaZG9hP+1FPS3ME0JRT7j5pnJ66j+3M+zZs/2Fj+S662f/drO5tcW2wDkuLi0S1vGgwPZ9oNBkvnnaQ44rTwxdDm7/5A+uNFrHLH/x6ZUIgzHk57/Dj/hQUctPsMz6qPXf7/pL/tbn/lv9D9dUvf7Mfw7O/QfME1TCMo+wLWzcL49w0MCSPSmEChdj2TaopF/IuATCUfIHES7m6GKvlB9NnWWCit4OmUDlvxmoCSKsc1UHv/Fww0OygiRTMlLHyYvP8hEBTgCia1evMVz65ltvJgCN5Rms5fMZVD5/SzChc9TSoJfH27R1hA6AcLC7LK/8O5b/5psPGe69du1aQwiOOYCuEBIQveMC/M7PX6Mah30Hla9ytdQ5xvLTbw4/fe3fAdLD7dextUT5Dx8+ZEgeavDy0nKCX8Ih1S0PsTrwLC4uNdeuXW1uLNzgvnjo4PHS+fqDyC7rP51bOt4WYZ/+rLLSA0Jo/7T94PIfPnzTVdnrzdLykoeU0IEIDq0z6We/hWm1rTqf7P9SarhMbxAw8MM6rk/waOXaYC4ds5aPzqzWv/vBkPuPwU/1P9VDvf7yvSa/QSyve1rvPy1AqNHGbdPPDMoj3A0QgvGGhozbgHDQCGOcCD6jAKEmo9aAEuUPYqQNkiv/rnXShXKCjhRwpY5VUAHVCB04/94JW2+99YjhY4TkVtdW7YXiDkQxF2NtdbW5BjhaWGjeevTIjxfPYXflGySE8+K5mvonqEogEUEk2JeOMYL9OHcofgAfhBfz07qpPOsMB64zB++ah7QfwV7Vo85hl+XLlgRbPN7+2f/40SMqZwjprq6uBGixTkn2I0yM9kXY9tFbb5kCKlt92dMeLfYD7Mb1v9R2sSxXv3vKG6H+Uf5bb71lofxr82xDAoireADDfNPstR8PQQZvUPRMxYr+j04p/g145JtZkK/E7XthT8eo5Tsoex09zfUP0BXs7rX9eayYCzeC/73T5dPXpeD5NfR2+v87bf/TVD7bbUz/m2T7R/8H8zj7aLRxBEKNNkZ0FVHWYUAIDsOgkmFTz0TG2wGEcdgxftTGmrOm3xyEbSOMywmpx8ofTECIDlLwFztL76jZOZfbaHtsw+0AIlvNxsOHaRADE/Px5MqPdY5Yx7yu+fnmzYcPkzI4qfIJBemcImTaeUJJi2UJquK6BA8j2I8wNwZtIEeuu/7AIEEQQAXjQXPjhg2AebgBZXCy5bPuQ/3vt/1QCgG3yMXrPrDUgKSGbXQ5QAjtC+UUvqD61XcjLf8AACAASURBVHk9afbD3quuZD+Qvf7+bYWcov1SHlLnVfh//N329+kh4DPBb7B/+ttzF3Fj083VjiNwdDVe4cGe4/Ref7X8XK9vd/13H3SbpeVl3v/m5uaamenp5soVfK7kz7R9n8a6y1o/3Vzm35cbrvdt8Hve7nJzZfqyb2fHvMztLjdXrmC/aR6Px/Hypi/jt3dX+dMz083s3Czvp3eW7/QM3tsP/19evsOHvtmZWWuPA17/Vwr7p6enm9nZOUbylpeRHmUPs/tx/8H1sXxnmSILrg/6LH11cv7vQLibPMJ+A0vEZRhprBzCceYi7JmYcBgQKlyMwlDwsDeURCDsN/9gyh/sdDp/zzpsU5UUdlQnzs47qi3DvjuYIB/w6tWrNvrYOzaFu1ZXVgkLt27fDmA22fKTTR4SZhixOHdAX4bAvZUPW6iarUAllHJk4ZmV1dXm6tzV5tbtWwTmXLeTK1/HzGAOEIbKaiHxbL/Zie33Yj9G4gL4VldNFcXNwQZDbFA5xMCO27B3n8pP9hZtautl4+Tshy1mL1Rv5a3lZbS/bH8BmPw/QV44TnfDwU4Q6EDXC5W5vPIcavnZ/96t9Y+0A4Af/AgDtHCPRKrJnTt3muUVLe80gCCsu7PiS3z3z0r4butWit/wtx2L2+pYyys7jrccjvVuKn95ablZXFxkHaGuUGfIUS99Pv69G/9HypLa48atGyxzCXWnOjug9V/aDx/d2R5Iocn3o93UP++Lfgzc/wCbeIBBGhmuD+Rx6/qYpP+DeVrCxhhb0TYfYRxY0g8INR+hpp4RFCqPUEKfhL+oEEIcHAiE5aTU+w6EpRqWO1t1rA4X3vkComwfLS0hX5CBJRLzr85f4xQecBxrfAOk27fQuV7lAJK4j8FMVPR2X/7OY/lxpWqG3LJJ2A/7eKO/dStdKAoJAp6uXrvWPNzYICBZ/WbbJlE+BkQMrsvJ2r9OVfRqc8vtTU/u6+tsczwMbLxZqIPwn32q//22/+HGOtsQbcknZN7IBP4xjy3cJEOIJPo/wZmqoV0X6cYYIDBvY/mCnOpGN088odfyw4PXu7/+8cA4NzvLjhXTTT14cD8NaECEAZ+H61g+tO9ct87vG+sPG/iftuOoWGwf1uF6xO9a8vtDW6f1uP/guy3XfZm3ebeUT9DodllHSMNZvL3UzM3ONDfDvWav/n/r1s3UHiiDyj8GjrENch2hvg5a/Ucfoe9gsGD3AevI2mOxmZmdbVCHunfF+79AUf1f2f/ne1u+/6EfmZvB9bFkMzs8eJAGpk66/t8BIBw2F+GugBAx6lIhLKecwZw5UAjLEcbKHwQFp/kHnZKpEEpBokLoyhlApVQItR3hQ517ghFAiYEJRs5evTrHkalQRuQwUEcw9QmAAdsI3HTcSZVv0OUhYgAsBpLgPFMI2IEs/W3AtNvyYcsc7J2/lsJ8DJN31znvIex9/PjxvpVvMOj17zaxDlyxpRI6Qftp79wcQ18pbOqhUYWLc/t6iHyC5ff4H9vWfFX+F9sf6/Zq/2P3Z0A/29UHM7BzVhiXfv6gubt2lzc1zKsJNRy5tJjHkR/+vWbf12yJfEv8xu217cpKA2UZUxRBhbX98d22w40Z31EW5gDFdyhKOAbCLnZTNpgsr78uwEEPaYBQhKMJowBN3zdBp34D6Ibj9rFfPl/L9/rqrlPpmJmZbe4sLzf3799v1h8a9KnjRRrJOkDwYQF0PZCX9yGkOPxh340AhhsPAzim9TgXQc7GE1f+vfv3G4R1Z2dnOeJffog+pbz+RvG/pTt2LKhPD+7fb2r9j+d/8GHUHaAQam55/1cERG0x7P6DGSxmZucYKkZbR/8mkPI6mJz/twAhmAhsNGyCakzrN6mpZ2La4MSBEFImTrYEQgwowTBqAWEcUIIYOpIr/751og5LDhCpQ/WwY4YLH1TisJi3Ux6h/761zbyD2bk5vhwbTwXmGOuUhKEQGmwKIidcPqE2hmQFDPk8ce4GgAGk9mA/wsIAv/zUZE9AHFwxP+9l7V/5GXYFwvtp/1YzNzdLe9MNwBUuqKEAJ04f5A8Lua73wX4BsC+luOIhI6cEqK13W/4Ww/5zV6/aQCmHX4KP233/nt0o8cCDqWru3EGYboVACFVoZXWFE5qv3AHAReCzvwmPAEYHPG6zcsf/Xmmwn0Ei4BLHsmMLKHFjxSAthAJx0wbk0RcBBuH6s/aSyijQM3jkb0rkl438W3BpcGGdsuAR63JeXun/GMF4UMtHvvT09BVO1XT//j3r7KhCObhBxQPEPYwKoal3D4PCR1XP1StTEcP+6DC5rXWaUAm1Pb/j2OxUfZ8nsHyA2+LtRYZ49fAiMCzvP8P8D3mXi4u3eY2w3mr9j+1/8GWEkZFvOG79x/sPoB55rwgPP7gHGLQHHPjrfvk/mKcljzAOLAEz6b3GcWAJGAuspTeW7GUuwokDYTnCeA9AmMOJ6kyltCTljp3tTkXPQDGHjjMgbhEKIiCZarDeIFkUHx077ZNC0TgfU/C0jS3HKz8dl+AnG33pwBi3Ub6brRu/fNiKD+30nDB8BxTDXh5X8LIP5ffYEkLiWJ/adYLlw9a5uat8QtRNGPayfa/O9gwm2Y/yk709fqP2tfbTNpMof+7qLKEQHZF1Sq6edbuNqRjLDKE/fPPNBP+N/9ve8aVpttNKbbTd5FX2TdvYcrvRBlrPPUMqBwbAIKy9fGfJwmBSAj3crGsQy2gD24+qIF7vZJDY7W44VLq98GkpiQ7BPEZQE9Pxg/9H30i/H5DykfuEhyMoulI+2NlRFczhWvyGkC3VQwfB9fWsihjYOdAB7gB1UBod7mKomOU8jCHhfByWQ2CEKvRklX/37irvr6jT6LtQqHb4WB//g7KF9oCy/qTZ/zCqv++C9l+7e5f3fyjfo9Z/ef2jLSEg4Pp4u/x/gkAIBtvN1DN9cwjxQzmopF8OYRky7geESIJUyFhTzugNJaDgOKAECuGPGTCEDhQdLDvZsG5H8r6AqYBBV4QAcAZIc64eWDgKjgNgmJmdbldvPM9sEuUbDOD8PFwcwIjqZJt6tYfyrwEIZ2c5nYhuWIAHhDowmtDq2YBlP8qnvaH+99t+AuHsrLWvDyrZ6Hab2atzDUJk+10+67OEwX203/zZgL8ntNpFQvRyc+vmzebxWzalUAY2QB5ALqMeII5rw7qIgtiWdSf6E0z2LAWMYU/3XYS3b964xXPKE8Tn6483ZYxGRshNYJeAEaqfKX/JRsKbwsWmBqbfkppoKiDaH7lD0f9ZHjvt0HEfkPIxZycS5BkqTiFcV/TWHdqCEihoxBLKalRJ4m8IE5fhYoImQcGBMaqCfrx0DJT5hJWPOkRdQgXfrf9hZgS2x4P7T5z9qe28Xd/p9n9w/0FzE68hvX6dfQD8adzr/8b1hebmLbs+eu3bP/8H87hCGCeoBhuVA0s09QyYCtHXUiHcCxBGKEwh40kAIWLakDE1KfUgIOyZkNpj6T9m+VUOKlKQtARExYmc2elIhRHcxGUGRYAfQ8be6VjHACCc5ZOFAYOH9bw8KYIKf2IbzAX38ssvN8+/8ELzwgsvNC+99HLz6LE63qx+QQV69Oit5jOf+Wxz5JkjzZEjzzSf+exnm0fqpFFGsOvRo8fNyy+/1Dz//PPNC8+/wDIwjyLPK2w3qv0AP9hmT0HqVNebudlSIewF7b3U/xe+8IXm86+8EmAz139bXZr9kykfdl29ZiFygL7liXYJ/LOzM1kBDnUZ63/U9h+1/k0FzPYfPny4OXT4cE+b76V8Kb1UyTRf4MZ6s7qGORfnqQBB2SbwuQJM8H9sD1ibjzeZR/r48aPm0ePH9n3zcYN5KTfxN777Nvz78eNmc9O3e4zfHtt2vi3eIoM6tAE1Jh6qTgEMVKbu3s0hnRTWzQonfLUHDDV/ooebcRzBXVIBcD0H+9n2of1L/08hpQNYPlIMEOpEHVsHDlUO9efqHPIGA5gxl1Ah3yJshn0s9CugjGG1h83U1FRz+jQ+p9NyCt+n8Lcvp05zuymtOz1l+/nfWD+FY0ydpj9HIB1WvtkUVEypoFQxce5SKndnv95shfvObv0PfRLCxTgWAWSC9V/ajzrfS/1z3zNoL2u/d7r+y/I5hdLSIvv4eP8f5/pH3j0iGlB5Eb7fi/+X9Y/wM9cV/udAOMpI4xIIwVgaaYzxG+8KIIREidi1FMIIhJpypp9C2AqE6kQIJlInuMyDMLQNOtStLbxqLYAYO/wAGa7SUAmcmekdDbjebWZmZhrM+YRjUr3zMvuV//JLLzfs3A8dbg4fOtwcOnSoeemll1IY1MDHyv/sZ3+jOXz4ELfBPvh85jOf7gUmnN/WNo9xCNs6OBw+dIhQmGylstgLv4PsBxDOIoSaOkdTU2Y4r5aHjAnUuV5HsT+fj3IDrf4Bgmbr4eaVVz5PG7mt1z/rt2ybCZaPpGKAn4CBdq9vmCI6M2N1vo/lKwwc2z/ar/ZX+kGqR29/1k8IrffzP+0H1RN+a+Dr+XnrUAfvcIod7O80aAr71hahT3AH4AMMYnBRhEP8Xf6W9nmUgfDxI9sPD0PYx6DyUYP1gMOyfOT4QLlkiNsVwKysaGCJqXYGe/YQgyf9dFMH/ElF9O+l/WX7l/5/kMvHHG4IqaFOLM/PgCnCkcAEoIjv+C2Bn3dm3IYDQ9DJ2XapA8T6hxuEvqnTZwiDBocOgoA+QmKGPUEi4A+/GbgEoHQgtJC0w+uQ8s0+O/dsbwGxwUbaJNWUKulg++GHGMSAOqWP0U+LhxuE3Yv7b/Q/3ItxTWS7rMyybXZT/6X9BuYG57upf7QhYdAhHecM3+jX/mX59vfk6r8sH/cMTAc0M40+XpGDwfVf3n8w5yTvUfSDwe1fll/6/6j27xIIwVZtQKg8Qgz4LSen1rQzbaOMJ6YQRiAcNCk15iBEciRm3lbIuB0ICXeurHBEZga1qLpYx5jBr6cDRcfvoWZ1oJjMclZAGEJLUNFmZgMwDCn/hec/QPA5fuJEc+L4MUIeQAgd/hGHPoAigI4frMPfXGK7XkDk39j/CH470pw4dqI5dvwo93n+hecddlUfAMJsc/zeY//2Nm01e9Wh2ntnAU24iVn9CDD9+Ky3WN9bDVTKl17+Q6qhUEVffukPqSLF+n/lC4DBw81zzz7bPPvsczz3Vz7/+Z4wPLd3OLQRv1CqcvkAC6itUEeff+EDDcD7rUd4q0g8n/72UxFVyJiwgBwzKYQeMmb59o5gjvJ2+Fc98nx6yrNzFCjD/6ytDznw5rboqf8W/1P7oyzZL98cp3xtawAsBdjaGPDEObKW72Qgh2pHBXCTsEblTyogFcBHzeNNfAB7m80moA9/P94k5BH0XBl8tAkINAA0kPTv/ntPOY8eEQylUAJU8bpEdojh+rMOsst3bOtNOliHDhc3bABez7yIPrgkQqM6gASPof31mx0bkGnh6bzewtd4x/fTXj4GMGD0N2w3yLCkeQ0kgYrB6V6YH2aKBjs65RFyQIhDC2ExAow6e8slPE2AcIVQCqCrhlIPTW0CBPbCH5VFBw+phAC29THKZ8gQymcaxOI5jlGF80EDu7V/5c4y02/kS+P6HybhxjyNuy0/TfXj7ZPaFOAO6A/2myo7xaiRRY8sUoT+DxNvW6RsziNIs1xiPftN/m4RNlN9p/xhIZeBsgaVzwEaOK8J1n9pP+a6xOTRfGjEPabnPmP936DrH+2xsnzH2sMVvd36f1n//ewfEQj1TuO/3ul0RpmL8KkBwh9HJ0nwc1hIHW2CBylTyhdsV7jU2WJ/fDDpJ9TA8qZ/ZXqGTxXaPpVfKoUEhe3mhRc+2Bw5fKQ5euxYc+z4cQe8I1QBDwHqBH8Oh1L8oCQSCg4f8W0Ahggj+t++3/Hjx5tjDpoffOGFDFVePs8T31O+Wrv9sBUfyufhKVXKksBik8cSmNky1j/UT4NbnKvZAFhT+VADDx06Qhj89ne/3XznO99pnn32Wdr6yiuv2HYFnFtdG0ypfCmvqCPUGZYIzaOcZLMArsV+2Do9a0/rukFjCfi9Mt2bI9pWvq3baX9ZPs4L7S/7WY/y1R5Y92O57Wr/XE6v/Xl9f/+3ByLzf9g0nR5wMOAC+XJdjijGUy6y+nCOUu8A3D3ARujzsDAgMKp/BD+FlAWBmxkaIywCNh8ZbD7yYxpcmpq46SkeGOmMT3n9df11ilL+0GYGe3qQwXQeuLlvpNfr4elcfm03+Gx/bHsdi9umzsHeUJSh0/925VH75OM8PeXjLSIYbY76I4Qwl89BKap/hCiFVNHRo+O3qWgIjbGzBHRgwAkHoWRAyCqUKX5ZJTzjYWNTnKgIAhgFjVIIpSICIqcAIOOVb4qfqYno1KFk9QCLD4pgWJAA5cpjgqjh9mMEPfoVG/Bk11/2G6lU5s9SsqP/Y99ltceE67+0X/WPgXeWNiTocwj0VCKlVmFpH4dFCCpzc54CcJrhT1PF2tu/LH8/6r8sHxOao05jG+g+0Vb/9tCZr3/siwdqe4gY3v5l+esaaOOArjoY5H+dTufHW6aegVgWcwjfVUAIqVHvMtbE1BpUMkwhRLgYVNtPIcT7+9KUM6gcdcBSjwxODOrQaep3dqDsiAWGriRhHeEpqzfotCEHz0zj4vWOBjcJAoO9jslUoFhOhIO8noDkoV2DPwsZ89y2t5ov/fmfN88cOUJ4ev4Dz2f4OwKQONR88IMfao4cOUI18Nf+z1+jYgGbcFwDLlMWAYspFB2AalT7MQSf4QzaCwUGifZdvhqKCqHgyufF62f/B154gXB2/NjxBh8DGwtty/5nnn2WIMhjbG033/n2d5pnnn3GAJige6g55PbDrgTGBD+DTAuXH2qOHz/WnDiOcg4zn3LU9odNeA2WPR2ausT2vTLNqTYMuNCOph7b32hja9t+9pfly/5x/U/277V8tT8BGE/DPugCtuLmhxwxhLI2tzeZb2shYFMAoe7lfEEHPoc4hAjv3bubwsgCxEebmzlXEKFhgqMrgwEiAZtQEFneI3w3AKUaur1FZWp5Cflrvdefzp9qoKt/vFH7drCJN3j9TbCzcLJBpH8XSGI75R5iX+6X/f8glz995XIDiGFHpfkH1YmlMJlDnQMKRhobSDlccX3vNjgetoGCx2Ovb7jqJ9CbaqbOnG7OMEdQ6xBOthCm5be5UugASGWQKqGFmlPnOmL56JzTecNGVxdTJz4B+/EWjQgg9NUx/I8AsrJsdTbh+i/tV/1D8TPQw6wM+A7gA+wFpRDw59spV1m551J31c5ql7L9y/L3o/75YAOAd/9bXvH22OX1j1cqUrHlQ477+y79f1T7HQjLqWcGAaGmnokhY0RnkbY3LGSssDHeVhLfVDJWyFgwiPfh7RUINQch6BdG7wDC2FHnTlcgaJBnnbcBm20T4I8wGH+z75h/C9BgHY+rEF1TkHoBSfv6MaX+eLjRQpsvMbRpgz9eSgNFoI4BkgB8f/Znf8bQ6mc/89nmmWeebZ555kjzmc98hgNQECL56Q98gNt+4hP/nANV0FFDEXvhgx9snn/hgxxgghwvwC1sNBAY3X7YhI91roBf6zgBxlTMimPmeu+1H4NcAHDHjh0jrBnMudrpsPfsMwaEaq+/+Iu/SCoh6sMgMIKf5V4KKO2YFlpHKP7Y8RNUXl944fmR7YetgCSMVE0QAeAnECJkHHzEVehYp/3sL+tf9vdsLxUTkN3H/5RWoP0AmrspH/vD/zFSnO1L9cyhCXk0txf5flrlBTIEDAWPYWMAm8EcwZB5gI95Q/3kJz/ZfOxjH+OUNfgN8BgHkaT9Y3g4AKF+Jximsh4zBL35eJv5PXyzCkK2Ed4EfFpu5KlmekBQsOjbMTwn2OPS6qBs/9L/y+ufZahsLJ/i8k0BMQAhGDEPzCFOuYIPLVQMVTAO4lDHj45dHXDskPU7wWDDcggtTKmBCBY+TnmCBL/enDaohFQMAyhKOdTxRy1f2zMEDgXTwUG5kZOwPwHhLv0PIXyEOe3cHLwnVP+yV/ZrgI+Bn6l9gjwDQ4Gi/+agqG0UVhbEE7ajqhnALEE3QA3b7FP9l/4HdQ8qeLz/j3P9U0FfWeE9YK/+X9a//i79bwgQlpNTQ1zbLRCW7zOeCBDq/XiIUeMzrkIoIGydlBqVww6VitjOzpVqjXeI6hhzB2sd/uaWjXa0efxMEUIHehkvTr9scrJ1Jg5I0zMEJB4PHbvCkUlpFCB5KC915K5IutJ248aN5n3/4H1U+b70pS9bjl7IgWTn73CHc1u8fbv58M98mLD06U9/JilVuy1fkCz7r1y+3Fyevkx1JT65EhSvXLE3pfi5p3ptsV+KKMGOeZCHmz986SWD1O2tBmFhhHilEv6bP/w3zZHDzzDM/PlXkEdo9VTaH3P4UD5GWCskrfAqcgp1btbeEY576x+d3eUrl20KCL7eyEI4WJ9CxqH+y/L32v65/vUgYVMMyX7C76HDHv6Gn2VAlY2qIyxNScw+V9oPX8YTrZRBW3b5jmoohBjYkRS7AGgAN4aOBXOPHhMgX3zxRbbjxwGFd6EUWhg5KYppVLKrgOHvWI5tjxDyo1Q+wsbIH7x96zbPN15/zBF0IAOs4bcU3klwb9eq/FhLPeSoA0gqY2j/VD+u3ODvg1g+RmEaEN4x5UydOUK9CZY8D0z5Zz2/RagCFOa/kzLI0Kz9BiXJcgMBeTZSWHBHRZD5hAaLObzs0Mh9TUlUnqFgUcsyt1AdrtmCEPZ6ViyDfdiuB2Z6bNRvWQHNdZPttbIeMryIOt2t/7E9lu/sS/2X9rPup067KogwsSmDCws3moUbNxr0Xws3FpqbWC4s8O8b6Tf7G9uV9S+AN9CfclvenvpPbe4PKQBCixJZvmBP7vEI1z/ag4A+Af8v61/nWvpfHyDE20rKyakRZR0HCMFn4jXA4L4DIV6iPGkgfM/8/HXrNAP4ofO0Dndnvpw6UYAUOs1SCbJ127wZApJ08aIzwXd0qoAkdtDqiAVKqdMeXv6nfvVTVPx+53d+O52/yk5LP54AABfYT73//VTg/vSLXzSITHZIQTKbxrUfzi0AVseJJFvkneE3nBOOyfqDvYRBBxHZv71FlRNQiAEuUOzwHVOTCICw/yuff4W2P/fsc3lgzWGMNrYpaHbY7zbG8h+99RaP/fzzNp3Pyy+9xEEl3HeE9oetTCh2JRQdP54OTTm0eRcFYYQt+ZfauM3+8Nu49Z9s9rqksnjIBqNMonzAL9tXNzpf4p2ei0tLBEKpdjZIBICnkLHCxZ7n9/gxge3FFz9CX4RSeP/evaQqlqpfOm6ASoaYkxLZG2be3HrM/EHMjVhef9E34Z8K6fKGGtoSsMc2JTz6QJDCdrR3Op63v+3j+3L+Qampdv2n7T0J/WkuH/c/Cxk73PSofYAgByFBUx/VJ3VuASqp1iQl6KFPLeODSjT9jEaqugJIEHQwRJ6gDUSxELGUKIIM8wrDwJM0PY0NbrCyoxLVG+ZWviR9ijZNxv4ehVC+GP2U/hh8svA/pPUAYgxQJ1v/PKZA+OF6ao8UAmaIeK65cUPwt9DcWFhoAIiAQ4Bh+s1hEevVLgwdS+VVDqhGg0ttDuXTZ3BNTrD+k0JIFXKjubO80hPCt/tB//q3e1G+N1jI2BTbWH/4nh8MpKjD3/y7l5+V0NH9r9PpvGfEyanHAUKw2bsCCPXaOsS3B73HuJ9C+J7PY3RqUOEMCEwpEbxomTtdyyPU+ggahK+t7ebS5SvN5UtQVELH0l1vLl2+zE8+Vm9Zo5R/7NhRqivvf//7+T7KtvLNJoc7gcb2tg1MOXKkee65n2A+B8qbhP2XLl1iviCdnkqL5UxevnyJaqns5bk6tOR1EUazUpvqN5y/7bPF+Qeh7GGkNZQ+hM2hHHJeQg+jGggFCBWUTqB8tuOlS6YwpZGkG2xbtHu/+i/tt1xGC3PTDldFOTiII8fzoJcU6tZ0QcF+1AX3SfsjbxQKodlvgGjHwnaqeyxHaX8o3vgIeNDOUNZu37rV3F687TDn4AdQ2xQE5lHCgLioAC4vLzUfcaXwF6EU3rtrU9JE8CvURiqOaYCKqY/xmKY0bja3F5c4CW95/fG8PYQMIIkhXVMMLelb9mUoFNjZDV+/o9PnMZhr6OHn4P8HuXwqUilnzTq03NE9ZIhYf9vSJ5yOHZ86+bDUWyuwjzpPUwgtBGyqUsgZ1AASjSQOA0lySNmVRcCjQEPnEULSVFzSAJFcvkGrgx9AdUfO4N7tB8yhTuFTu/E/PNClnE5AFOe+M8jYa/2X9tsUQFAITRlkmHh2juogFcKbN3l9Avpu3AQM3uQSE2ff5Pebphq6mtgbZp61UP/UVGr/svz9qH8rA9Mc2YMM6tJCxppJYLzrH2llao9J138/+8cEQs1FqGln4uTUMYfwXQ+EekvJsJDxez7y4s/lvLE00W1Q/jwEqQ5Uaot1pAVsIHxMNcpDxggp+lObloAFdKw6DpdJwdJEu4PL/8Vf/Bg7+7/4f/8iK26E2lw+wCOes8rD+f3+7/8+FbaPf/xjzWOMyhyz/HTcoPjBpkuXLuakeldWLgOMg72pLJWJpb6PWf8IEUsJ++Y3v8nBNQiVYiTyIPvZdipzl+XDJsAugSGNKO3yIQDrRy0fcGa5jYI1H0CjqYUO2YAhwSDyIzVQRiHvNN0Q9vE8S9s+K4QKi6ss+cOo/gd70RnBj+XL6JhwA0d4Nql4BLgMgY+k4gHykA8YYA9K4OLScvNzL77IdjQovJfnGMToY+0fwJAAiGNpUEmYmsbO4xEnfMWbBHSuWqaneFf30LHGN5YIEAlyULAw2jg81JX2l+3fqxpmBfIglg9/WV5esZw1wBUUQkGW5xNi1G1UR9DpqnPkwICkAmalhL/jWK44AuylJJnCl5VChoABgkkZNEVQoWFT/nK6PQAAIABJREFUDX2dK4OARKqXGBji5Us5TOdXlC9YsGVWPtMr+CZgv4Aw+ZL8Mtx/BvkfFUJMcwK4nnD9l/arPdJgER80grAwIfAGwA8waACI+wi+2283+BYQXL83F24ytCwg5LQ0szb62NoJfpHrez/rXzbK/zClEgF9xPq3e4U/WCKa5KO+J+H/Ordh9o8IhJiur3yfMUS3pw4If6TT6eCVLZipG69weQ86ZJC6QYngyGCKao6DA8PIDPFqG0Bb/8/Fi5cMkAhGpiLgYgUsXLx0qUjw1zHDUmpWUf6ZM6fZ6WOASXoLSct5WIcfoBDb+LHw9PChD32IAym++uqrFvbmb8PLp2qncwrlQiHEx1QWQUOX67AeKpTKz4qUzi+Uq/PoY39ZPsAHgIS2IBQ+8wxVQyi/MZw/6fJhkynAstUu9EtQRNm+AepdhduN/QK4cf1PA2vko3u1/9LFi83Fixct306hqe46b+C3b2cgBKxxcAjBz8EwgZumlNFgE/sdE7y++BGDwo/9Igaa3GPeoSl/mn5GkKmlcgt7lyr/1q3bzcKCvVYKN2JCXYBAU+5CGDfYxBt3zz5IB8iqTC9U9rZ/6f87jxXKdKWH5/IUlp9CYgncoKip88YyfE+gaNO9SPnL07+EbYNaqI7QAMTA7wzAjgCYw76AB8Gi5RDab+m7tnc1sSyf4eXTeIOJziMDqs4BS8ACB8fQHt92QvYbEF72h26NaB/d/wAvmMswQ4NsQZ6r20N1Myqfmn4nbNtS/6oD2a/6TyAHpXDWQsZQCAGDAD4ogwS/FDb2vwWHDpDIQUT42eZ/9elopOSG81H5Zs9k6z/Xm9XVTkC3+wyjBn6vGXT9p+sDPjXh+u9nvwMh2Ce+raTMITzYQPh7v/d7BAqqOh6eFFApbKmOVcsMNQAd5fwZIGIfQB+gAR3JhiahXV9vLhIILyeYjMcZpfxPf/rXCYT/9k/+bVYHW8onABDCAF0CL53fdvPtb3+bqswHPvAB3iBg1yjl97P/4qWLZi860pScv94AJC5fvljYm0F6XPvL8qUQ8twJhd8qwse99lt5ey8f7QtA4gVPWLDUALQ5Hgb61T/LDyA9zH7ZJ7u1jPu1+R+VR766rsX+McqX/wN+6c/pAQft3GVC+O1bN9OADkwwbaFhDxtjZDFDvAohA+D8e1pCKVxqMNAEo6M5+vje/TRCWSOVEYaGqshBKv7aO4aQMb1Ngk4r/9ZtAOHCjuuP7xpGYr/boSVDcFBc0tN+UAaxTsBW2F+2P/6O/l9e/wepfAyuQt6bhdhiHp1/39BSqmCELPxWQIhPyUFFxSccRicNyCTwMVcQMBhGD09NcfoZAqNCxiEHTQohlgaNBoo2iCWXL4UQZbeVnwe6+ByJsA1hYyhxDDHu3f47KytUlehj9LOcj7ZDxZZ/h/4HQAhVKw/QmVz9l/ZbfZ7mYJKrIWy8cBODSTws7KFhKYUIHVsuoSmHUguRa6jRxwJMHp/zRVr7l+VzvscJ1z/aM7Y/5l+VQjhK/bPdmKZi9x+bKNwUW6qOAWxL/yOMFuXjePL/Ue2vQNjpYCi1cgh3KITocD/0wTAhc+gsc+ernEEDCXt/quBK6paDoQMllcALFkI1id86m0sXTUFSbhfL2JEjl4EFvwN2AAA4zrPPPcv3FN9du2sQi32l2EnBdBvUmWNflsfwsOBwq/mlf/bPCIVf/tKXErDJ5rhU+QozttlPYCAgKWfSOlGsByC1la/zA9DE8srvg8q3kOsR29/th1L4LOYlZPj4FYezLXsvdSorhPvTut5613m0lY92BCABJDCJMYGhC0XUwBj7yr5+9a/fB9l/2EPGBoB2fm31z3MN7c9pZ1w53Uv5tGN7i7aiHXHj46hcB6T5+fnm9i1TCDnljId2CW3+3ZQ+V/J86pkEeQI8DDRZFhQebpAWYQNN8uhlhJ8xDZPNTZiVQYWVY/m3b99qrs9fZ7vE6w/tpLw/QR4nolYHKuDDdrAxhIwN9HrtL9vflEfLMzSfkILjsHmAyieA3Okd1UpAYscn2HLAwrqgpFlHB0B8mEbvIvyK+U0x2TI7SO9AEdYlsEnl0zQyDn4ERPzGj8LD/vfp082ZnsEn9ntZvgGIQSPVL1cSsR5lc/twXoRGP7+ezt5DtRl2R7cf4XfObBAeUMbxP7YHAH0f6r+0X29/AchZ2BgK4WyDkLEBoKuEHjpeW1tr4md1da25u7rW3PCQMeDQRihjIMqCq70G/tb2aIesCO9H/Zf+J4Uw3v/Huf51faRz3YP/l/WfjplSMOyaqUA4FAgtZ+vsubMGVuxULdHelDUAlwNLWmZwQKduHa7v49PIAAwQOrTOyPMGNtYJR/iNHXwCNz8ewG5A+W/8f68T4H7t134tAVS/8nXOgrgMNyjLzvnU1BQVmQ//zM8wH4tgOaB8HTMBqEMPbEGOGVQzdIL2tGRTeljoHEBoNibllaAb13lIOZUvZWtw/WswhYGLHQN18s1vfKN59plnGE6Oo48nVT5gUNPO8KbMECMUUaQEXEw+s6P+PSQ+vP3N/gh2g+q/tF95hXstn9fAlgEh1F48labPxnozf32+uXnrFnMICX4cOGJh3QiFzO3D1DQpxxDfLRyMpd5sgnzEF1/8OQ6Q+djHMdDERx+H19il41IVzCHkWD5GP6PjKK+/BIfeXgAMtB99lgBoDzRq095wrh528vVMQBZEYln4/0Eun/OspXnvAHw256DBEL5bOBLL9GYJqh4epowdpE/0nEFNAGlgCXVPcJaVvqwW5pAygA/g4DCR3mfsIWWHRsJpKN8URi/DlcjTZ6YYmka5OC+CH6eVkXLTC657tR/hXipSugbDoCiqT0P8D4qtDWLA+U22/kv7Dc5OpwmnpezZqOIFG1DCgSUWNl5dW23WVteatdVVguGqAyJHHivvUNPTaPRxqP+y/Xv8xMF8r/WvdAfBluUQ5plEDM57+79+1z8eqi/jVYJ4teME/L+s/372VyAcAQihJP3f/+pfOaRBOQqg0gOBGf4ARXpNFgFL2wF8trYZTryAQRYMQ1kHstHt2voLGRgMAA16DBKK8h2kcEyEi6GIfetb32IZg8rHsQwSgoKodQ6e+P2Xf+mXqKR944032u0P5QsksV9p/4ULF0II1exFeOzixQvNRdir43AgCvbPkE2lzMGaalysf+0XQCqWz5Dq4UNJjdNvsP+b3/qmvaXFlUI7B6/fPZZ/4cLFBjbz1VBK7kZKAHLtLgD4zT6zzdqitXwNzOljP8AObY76HlT/LCfUFfbBqw33Wr6d8zZtQlsKlHCjw+f69YUG8GXA5+FcB7086MPUvPheYg0uSet8sAmgDq+c+7mfe5Ewj/DxXYSPNSglDC5hmQw7OxQSGi0kfevWrWaeOYQ53Ivrjx2nwI8qp/+u36iAuoro2+lGj2u5tL9sf8Iyj4t3IuM6OLjla5oTdE7WQWVVUDlT6mT1t9Q0joB1xY3giO8B0HRMhdYEfAQ9hYwBDCl30JRA/Z7UQqmDVJcAiQZ5ZfkWMvZpZwQYafSxrye0wtYWoPXQdjpvt20c+9MgBoaLpTznlwCkB7U+/oc3x0DV4jnsovxB9c9jBvupqJ6xdxkr3HsVCqErfRYa9oElN24EEFxtqA6urXHJqWkw+IRQuJDmMDTV19RcAb58AL+VQI/zS3WN9puA/aYQ9r69aZzrH3Cfcjr9fHbr/2X997O/AuFQILRXm73//T/lKpl35K6iZcBQB28ds9ZTQUnhQWxj0AhguHzRR6Hqia673ly46CFFAYCDiSBUoKQwpcpBg7/3ve9t8JYOOJ3W9yufx0sQ4cDpZdq+dp7f/qu/our4C7/wC37M3dkPey2nTsn3FnIjIF00AAacCFQJwqneEF51aFJ9jFj/eiOHAVGuf9mP8PGRZzAFy6FGUwxF+wVS45Yv8GOHn27QAP4LbGOVb/7Qv/6Hlc/BIYcOB8Aczf+w3xGGjFHnuy9ffkawdwU4djzz89cawJeUP6l3+DuFcJXfp2ln/G/bxwCOeYW+HsfgQBNMSXPosL/RxEcfa5RyAENsX5Z/8+atZgEhY117ST1xdS/AXd7GFcCk8nmnqw7Wj5G25/oMmQyl+3EByxq9HLcXUEa4TL/rweIpKX/6cn5XKzssTcrsYKfOz6DOIUo5ep4/mLbRFCnecfJ4CTQ3LG+Q6p6peIACQRyh0EGPKiLDvFlRJCQWYWaFdFU+oINKYFG+YMS2y6+vw998awbOUSC7R/uh7uW5XjWoZHT/S9PO7EP9l/ar/qUMcunTzgAKlTeIJUYYW7jY1EEohVQM19ZsnkJXCDldjX9nvTNs72qvRpL7JOP7Uf+0MbR/ChmH+7+u61Guf0xqbYCOXM69+X9Z//3sr0A4FAjzNB/Hjh0PoKUcMAMkU2hMGVMnL0WPnaarM6YMbTUXLpw3QEKn4WoKbvxcf/48yxGEGCQFJc/hKEMORtB+i1DzyU/+qkOnwZWUKJ2Dys+g6KAl9QhLQRdUzq3N5sM/87M89qlTU7u2H6ALxczCxa6MwN7zF7he52eA4dApO3luWRlVXUf7tS4rZWa/gFDHb7MfdYfX+UE1Y/g42I/9VP9qD5U1qPzzF84356kQ+g3ZwQPrUQ899S/YVRuMUX6yT8fg0iBvkP9hP9ibwTT4wRjlyw60I6AwK2IG/teuXW1uUiHUQBG9gg6qndYpVGx/CxpN4cPk1Vj/KKuAjzb5fmRMXH3kCIDw4zl0rG0Jj378+N1fgYeRi9euXeO1F68/3LChFO4EM5siJquBgEF7JzGBLcGfFBkdo7f9S/9H2Qe1/Jw0r1CxDWJQyM2gDpMHY72PtASsrCN539ZxxC6/K/zq2xJq7HgALoGewZ+FhalSxTzCBH1QAU1dMkXQt3eYAEiW5dv2UAJ7yxds2nqco17BZ2FZs3Ey9vcqUuP7n9pjP+q/tF8ATXUw5RHaKOObDP36PIQ+0nhtzZRBhooROqZCuOpzFGaFkPMV3lhg2J/ty/C/w70GBqXR4O4fDMm6cpseOORPu/e/O3fyxNS6n4xz/VsO4fJE/L+sf6VllP5XgXAoEEIhtPfe/uZv/qaHTUPn6bCijrEVGqB8CW6w3Npuzp8715w/fz6EjNBxdJvz587zg+MROLi9wSD+tk5+Z/m/+7v/Fydg/rM/+/Od0NZSvilwDg4OAFzHHEccP5f/xT/5E6qEePdxv/KH2X/unIEQnoysE7SO8vz5c26vgSjqyeoql09A9dzLccsH9KD9yvov7Uf4+JkjR2ygyefxRpO9lY92NAA2+KXd6+sN6uH8+QuWC0qV08txEB/XfguJ2wTThFf3sx5obWl/hZoByAa2e6t/tuOF8wY3IQx69epVThthId3NxuYddMAjqOUcvwR9UPd8cmmDwjxABEofQsZ6tZ2NOEYeYfHWk6AUMuzMkHIuH8oDzg3XHP2R6pvCw/mBJatzphzGG7pu8rYNOmDbX0ust22K+QZ5DZj/H+TyLWSsaU4MlhSqS2/zCOFXdF6mdFhnHb+jg7O/vZMPSg1CgQnwpAw63EXgS6qSlKWwramJFjKGYlieiwGOgDCHHAmiGO2K80GOJKZt6YHGECYX9FI1jOsFJ4Ptp0J4ZTr54bj+x2lONA+hT65swDBa+YPqv7QfIXnUDSem5hyEmKDaBpUw/MsRxT4HIULGnjMoZZCAuLaW5iVELiFedYd9scztZYNJyvYnEPGhIdZzmN5lAvZnhXB3178GlcQ2iD4fvw/z/7L++9lfgXAIEGI0KvOtDh1u3ve+9zVvvvmmdeaAqKCkAFSsQzbIkiKFjtl+Cx3v9nZzPuWYWUfDjoEKoeXabW77O5CpUGHfrNwZuPWW//Mf/XlCGyd5jtPI9ClfgJTOUzltbkcsf2V1lSOXn3vuOaoibeULKgxaXTUl5Jj9F10x04jNrk/tgdBqj2LWUr5By2D7+9U/gAntl845tdNOqP4WlcJnWI+Y1Fp1s5vyYRM+uinDbsDBJYSML1xwn/BzIMS5Kjqm/bSPIeMh/kcozO1ioOxvJNlD+ebz27Qp2yvYWSd0YUJZhW2VE2iqXwa9OKoYEIhBJKYgasoYU/viSOOPY05CDiqx36Qs5lCzhZvxd1k+prYwIOy9/gzuwiAShY5LiEsgqVwtHUdJ4/FvdDTW/qX/qzxd//o7Q6UrPU9h+b0dXuyYAT7429Q2mzLDQc/DmegkU8jVFUIpW70dpalvBLY0ylSKkYUTmVuWcgRblEHOWxhGqWo6kwSd/mq8VlAEREJRNJhTnpqpnhm02EEH+N2N/XjvLeo0P7SYD+K+M4r/xfbYTfmD6r+0n6Dsg3fa6l9wZ6DnCmAaNILX2xn8KecQS30IhAz7qy2zwkvoP413HLs/pTqfvP9JsR21/nXtY/mg+4Bv9rpzZ9lH0e/N/8v672d/BcIhQKjQGlXCQ4ebN77xDSp8EUCsU8ydLX7bwltJmJsVwMPhDNB07vx5hkvREUA9AiDhQqZCeP58VgepIuEYdnxOKZIgz8LW3QcPCDHvfe9PMqw2Svnx/KlKKV/P4YCAp+/b282nPvWrVM++8tWv7sp+wAJsw8UBO7GEMkNl6bwBEmFSZRK4zW4715322/a2nucr2Av1nyZuxm+h/vvZ/81vfLN5BjmFhw7xnchUCnnc8cqHXQj/m/rkcNBdZ7ufO38uAaFstjZz8Jdqp7roUz78jm8jOdQ7aMaONdj/Uu6hq4e7LV/1DpugfOabmineCAkBCEulL/5t08TYSGKst4mrH9l8gq78ASShDOJVdphqJ48wRijZVcakCroCmcLMBoyxTOQbXZ0zhTBef6m9MD8bw/zuq0n98xCvpwAYuGGbrAJYHZj96Xju76X/l9d/2v4AlC8AsWliAG7WKdvEzcq3M+Uvg5SFjFPeHVU178wDoBlgKcz80ELGGkzCfMGQQ6j1zDF0iHBANOXPgAKqkyl+PiiBMIEybJ5DqFCm5hjI4hykVEWVp/w+KfvTu4zdb/mQgQcJ91X41iD/w6wIgJj9qP/SZip2rsTiO+o1TteDwSI2sEQDRaT+GRwyX1DvNMY7j6EQarQxRxkD+jXZeG43lsM3zWQYn1T9J3XbH2QAc2VO56D6t3uJ+oou55QkEDKMbT7Ohx2ozOnByPyP9TvA/8v6j39H+ysQDgVCvSvWcq5+/dd/3cN9BhiEQalrVAzVqSvH0Jbs+B1YABnnzp1rzp07y5CVwom4YNGxnkNI0bfd8lfHJZXK4YBAQ2DYbk6cPEEg/MQn/rmHOrNaJFgty7fjA3KkXIYcxXSe2z4333bz+uuvU2n7xCc+YftgGy8f56Zy7Hg7y4e9Z8+dIyBJJcENC+B09uw5A14cL8BuPiZUxlyvCdJGKN/UXQMm1pnXX1/7tywfk1PS4N3HfKPJ+OUjHQB2GfiaYobvlhJw1tvXVF62cfnw4G0g4Opn/6EjNugp11Wup7Svq4PRfo2+pnIKH9tl+Sw3+fM5UyK8E4Jfz129ypfUE8YQIuY8gzFM7CphGgFsqp5BnoGchYkXDQYPI2fwF5u79+7ZoBQcUx8qgRY6plqYANHLC+VjypnZ2Zkd1589rGDeSIGgdaIEN3Ws4YHGRgrnTpdKTLC/bH9c49H/BYTstH2wCNXzA1C+gJCdUxqBio4aEzajAzRVxBQ/hYTxu0Miw7A+KMM7SIAjtqdalTpIB0Zsw3n+/G+OArZRw+hgpXDtpnyqXFQCe8sX6MjGsvzUMe+xfJw/YA4jhdWf2IMOHmDy/WeQ/+VpgN6++i/tZwgfoWR/8wgGm+ANJEkppBLokIjwMHMMszp408EQ7VGCpmAekJ/KlUI4gfrHMaP/JUAfsf4N2HHfsfuPcjr30/9TPbj9FQiHAqGpRQo9/sRzzzUP7t/3vCuDKHW86hzZuTp46DdB06ZDTAQkOII6HEDTOQKSh5qxPTts/9uVPDuulf9Hf/RHBMKXX37ZR5saoBmcOawlaBOsGeQQjBT61ruCw9+Evs2t5uHDh817f/J9zLODUhPLl42D7Mc8jrCZHaRGXTkgRXs5VU5hbwZPnXsvxA4q30Kjh9IoXNW/qaJeT8FelW+jjxE+PtJ8gTmF/eu/rXwowMgTNXtNQUKnj/YFLKbyi/Y1BVhtZvYOsh9KH1RCtiN8owBenVvpf7afT1cT6nvc8gnwW1sEe+RHZnvNp2dmZ5lDqDeF5HCuXjmncC9Cwza4hDCHN40QEjf5LmTmDB453Hz8YwgT3yUEZugzNRHHzsfPr8FjuBgwGH6HmjA9M2MKbrj+DODy9YgOPHaoVA39Bo/2tE7XO1xXYHQt9y5Dp5z2Uz5tLu8glW85hPYuY3akPg8hwQyjhtlJCU4M/Aza1qmQZOgzNREdp3Wepv5IVcR2elND/t1UFip4HCSy3qzvoXwBSD6+wQEhBCFKB9b8u1Qeg95J2I8cQoxM7fU7+dZw/7vs8xC+nfUv6Jf9Bm02HQ1AcG7uqk1YTTXQRx+n0HGejFqhY1MOF0zJ9ZHfpvLGuSWh5E6+/tG2uX03OGUMHnqsPYbXP679eP1fnsa0Myv+cLQ//l/WfwXCIUCIjvYP/uAPOL0FVZVDh5uvvvpV64CVlwVV63GAFXTKWOefrL5kACEQnj3brG9kJQJgiPUEBh5DYLDVoKNm504FzVUgX/erv2rh3KNHj3EbqYeDyjcQtHMmBPg594BFAiUrH4NqEIL94he/mHIa0zltDrb/3FkoZmc8fGEXB+w9f8GUw3g++G42BPs39SaRXpAdVr612SFXM3P9r6ysNB/9+Y82h49oFPlh2mbKmavCh2wwEdIFOCUNwMnr3843tElh/9mzZxt8LFyDwQY2+hRtC2U42tta/2jbBGpbPf6XAHBriw8CDIsfglKYH16wTnmCnIT6kE2tY/a5zdhniP3WFjv9r7T/7BkAP0LkuW1hO94tivDP40cK4wLMcogX4WGDOHulXAzrQiXcMYDkrk9EHaaV4T6P8No6hYZ1LP0NZbK3fHQgszOzO64/ay/dmN0WBzj+llS8rLzwgY5QmeHRHvLQGVuHrPZPf2M99imu/4NUPsJpK5x4V6qggVxSLfzVW/g7dbRJ9Su31cjjeCzPu4IKxMEcUgZ9ub7R2OTRDgjlscco30LDZ3LImMfKb0jpVz7nM6RKZa+xS7bznHW+o9kPeDAAcd8KivYo/of2gMqYzmEM+/PI7/Hqv7Tf8glPUxWESqhpaVI42AeN2BQzyCVUfqFNYI17DdbF8L7NKXkmTTieFEK+NlB1u/f6t5Hn2f48yjjf/8e5/q9czvNC7pf/l/VfgXAIEAI4pmemezrkf/nJTyZFRh1mHrRg0MAO09U8bgO4IkwAFreaM2cADGdyjhk70m5z7uxZqi0AIpRN4KHq42qRwxJgD8fDsZ9/4XmOpMX0Hhk+M6C1lW8K1WY6xjZzHu3cuH1L+ZjwGqDxS7/8yw6EXgbVR51ru/1nzp6h8sknoNTBWs4kIHho+cFeU8FifQD02svHm0oAQQkct7ebxcXbzUd+9iOsM+bSYSQytzuUloQpQdWRw2x/vdFklPIBfVREU7jARqBSAT53zhXCAfUPXwEEO5Tn8zTQQxvhA9uYR8hpZGArbNDI+EON7LdcwwyJdjz8biHnfvarfJUn3+j9e4vwizbG07DBkMHU9PQ03whC6PMQLpU9Al0IHXseoH7D9iln8Ii9qu7e/XueV2igJwC0ASgCTRzT3mmc4FLQGcrHhNkzM9M7rj8DWn9Ik+KHNz4Q+KyjTU/y3uEy94dhZNjca7/NPQjAtPWl/ydw9Ov/IJXPUa0CEIcPUwDVSfuS7yWOColUNYWUBU5Y4mPvlE1gU8xRqDKwLXPZMBhkj+VLhSrLZ17c6dMGtA6csfx0jnssH8dhztqVyz3X3zj+B5jEwBQcSwDC5T7Wf2k/4e30lAOhhYvnrs7l/EACIUYS5zAxB6BolLEPNkF7sE3SYCHLJ5Ria+XKb/DAYN/VNpOw3waVQCHc3fWP9uCbY97G+q9AOAwIPXftxY98xBSXQ4c56GBlZTV11gKz1Fk6yBnUxVxCdOIGTAihIsdMHYJykQARgEKF+FLuWIJJU8hM/dtq7t+/TwB470/8BM+HsDJC+en42tbBgx19UMFi+Q/Wu81zzz7Hud8wOWiCBQfTQfbDLlPM1DGi89xooCxhvc5nUPlmW6/92p5Lh2XBObaXIsZz29pmLsqHP/RhQtQ//fg/Zf3BjkmXD9hnzqQUIocHrEeIXOWx7D2UT/v8ncS00ZVls0kqtSutVDH1YOLr1P6eUqD6TOen3M0+/qft4bMEYNgZQrAAwuvX53sHlWAC6k2EeYOC5yFdjix+1Pve4o/pvcWeA2ig54qfh5WxDseLIePyTSgJEB89bq4vXG+mpz1kjBs23xriih7y98LfgEF0GFzntvEmX6ihduPvtb9HEZAvuMoI/y+vf25/QMqfxqu5BIQpSd6VmvS38v48VzCpeIBBhY4zIKojZ4cfj6FcMSpvCCEjzAwFz0OJZ2wwiSlUU82U/w2AEDRaODMMMOG+va+0K8vn8cqcNbS7l5+AKJ3r7u2HQsiQcbj+xvE/AAhULQ6OSOezv/Vf2r/X+mdbabAK55X09krtaO21H/UPf4rtn98ckyMNemC0h8jB17+1xx3Pe90f/y/rvwLhUCA0Jeall15KygvUoy9/+ctJXTO1LYCfcvFS52wgiE5WUMOQIgZZQDngx5zjDEKNZxRS9O0BOh6upBKmzhvzGV44T5XnH/+Tf5IADWWkXDB2+DvLFzAQUB1StzdtP/xmHf3O8v/Fv/wXBOPXv/714fZTFYXKtU019Oy5MyFHwsJypqTpPdHDyy/tJwQ5rOi8k/1S0PyNHFevzTUfeP55tuOv/MqvEEh77OdE3FmVI1i6EtdFzUyUAAAgAElEQVSv/vuVj3YEJBESBBEbXUIi2re1/ndRPhVCn3amzX6DY6nNm8n/JlW+7Ic/nzljKQEAJ8uF6TKENT9/3cLEmz5XIMO3liNo4WOHQ39TyfLyMucZPHLoUDHptA8g8Wlk9Ho7QKQpkD4yWXDJASw2kIXlhPLn5+cbvLu1vP7svDMYEtoEuWxHt03rXO2maig1ONhftn88Pr8X13/83dRCpBo4ZD5F5UO5Qo4UVC2AHcNtAKUAbg+p2hjslR0XlZwAh9xv3UcmC2Y4gMSAxuDRBnxY+NbyCm0kqk8/E0YRU2FKI419RLIDIPeJ05qEUbI8r1A+AAeQ0q98rp+Q/XeWlzkyNV5/4/hfelOJt8HbUf+l/b3Q7e2iuh6h/lnfZzSq2GFf80qG0eXwJ8vrNFV5P/wPg0owUMeiC5jEPkce2C56QAz9f7z+pxkythzb/fL/sv4rEA4DQlfLkMugMGIOmwqYHKAEagRBA0l2mA4Vyj8DsJw5c7o5c/p0AiSFnbJipk4858xRtYmh062t5rXXXmOYEPl9Bjdebqna+TllKIVSZOe/takycrgX50hoKNTCP/3inxKofvu3f7uAGoNO2MtPUT7g6MxpH1WtC6HbbU6fOdOcOX3GFbPh5VON9WP3Qk17+RZSPdzMTE83P/X+n2JdfepTn+LUCruxf9TyAUemiBpA2GCEDWv3swDg3dV/Wb7lCWpQifwwpxP08z8LLWOwDR42Rm//snzsD7+LQEiAYRuvEwivzc83b735ZppX0NQ8gZrn9wniHj9myAppGZp0Gmoi9uHAFI0cDttL+VO4WX/bPIY2mMR+M1URc4nilXqXL13acf0lxc7PnzfuDXvCTzdrB7Pem7ryBXcusZ/aHwDK46AT0EjipBgq3Bygk8rk01l+ylnrmUbDcgMjGELNSR24IFDQFQEyfLcONMOkhQJdVSxHIbeUb8qgjUbdS/kWSrZ5CC2BP4QmZUtL+buxX/MQxutPPjqK/yVFKoSMrd7f/vov7Sfo+TQyAGy2D2CbKmAAxwSP+TfbJkwz5PNCUgmFz0yo/hVuFrwph3C317/aYy/+p3MZ1f8rEI4AhAStre3mox/9KEOQR/ztF7dv33aVzJUXQRThC7BlHfTmpk0yDaWMHTRyCM8FRSUA0lkA0pnTth2P56ATAMuAC8feav7o5T9qjhw+1LzyhS+kY7OTDmHItvJtGz8fh7ikMLlCSFhguRnUMF0H7P/pn/5pUyT5+3D7AQyAP92sFJIjSACQUg5gr9JqdZbLp+1ev2qX7e3+5ZuCdqj5h//gHxLoP/3rn27eevMtU8pkN5dZGUz1MEL9E5Baykcbyt6cx7OewGln/e+ufDycoP15vDH8r2e6mgnYT2X77FlOXC7gwRITpWMC6Ht3/V3DPhhEo44JelL80vIRpwCxSacd6AiCyh1UvqDBpCa7Jgi6yhjXKYysJc7l2vV5nps6TCqFYe4/rTdbFAY22GPnKmXPp5HRdmjraD+PI+WwBzIzOGp7AGI+tkGhjitQxfHyNgaQmnRYZel42jf6H7bhdjEkHu4/+dj7X37q8ARoaelKXwA8m4RaoWFAo0GKDWbw7+zcTWXUCGMCjR+nFzIMPPW7OnNbrjcCkNShEt7GL98UQgfLYI9GHfcrX+czTvnMWbuMianRxvJDf8UiHiyG+B/aw3II3/n6L+3XfI6AOwgp9qYTC/+ekfJHNTZPOi4lV3mcBEN/+8x+1D/bylVu+J9yCB88eGDX3JD6L69/XR847tvl/xUIhwAhOnxBCd5eYTlbNkrzj//4j31wgEGbthP02b6uwhGyMtgQGKagEGJCW88x6K43pwFOp0+n0F4s39Q9AweDta3mN3/rt3lOX/vaa+k8RynfAEwqoB8zhF4TsAT7Vf4HP/hBwhU6ethsMIJjOLw6mET77eKcSjlT1gFrQtepoEb6ORH6TOnScVW+lEEuh5RvgyVs4MVv/dZvUmkyqLTztWOMZ/8o5eMmBOXTwn64GVtqANoW6uFe6j+Wr0EhOh4huaX+sQ9/8wcL1Av2nZT99Gckz9NO64TwBH7p4kW+M/ja1WvF6+g0oORRg4mppe5h6hkpfFhneYE2RY2AThCZl3kf7YttLUdR5eTX4c1fm6dCeOkiFMLe668LdUSdJ5RAqHdUBNHB6jqNna3Azn8r7C/bP4NdzqWN1/9BKt86vGWmbggAMPVLgiACIvKybIqQHqDrgby8j/bFtgwDChyxfc/ryASRaL88B6HKFzxYXtjuy1eOIs9rjPIJAWPaLwDRg0HvlEl2/+nnf/BBtMfySg5Rok32an8C9zHrv7TflFaF9gV9Mb9TKqH9ZhB4JueI+iATgWU+r/b2L8vHPI/j+p+N+r7s95PB9c8HNdxrwv0H4WYc4+30/wqEw4CQeX8Gctfnr9soVB/F+Y//0T+y0J8n3hukORwqfOwdMOAoddpb22nSTM7Ozw7I3nQAh0XnKvjhPsrxwzFcvbPOfav5lV/+FYZBTzPsmuEV+xN8+pSPnLg03QkAQjY4OAwq/3d+53dY5pe/9KWR7deFqKdUdLL4jpGpUEXHKV9Ap7Cr6rWt/m3E7eHmc7/7uWZrc9OgFRC5B/tHKR83MObUKbzoS7QTgX9C5Wt0sMA8wvOg9gcMpulrxmz/NvvZvlSAbXodgeGlS5cIhKdPnLGwr1RAKXlpQmoHNyqB/h1hYYSLsU1SCC1PkG8zcbWRMKlQMgeqhP2xDcPLBo0AxdMn8Q7Vq82Fixft7Rjh+rMOMwOf2eGhXAJiBD+szzd68+1e+1MH7O1f+n95/R+k8jEAAtPOGAxK8QvqH8LCgCjMR5gUOlOv+DYNh0Lur/Ar4FEQqLAylwaNBoqWV8jvaULi3vIBFHiI3Wv5uu9pvrdRyzeAHM9+A8KYFxuU7RH8j4DOdxl7XbyD9V/az3qkuueDeBLgAQSnrD9lrqAGkTg0ap3vqwFChGUAb5/2L8vfjf9hUAkG1Qn20oMm7jfe/w26/jlP58ry2+r/FQiHAKE62pRvRuVK6lIGKYQtM/QZjLFz9jw9dKKmpNk+vOFMTfXI+HCYqalTfIWP7WuAx/2U71eU/5GP/KxNHXIkTzci1YhLKEEMcduUI/hu05TYdCPalsqnb2dh1vy75U7acdL3Q0ea3/iN30ggN8x+2cuLw3Oy8P3U1FRz6tQpUxoT7DrYujo5yH6BZL/yAUz/z7/+1yHf0epfUCOIZDtPsHzYe+oUFNEIF2hf3KhOGazzYcPbmLY6xFPhy+roIPvRlmhDhs3TQ8dw/5u0/aemTjanTp6yUJU6n+56Mzszw5GPly9daagSEtB88AeBrlfdy6qghYql+AEIqR567uAjH5gilXDT8wy5PeAQSqPDZVQWcQ7IHcSNGnMkCtDolzGkE2zgNmxHvF7Sw3HdDb+p+yvr4NPcx//2m37Z/qX/H+TyZ2ZmmuXlO+ww2QFTkZIqlUO6+A0dMtU7h7x15H0FlfBhVN8Ah1AaCYk+kMS3tY4+hkTzcViOq2Iarap8NQtR5sEKU1Nn/KHeYATzGRr8OZxoVCuvd73Szm3iCGPZ115+VKNGsX9jo8tpmvD2HVO0Xdku7j+D/G9meqbBwBTBkup3lPInXf+l/Xutf4bumXNooC9FWqAuW7Mqqvax5bj+h/NfWlzi1FY7rvHQ/+34ze9BaEO7PqCgr79t/l+BcBgQsnNWR63QovID1fH6767GAVIsXApFSr9t8Y0jAhADJHSgeIqzcBSc49TUqQadK/fzcGg6BlU8PwdXAH/yvT+Z5prT/HOae07h0gR7DocZAn3iZa7P4MjJig8dao74HHUCSg1EIDAePtR86EMfTHmLBIwB9k+dOtVMnTzJqTt0w4L6Ahg8dfKkK6JZXe1vv9Up65i5bwAq1TH2d+AjYG02eHuLnVtv/ScgAmh7viXBi5Bm69iGO9p/tPJlF9vX8742ut3m1GkDxdHL93OhrfjeW77Buw8qGVD/VFMxr6FgMx1vmP2Dy2d9b22xHeHTsDeGVpFne/LUyWZ5can5+le+3iwtLzuohTxAvkEkhnaRG1iMGHY1UICIuQejSqj1tsS+AM18TIDmncXl5uuvvt4s3l5qTp48yfkoy+uPf2M0IPL5BIUJFF0NjDYS/KQaWvg42l+2P0eA+nGlosbr/yCVj4F6i4uLljIjVY+hRSh4Dm1S+SLQcdDDur1zt1hvHTv2BWgpLGwhYao8OF5SE/Pveo8y93+4wQe3M64uKRcNSpRCwHkdwpY5lGlqlf2d1p+eogo6Tvnj2g9/RV1izr7d+l9qj3XLZSU0vUP1X9oPoNtL/XN/h3NAvvxEIFi2f1m+ttMS20eVWuttacos5rvF21ZwTeN4uP+Pc/1fm7vaLC7Z9dF7fISvB5e/W/+vQDgMCAEb6mgJaA57DiN81RkhxGHEIS7vo044d6zo1AkM6EBT52BOBIUQylIEhnysADt7LD8rn3beLIN24jx9nQPoJMqnvadOGgArzwqK6Ck8UU9ZHe9j+YQ+B0eDKtRlGI2LsidYPu06bQowQN/yxLq09dQpAP/+lp/brN3/Jl2+lF76MwYswK831psHyE2anuZUShfOnm9e+8rXmmtXr3LEMZU7D/UawBkkJkUPE0oHMHzk8xYyRIzQcxhpjH20niFi5CWm3zc5sOW1r7zWXDh3kVMgITyGcyuvP0BafmCxdktgyDCP7YM2BXBo2/Sk73bLfrZ9aH8DRANI7lNc/wep/OsLC83NGzcbJN1bBwY1Jih6nJA3gyFzqVxFRAcZO+QUik1AGX/X/HAZAKEMUYVyOHzSy793/35z8+bNBhOu47rbjf8tXF/gaybvP3hgwFTrn/2VwHgc/7t/735z69bNZv76dUYVdP8f5/pfWLjOt6500R7MYTQ1Wermfvh/BcJhQOiwB4ggpDksGWAIInKIEyN6M3y4+rIj3GuKClQKdgCSide7VC5OnjjF3DxTrgwc9lo+lRwCUARTPz/ZGAEwKWeTKR9AeBIh1NQ5mppy8uQJho2pXO1j+XZ8tNfbYz/aFuAnYKDd6xvWvidPmpJZ1vETbP/Jk6eakydgb4Adh6vV1dXmwoULzdlz55uj3z7avPqXrzbf/ta3m7lZG32MaWAsz88UvQiHVPwIdvm3BH4pb9CmsMF+emvJwzffbO7dvdvMzVxlWa9+5bXm6HePc5Q3Xh+4traWHk4Ec1lZ0cASC/fb72YXnvTTTR0w50DHdgYwtthv20M59eP6NjrOQS0f801eu3aNbYEOT4pehDMqI8Vv6hCz0meqH/YDDGEfCzlCmXEw5DHsDSaodysvDyZ50svHiwKuzV1rUKewTz5b3n/4Wx//W75j7XF37W6vglbrv8c3R/G/1bW15urVuZQSYW0y3vWPtryK6+Pu2tjl79b/KxAOAUIoLVueH2j5alBcfBoZAha+mwrDgR5U7hw6HB6p1hQgAhUQoVJTBHLICRCBEFsEzkmXb+qjwRHOmdPS8PygDMIWhGBhgwHvXsuHLbD15IkT3pmiU7X3vsLeEydOZHv3ofyy/vfbfthLIGT7OjTgJoyQMULkzJmE0mz1vN/1v9/2017aJQXYoCnBU3e9WVtdbfBuzhMnTzTf/avvUikEGL76lVebr/67V5vX/vK15lV+bB3Wv/qXX2te+3evcRv+xnXx79ea13AMfl5rXvuKHQdKILbXMbH87l99pzl+/DhzBw0Gzf/K688e0GwSWfNR2CJV0NTDbpyXkGq38kTzdUzoEDwSHK39sd4+tXwoH0icR1rBg/v3+co5QqEPJIGKZ2FWQJ4peuzoCCg2sXCcXiZ999+t4/ZcQiq6yC0UBOY3gqA90rYAyiesfLytCuHiaby2LvmXpifqvf/k33f6Hx5m8DrBxaXbzf0H1h61/n1gzxj+h7qz9sCk1HbvwL2fn9Q+O+vf2sbSxziJdXe9mb58xdrj/gM+5Oy3/1cgHAKEBDPPCaTK5p24gWLOXcOI3U0PKTMcB8DyPL+kTgG+trb4VgV0TshrKDudqdNnmhPHTzAHSuXxOEGZJHh6WYQbf8PFKOXDHjtXVzxT2NRC4TxGeiuK5efttXyoPwAk2IsnV378KRXvdIayhNGkqNP9KD/W/9thPyZEBuROnTFFNN+EMc3O6eb4iRMMhWYwNRB/O+y3tocPTK79oczBJthmgIUBF8iX6QUkrLt56xant/jOt7/TvPH6G83XX3u9+dpXv06YA8R99S+/1rwKCAxAB3UPUGeAB+gzWMR62+5rXH4VQOkgiWN+7bWvsYzvfue7BEGChyfZ80bNmzNuzBH6/G9X/tB2UvB0w8a8f+sYVOJz+UGFkl8Psl/Hiv5fXv9UEQmQAsenu3yoILMzs83ynSW+RpJhOYRxU56fIC4PvjDws6lgCI2xs0bIGANOOAjFQ8QOiMrDQqfKHCzmHwoMpSwKIMOgAkLku7P8+/cfNHgjxszsbLO4tDTw+hvF/xaXvD2WltkeUmizagugNkA3VRWqa4D1A1b/pf8BzpeX7tCnF5cXewB9lPovr3+8z312bpZtjGOjPfaz/isQDgXCHAI2OAxhR0CZAyKX/sYHfndIowqE7w6H6PTv379HFXBmWq+1sbwZOMz09BXCxN17d30Er41eZtmEzPbyBYaAt2HlEyiTkikbevMGWR6PtffykU9x/ISpM6nzxU1lHU+k07QXOTA8bz//SZZP0Ar138/+SZWPCZUBhOm9oso9Q/temW4QJr93/15SYa3c/av/aD/rNT2smAq81/LpzydP0jaqaf4UTJByuMnhWIcvb/8U0vL5t7Q/trd97Alb2yU4c2AzsHPw5LoMobV8qUOAyqKO3kX1f+vWLSbfQ1VZu7vKnMJuF5P5dlOoTICIkcYpZEefyaFmbWOdpl5NZnBp7651yNNUNj35ig58abQyoEefDKjvdPmcp67bZR1B6b59e7HByGI87KR76x6vP7bH7AwHXa2teXs8cP854PVftj/uS/BV5MEibA8fxuwFqMNJ3X9u37ptgLm42KzevdtAWY8PtEq1mIT/VyAcBoQclWmhPVPmTBUUPEjFQ6erdT0dLJU8dfa2zeXLgKDj7jQhT6m7znVQ05D0ruNA4TKIUZgxlxXLxzlgO+2XITGXb+dp+xMesb3byPf1RiDTIIw9lg8wgk26aXW7mqttvbl1+1Zz4uRJwpPK53mzTDvvfbWfoXKrs0mUj7q/fOlyshcDEhLErK83uLhPnDjFt2RgW2sDbw8os1KV/bzYvnusf6s/r0sed3D7y6fkR8PqH28jQToAbCPQOazhAae0H51WbH8DP6+jsB/25WcjT/XCvwWCHqrVdgxPCwjDcWr5vf73bq1/qFt4lR1yCjE4YnFxiVOg3FlZaZbv3GlW7ixzzkLMtdfzWbG/8YYNKGU9v3G/O9xf61ewzfJK2G6Z31EG9udxWMaKfX+XlQ9FFdCBOrp27SpD7lCRJu3/OCYmRsZrJ2/cvNksLd7me6dVj2l5wOo/2e1+iLxLtMcttMfVa+y3Md1Mui8V9//dXn9LS4sUi/L1sch8Ucx1iHOalP9XIBwChBqEAFjgO1/VUQv0khKIXEMHC98GHSpCcwohQyWEenTs+HGOru36U5ddzPYE9uBB18KKx483d+/eTYMgcj6fQR/BzkEOYcAEF/ruy7L8tF0ICycb076WO8gR1MW6BAduv9nYv3wonSeOn+To2gfr4RU+6LQJB12+iuj4sWMNlESen8M17Mrn5vmMfj4j2c8QfW/9l/bjb5ZBGHNQ2kP5UDoZLp6aah50H5gyAwD2ECqe7BBaPXb0GF/nlsoP9cy23kb4fHT7rT7a/c8eAraoUvfYD0W7pwzsj3UGj6OUjzaDP2MONlN1MoAklS/YjxtlfHLG39H/+cSdFA6b/iI9Daebq10rOo6WWV00mKzlu8r6BNU/Orf5+esNpkDBgySgBLmneEAGMGIdv1+Z9uXOvy9Pa522n+Yx4no7hm1nZfg+PWW8+8pHRAVTy+AlCYBY3kNxvehhSNcXl3trf9y/MC/h/Pw82wNlH/T6L+2fwXymc7PWHsvLlioT7l9U5id0/YEX0ObXr3t7BD9H28ino5/b+Y7u/xUIhwChdZCChhA+pZJj65Mq5yABwFAnLMUHf7/58E0qR1AHTS0zddCeJvS929y+dasBIJ04frx5+PBhT6et4wI+eewEEhkG+pXP9QFaCUJSB3Ec/uY24v3LgOBgk8FDVpeGlW/2niAgQUK3m5aHDHkTM5vx2/Hjx5iHhqH0ZiPOw8o3pdPsG8d+bBvrX/ZjXQlCWsfR3LR5/PJhL/I/kR9666bs9VBLummvN7dvw97jbF+MsCWklfWfQK0X2gbZr99op9othspxzGT7trev1QXPIbb/COW/+fAh21ZqN9vXQT99V6gy2C9wIyT7zRPrTEn1+vIkbIWKCY3hWLzR9uyr5O0cJo2dJK+xpBzmMqxM88lafu+1yfbxOntX1T/zQMN1pfSC0vd47mG7Pu2vtAO0vx5qOAAA5bTZ/06X77Bn/YZ89230/3fa/qes/LL/t3sV2rOP/024/aP/VyAcCoShw2SH6koVQIrA5HDhYGXhzhyGNajZaqCUYWqOo8eOMR9AU1CkztE7TN6U1teZU0No8HwzqYAGRz4VzKjlOwQI7riMIOh2JTBxyBQ8xPWjlI/toYTi/AG2M5w9HzdmD/9R6bEh+LIfisDxY8cJhcivwzF2Wz73U3sk0EI7OcxynYOWAKmoj3HLV97gsaNHmdNjnYsrXJx+pdf+2bmrzTFA/4njrKtYx/o+Mfu9PbP9mkoo1zHaVeVq2a98/A4lFO0LGzCjfu6c1EHZFCwACSp1HETUv/3tJmjqoa4B5MaYyqf1qE8b9KH67S0XZdfyBde40df6r/5Xrz+AVe/9d1j/i/vLQbz/VCAcCoR5EAc6QgvBujoH9QWQQahQh6rlVvPWo7eau3fvMVxhnedRg0EmTHvH5U+gehKVigZ5eG5ulgB5/Ogx5pzdvXeveeuttxIsocPuVz47+ASCOF+clw2QaevoYZtgr/f3Ue3f4rtqYS9katkLWEASrDrqXtUmPwEhVJ6g8Nix5tLFS8192PvoUQ94j1r/g+wX8JTLcexHXWLOu/t37zeXr1w2+D1+vJmZmW1gS7KXoB/+dtUCNyjYe+yYQdWlS5cJho/eelSA2aj1L7+z5SD7e9s3P/AMsx+TRGNOLGtfKLrHm7mZOYbGBWYM+bYoMak+3H79Lb/XUv4vP+GNWdeI4NKhj3POYbRvVA6ZhpDBkOX4iHY+fNTyLc9T4Ky69WWtf/cd95Pqf5YHjOuID2FRycegm3r9PVX3nwqEQ4AQit6xY0eZ8wX1ByoWVBF8jh472hz97lH7fvRo892jR5ujR7Gtb6/tjh7j3HM28kh5UQaE1jHaU2zsBE056za3bt/mK3uQc6bjsowxyzc77Jyh2smGZAdsOXqMoVtse/Tod80WqHzHUfZ45WOuPRtkAKVIHbTZSdXCb7il/QinIsdO5Zf1j/PYjf1m73G2GeyHrT3HcfsRpkdO3LjlY55FTKnCJ1HZ68tB9iN1AG9qoS+11P9u7afa6goebZUvHvv/2XvzLz2v6kyUfyVGis1tCIYwNOSHtiEryVphSLKSQF/44ZLuFaYwBZrOsAIkEPDQDen0uo18sSE2iRluVWmyAduJZVsmeFCVqkqq0liSJVnjV5+mKvmHm9U6dz177+ecfd7v++r9qjRYqtpeLp3xPed799nDc/YZXvBweX8B7uPGy8voH7+52gYgyzjqFaxBxfLGn94t8j+MUAFy3Cul/CRAMNNal5yXS/8m/0X/funexTOda1kuYx30F8AkWx2MRkPIf/BfU5Ydz3nwGfynTgbSgcvGTF8l/RuAsA0QGsgTkGTGFEZUjWx/ACjgY3yH7BfECcwTx4/3elHE0MHA4WoFdWdDOci3Du2LBllZ2P1t+/bvS/gm8DD9K8AwsPrCCwI4BNju2JFeAIg14CMgdxz1FOi+KOCggF4CR76/gFICCgFRCoABQAAS8L4ACvgsmLrp9R17vDhLvP+Cnbbev/+AAGkFrQpaBvUvgNUB3eb77wCotXK8v76Pgtxx9/47JgAIJ3JdgEb5wzvLxEBpCnrhu9P79u2TE2Y8IJTHDGNJz5QIK72ECpAU6ChtLl1aSCdPnhLa4VvHw/Q/DP/xfV/sM/58f4DDiQnQpv/48/3BL3jf/XhfAb42icE4eiNo45qNo5UvZ/zLco4HH5w0kY7OMxj9u/25NLDD81+b/hG9lA1Q0F9lPPgvy3TI36qRvwCELYAQwi8X0RLA0OAtmivduczhCYKQeC+FGH45ZUTjT4VaNgGrB0k3kWLGzX0/nH1H/6SZAwhBf7nSRS5ItiXT4L+Qv9A/oX/D/phtlUkM7C4vm4cdoS0J+yv4Im+xUfwRgLANEMrGdnonCOqQJjgpzCeekpyPy6bNQBFEIjTQCMYsS6fWFuqLC1iZVvqI/vPeFWVgRxuha9CfE4fgPyp7J0952clkNuTP9jyF/gn9S3vj5CXsTwaNa9H+BiBsA4SYUUBIbPlPZ+DmxbN89QJCqLj/wZYFRbjKJcxcTqQB109fFUDzCvtgf/J89B/0D/4L+eNESA9iZTBje4dUp4T+4URdvOWhf/XTqNkrZsBP6KLbk8RjZumwPyZjoEdeBl9b9jcAYSsgNCGiN6ry8tkMiwJmZTXwK0yme8q4+bqc3vL1qdA8uMzlFOzs5Yj+xaMa9JcNx2Vi4hV/8B/kRwECaBHyBz4BPfAVl6JbuHrBvAIuSx3lJYBP7h8L+VO6CY+F/q/30gl/hf65mfRPAMJWQEjFqDNzb3QF4NkH7jlDl4/VC3Arz2VlwY3ZDXApCjYr58WEmVovMIz+xag7pbLCvlwAACAASURBVBv0X5RtCWKws/KlR5o8ZApZeK4YcvEMkJYw8MF/+aqgkD/yDsAh46F/Qv+UbRcKckL/YFvYatK/AQhbASFnzBpyZlwUJcuhONW9zLAAQVWmKkQ2o7TlYTHM2ZjTPY02bTZuhlyYrgEoC2jU+uyXYfRvCgxGzQCPhIgH/TMAKpOZ4D+hRZZHynYJRbZEJgmUWBbyT73DMPRP6B+1UaF/bxb7E4CwFRCa4m+CCAN/GeQ54FaMhhoLCAVOCjNURckvdRSDgnz+FaUa/YtSCfrXIDb4Ly9PUdlWslPJUshf6J/Qv2F/VA+E/cVEpT/+CEA4LCDM3r96r40CNyibMgtSwwQPn3lcaJxk7w0Gw4E8ew4DVECgerCwcbx4Iul9jP5lid1oGvQHXwT/hfyF/qknBqF/w/6E/dXVH3M0DYE/AhC2AkLn9iewc4BOTwoXz57MxGXJyTay4xmeHpZ4maXosrBT5LZZW9C720coHjL2Kb+hAMrov9AeQDzoX/gJBlK9q24fodxzye0IajSzIQ3+s8ka7i0zGZNtGn5i5uKgF/cQmW4I/gv+ozyF/IX+udn0bwDCFkD4ClyrDtCJ1y7vPyPoM4NLA5zBG42KenDUVa0ApigL9fjRE6gMVIxO9B/0D/4rgDbkr0wwRZ8YiC/xojuoUzQsNKzqylaM8kzon1ofh/4N/buW9G8AwhZACOVJBSrx7EVxijkr1SI8latWlo55+lOVL9u69ApBIxWR9SfeRFXi0b87BRv0d1sOjD+C/2w/YcgfjVfoH9WjomdD/+rXOkAHW2EK+2P2NuxvudFk8VIKQNgCCGXGnL8gokyEPMknWBRBoxeQ+xZsRp69i24PIJ6XZWXWJbhEGs8ZSKTHMfrPp4S5fzDoXwye7KMUnlHeUTAQ/KcTKaODgIIityF/NjEVPbS69Q+up+qe7SZ8b5x6ozn+nTNn0sLCxRXr38XFBd0DbnwGHb6wsJA6nY58ypT7wwf1T73PUOqF/tfxWoH9w3g05f/ihYupMz+v4xH2N124cD4fzCPfBSBsAYTKVNibZvuFyEgC6tTY+Nk4BTmDOj8ju3QpHTnyUjqw/0Daf2B/2o9wH8L9ad+B/enAgQP659IoO3Lk6FXrH79LQRV+Ozwq5pH0e6Gwf8qloTyv1vtH/0H/4D8A05C/66V/9u/fl6anp9Px48fzQT9P/zNnzqTJ6am0Z88e9aC16D8Ax263m06cOJEOHTqUZnbPpLm5OQUgsrJzScDlnr1709TUVDp27Kh55goI9/2LjXH6FsZ5LepfAPdz586lM6dPp2PHX04vvfRS2rdvX9q1a3c6PDenNOljfxcuLqSzZ8+mkydPprk8Hgcz+Cc43yvjMZlePvbympe/+e58mpqaTnMHjW+N/wIQtgDCiYmdaefOnWlifCLttPj4xITk5fT4RJrYuTONj4+nycnJtJA9fOadIBO/spieevrpNDoymkZHR9Po2FgaGxtNG8dG09joxjQ2OpZGkD8ymsZQhvjoWHr66acVuBG8mWcygzmbScpFzQZcFZj29l8AK70lqFOMky/XWYMdT0ff0X9R+qb4OWEA3YL+xm/2/W3lH+cN5/JMxUfBfyF/11b/dLtn09TUZNo9sytdXFio9Bg8SXv2zIpxPH3qtIII48+m/oPx3L17d5qcmhKgNzWp4eTkVNq7b1+Wf+j/ffv3p2mr99JLR9LRo0fSkaMvpSNHjyb0I3ojOwuu7ftnb+irKH8XL15IR48dSS8dOZIOzR1KBw8eTPsPHEj79u1Ne/fuSTMzs2l6alpoO7lzUuir9JsWmu/dszcB+BW6XRIwI+MxOaXPTepzU7umZTyofxYWFtOBA/vT1PRkmpqeTi8dfikdOYLxOCrjcuYMxkOdI2vF/h09elRocfz4y5X9D0DYAggFuG1UgJbB2uhYGts4JqAOeQB1AHCoixBLBWBc/oHJdDP8K+mpp7cJENy9azrt37dPFMe+vQj3Jcxks8dw/34RCrT51DNPFUFwwKwIhxpi9tcMff8wPsL04in0S9NmmCtjTe+htp+FhQoTICgrtfK+0X9Ni6B/4f/gv5C/rDN4ktv2BQswvkL9A8/dyy+/XP0de/nlNLt7d5qanE5zcwfTy8ePi9fu5WPHxKMEYDe9eyq9/PIx8R7heTxz7Ngx8QQuvqL67+DcXNq9a3eCvp6ZmRH9fPzECV1qNn1/8eJFATvwDMIDA88kQMguhJPTAkzhxdJ3XTv69/y5c/n9QQ8A9CkAuOlp8bDu2btHQBtAN8DaiZMnZbkd9CT9m/YHXtldu3cLqOR4wGvr7S/iBw4erOjv+we4R5/qsS1buJRHV6/924tJ0ORkghebK5YAzQEIWwAhFIMomGMviwcQAO2F558X5QF0ffzl4+n4y8dEgYgiOXYsgyQyVfYcXbok3j600enOV4CRCkKAo3jsLsl+BwDO7CE0pVPqKAPz0lkBiFSyGfg5z5UHqW6Jwivo0raCPb4DvYPoo9SJ/kGXoD9BjvIa+Ym84/mfk4VqSYyTisVFx1vBf6AfaRjyVyZZS+kfgDj14E1mTx5WbQDMsmcPYG0XQMlUBmwEKOqVMk/T9LTodeFZNwlG/y+9dDhNT0+ls92zWf6xX5AexNnZGdHfFy5ckGVQhPCIoU8sba41/sdSMOgPzyDiFxYuZo8q9QU8emVslyf/h196KU1NTymAN31yptMR4I7xn52dzeNx/vz5dP7iBdmeBb44eepUBugr7Z9yCl3H9/F5YptvEPuL9x/E/wEIWwAhFDFd7rN7ZsULiNleGWwqKnrpzJsmzF1OPXIG8vRTT4sX8dFHH0k/efQn6dGfPJoeffTR9JOf/CT95NGfpp/87Gca/+lP06OPPCrLyE899bQwrLahG8BX2n8xLGUvGw22vOsrukQs7UMJuveP/m2Ms9CTN8ADw41/0N/Ji3mGgv/IV9inHPKXjecK9M/58+cS9gSePn06dc500ulTpyR96jTC0+nM6TOSRvz0qTPp9JnT6dSpU1IfZafn5yV++syZdObU6XT+3Pms/73+O3z4sIA7LEfj92JJFOACIBGeK4DDC+cv5CvL0D9AJ1aABGDKCg1AD+5tXP3jj0M9eH8sF1+L9wdAB9g+e7Yr7QP07JreJV4wgNAznTMJvEH9i/GHZxgrc2uB/sq7avPhgQWfYi/lwuKCeFRBAxy6CkDYBgjF0Csh98zukX19mAUqAEA+hJngCsaO18sUIRcBsBmm7CEUr98z6V9/8Yv03PPPicfxF8/9Iv3iF8+lX/zrL9JziD/3XNq+fbssRz/99FPKyKIgrd38u5bXvweSEn9FPX6qmLhPkLMcAh19PxEmKq/o38Y96L8c/g/+U0CMSWbI36V06Rrpn3PnzibxBJ07Lx6pc2fPSXj2nIYXL+JUcP/+sayMZcYMXEy/wxt4ttuVAwyoA4Bz6uRJASEog6fp5ZePy+lNGFwcYsC+NwBO7I8DYET/aHetjT/oD8Cmy+VX5/0B/nQ8urLsi6XgkydP6Xic7QrdsYIH7yzoj0ND2EMKD+3kpHqMz50/J17JtWL/Lly8aBOXXQnxpvwFIGwBhFlwFxfT7J69uv9v9660uPiKCbXdzI99JgL66pv6ARhpBKEIsPw7tnE0zc/rkrEvUwVUDMZ8p6OHSp55RoCnft5OQdpK+5c+bE+MKCbnxm72L+U0XPIe+Lxe9A8AFPRfGf8H/wGEcFLnloQbcqirEs5whvzJ91eH1T+7du2SPXzYJ4WlSoCxskQ8KR488CIAAoCj132Y8ONka1P/Te/aLXveAASnpnYlHCbBMqWGk+oRFN1wSbYZYQ/h7MyM9I89btT5a3H8sUzs6c/x0P18dkiHh3WmjKa2D1PqyDhyCV/17zQ8gI7+eshnUsdjaipduKDXCIFncMIc/WPpGIdLOB5L2d/m+K8G+6uHSSbFiw1POpbVJTxzRiY6AQhbAKEwhSlrnEYbHR1JUDbqgiV4Kwpe61s6e9PUC/fK4mJ66pmnBeQ999xzaceOF9OOHTvSjhdeSDvGd6QXEd+xI704/kJ68cUX0wu/eF6WqLc9pYdKsldS9haVPrPL235n/m19+sfeFRobbY9L0A644jQalrzNq1mEBn1qv7kPme2W39L2/tF/0D/4T/UGZUknjSF/Wc9cBf0DHY2tPbi6RE6UIjx8OO3dv08AA4wg6I89hwCNWFJk/ziNjOeb+g8nhbE0iTYnBRTiQMJBSSOPhxnOXzif2wUIwdUpFy9cSND/a1X/nTt7Nk1PTqZdM7vTXhyixIFKOWG8N+3dsyftRVzy9qW9+/aId3X/3n0S4uAD6586dVKB+qXFBHCDsQXtQWf8Ybn+pSMvSR5oDnsEDyEOEKF/OYG8d5/krUX5O37yRJqe3i100onNlPA/gDW8twEIWwChB0azs3vS6NionDSD8njFgSsqE/ES4sAGwJRdv4EyBW2LdqhkRE8kb9yYNo5tTJs2bUwbLb5x41jauHGTpjeOpZGRkfSM7CGkt6AsT6+kfwgIBUF+s4E+yW94OAXceWBoe77wbit9/+g/6B/8x0kVt2gYQAz5E91UJgyqNzMwW4b+wWlgnFwV3ev0rxw6mdwpXhGUHTt6TLyHAhCN/rt3z8jhkEH6D3sTJ2UJGAdEcCDhUlpYXJSlSOwRnNo1JUuUM7Mz6eixY+n8hQsCaHAfIe2AtA1dvEb0L7yjACDYe3m15R8raTwwJFf6wO4uLCbs28T1P/Aw4mDJ7t27xHOLvYS43xcHRlFPbRLHoqzwDRr/m93+Yb8rxgPX7sCrij2WWEaf78wHIHxNGyAUb5wacewJ2Tg6ZsrC7asThaMMpQLPpaAGc116JT391FMCBvPygT8NbN63S4u6sRyzVtxV+DSWjK1MT0EZqIAyMYUiShQK07yCAvZs+YIMD5c3mZx5aFfr4jebcFj/SFOhRv9Km6C/gRfwSvBfyN8Nqn+md+1KOOl71vYOYsny3PkL2ZuEQx/QgQBpAAwAhNR/u3cpIByk/2BAxbuC62qm9FncdYc95gAe8GbxOhosW+qFyFPp4CGAoaKjVQevDf2LQz5T07vEc0obdbXeX8cD1/pgqXlSDgUBoGNFD8v5GA9cR3NxYTHhGhuMB5as8dxatn+QAfAxgLHw5aU4VPJLbYBQAZcaP5wyHhkZlTurlIAGzDKocrONfD2LgTYAtcXF9Mwzesr44MG5dOzoUVFIcHtj5oo/3IV19NjRdOzlo+nAgTk7ZbxNDI8oKIA+24NE0FeYur1/FUL8bp6A1uXhkg8FtWj7nPglE33/6F8BftBf+Sz4b/nyX+Qs5I8H8noBwpXrHyz58mJjgDa5886un0G605kXfQxACBChS8g6nrtmdskl1rysWCbD5p08d+58mpwu19js2qUni3FvHj4FBsDBMe7atSfsH/fOYklT/w6lC7J3cW3oXyzZYgxwwAb0AVA/eeJEOnnyhIA1eKjwhyXhEydPpJOnUXYqnTyB/BNyYryf/YG3Dwd4AOoRYv8nwB4AIOiL5WKduC4mfJ4QewgxHth/qONxUK6fATiUumLLr5z/8I7ZeSATZ7X/5I1Xy/5C1uSw1fkLciCKXltMmJAfS8YtHkIMID1omFlgD+Hs7l3ysXDeJfXKJT1sQQOpBw6wX6QGaGgL+wFxtyCWguVrJGP6hRK0q18qGdMvleDya7vsehtOGdv+QCgn3HsHL+JK+sdvlL+8v7AJ+ixtM3///vobov+gf/BfyN+NrX9kD+GMeqSw14wTbuxHw/IiPFbQZ8eOHTcv32mbdL8iW4LwOTrqXOp/pPHxgJndu9KhucPyuTus9MzOzEqb+E4u9HOn0xWQQeDI/W0I0bf8TU7Kqede0Lk69S/3+cm3hC9dkk/+KV0A3PWiaoRYioenT0GbHgQCvbDE28/+4HOvu6d3J1wajnqdzpk0M7NH9hN2uuoFxhihXpP+SAMYsn+5Ysi+WMKVN/Tpx/9mt7845U7+60f/AIStgNC8Y4uX5Nj6yJgtGeelEoA+A36SV0CgMJLMDspyrN5DOJr2H9yfjsrm1yPuMzrYJKsbYrExFntgABSxh5D7ajJzrrD/7PGU6x7ckrbdf8Z3kdmYvFd5/0o4on9RUOrdGH78g/7mVQv+0wuNTY4uhfxlg696xlYqZPKr+6eXo38ACGdmZ807VPQv9gzCK9KZ7wj9j0p6Sk5bon3oPzlljJskGvoPHx6AMcWKzuFDvIewm3DFDTxP+CQalqnV0E6l3TMz8uECyLy2dUk+W4f+odvlQvs1Mv778ek4nPzF3YyXFuXgx/TUZMJn/cQ7eOqUeA/pMYSXEH/4+AMA2z67v9HbPxmPyUn5/JwAzkm9hxDfNcYpYlxWDbAuS8lTejn1ieMn1F6b/jl16rT8rll+x9ps+Wq1fxcvXNSDUUdeSnMHD8iSOq7jwScFwdcBCNsA4SvlqhUQDl48KIysLMxzJ+5hEW4FUKpcLslJtczEuHbmKZwy3iQzmaL4bBZC5WBtYmYztnFjesrtIeTMZaX9i3KSPYIKYpTx+/cv7+DeX9L2G6N/0K+A/2HHP+gP4867OtVQQj5ERhr8H/yHg2lF/4T8uT3TBGsD9K8AwpmZ1O3Mp/luV75ggc/aKZDbJZdUg57HXtYvm+AiaupW6Hf8ef7rdudlKRKHVbAsrBdTT8pVHaiH+/DUqzUlnwLDEjT0Nw7EUP/jOTyPK2v8adm1wP+wnVjKpf7jRdLz3XldscI49pF/XAuE5WB4Zj3/4zkuEYOuLx0+LPSXi6kXsSR9Vk6KT09OyZ2S2C+H8WD/0N1YIt49o9+mlq+V9Ol/Ncuf7CGcnpKDT9S/AQhbACEMPfe4YNMwDnngtBKYk0RkSIAgaSnXWe6T/7ItPbJ1a9ry6BY5PYwl461btqZHtj6SHnnkESlDOb5Y8sgjj6atyHvkkbRl6xa5CBtLx1rvkfT4E09kIMJ+GQ7qXw6pyJUHBIHc14gZse114GEUp8AA+vz7izCJAq7bif6pzBxd3PgH/XW/HLdQZH4xBaxg2mgX/JcBRMjfyvUPACGWbHdO7UzTU/rFCqThpYKXD18lgT7DUjKuIzljS8hYicH3cTnpp/4DmICn6ZTUW5TDKWgHFy6Tn/H1C4AMpMV7NT2ZDs4dTIsLChh3zwIM2uXM4P01wv8XLyzIfs6ZPboMD/oIMJ+cUtAsYLC//OPqGOzxlCXjrBsW5TnQH6eK0R68s/C8AgjKeFy6JFcJ4eJp6N/j8O5O6/17OHCCi8TFezg1lQ7j29Jr0P7htDz4EWcZ+P4BCFsAIZdqoRhm98zIvj4oG/WQKaACEJM0hdyHlxbTU089lR5//PH0+GOPS/jEExqOjY6mn/7sZznvManzs7Rp46Y0OjKSHn/ssfTYY4+nJ554Ij2Bsscfk7YUjKoAyayppX+tUxQQgSOYgMKj72DLeRRQlHul5Txiy3n/6N/4xGgZ9DfeDf4L+ZMJpuod1UWFN0Q/rVD/4LNl2AeIJUccMDhx/HjCciGABTxLcsp4cVFOWMIoYu8Z+xcP4S7sE6/1H+4hpC47bJ9Kg9exn/7HF0rkCpopPXUMmwFAib1si4sL5u1aG/oX4Bg0BmijvdIl3knx3jKP9Je0HcI8f14/CXhA9hAWmwf7g72hfBbjAQ9td76rQJs22GwW7ojU8cB+xH3iPcQhF3yRhtt++vW/mu0fDtnA+6p0VF4MQNgCCM+eOyufG+rCBb17l9wbOLlzUvO62D9yTmYlmJmUeFfupQKjyQwTgE1mILr8A8X0xD//i1w/89RT27KSwYwRs5ef/PSn4ol84p8fT3OH5rQt8zjhAAs9dfRcqlAQnBblOqh/fV6voMngRECgej0hGPiTew4FbDIf7xP9B/2NH2xWHfznZS/kj5PLV1P/4NoZ7CNr6l/cCwhgdvqMHjiAVw/Lv9DflGvxEOJZuUdWDaXqxKL/sD8Nnivo/H78Dz0OILpLDkrg6xmT6dixlxV0iqdr7ehf3MeI9we4E9C1eCkdfumIgMT5eR0HoaF5AL39ubhwUTy6uE8QIHCQ/cEYYklaxpE2y9lfAELsF4RXUfcUTsueubVs//K1M8eOCR/PHZyLPYRt185geXdsZFRP/I6NpZHREQFrYzgVvHE0bRzZmEbG7KJplI+MypdIoIwys5nhxL6R5597Xr5PPDo6mrZte1KvPwAAo/do8ZKcgHvh+RfS5s2b5ETyYz/9mdyZBCUDoRChwswHG2Nx2th77iBUbIv52XBzfyNnWmUGnJ/hsxJqX/li2LwMqkYv+g/6B/+F/N2I+gceORzwUKBR9B2XFvWamV79h4uKASyw14/Atp/+kz1w01PpXBdLxto+ADCuszly5JiAUSxhwjOG603oSQTozHZBHAU6mVit+hd0xvU/ekq42B94COGp3b//gJw4nps7JOEhFx4+fEhOD8s+QHhWl7A/2t50mp/vZvsHTyxAz9EjR2QLwOTkTgGD+EKK7CdcA/Rv8r/nP1xxh88rwiMun1+cmgpA2AYIn/35z9Ozz25Pz25/Nj377LM5/PnPf562Wz7iz27fnp7Zvj1t3651D8m+BBV2zEzwDWOAQHzp5NFHHkn46klRDPC4FGEh4MPptYmdOxO+XjI6Mpp++tOf6qk1W2Ypz2A52GayAH8VqPMAUfvRfTFeMfXvnwpRfmejTTBa9O9pHfQXhR38F/LX0BUZ7JjOuB76B4AQe75FTy1ekrv/sFw7vWtaPmkHbxX1L+7GwynYgwcOyufU4EXSQwxu8t14JwAQfL5OlihxjcrcnCy/wRMGDxSWrAFuAEhejfdXINAAm9eR/uwfdy4CdPCaH9gMjP9h2/MHwIw/+RQgrpvBt4klD2B6UmiKEMu9bFPChv3BPkA8J8B7Ua+1AagHuEf/CPFb8LGH68F//rfeqOMPHgftISu41QT7YWPJuGXJuDAfARBnm84z4I1gBmvlMAo+rYMDIgB0uMsQt9cr6FMg94rcV2hfEZFlCi4nqEBjlgWwueWRLQnfhNTfNHz/Chb5uxUgLqd/9CfGXkAr24n+BRDLUrsDhn3GP+gPw0q+Cf6DgQj5U90G2WjTfyvRP1wyFl25uCiAj8YPy4ue/mfOnBLQIMBkeirt2btP9xiaLPfrH4BGAKEsNS/KRJ2gA+BHVnO4MmMrO/JboEvX0PjDEzc7M5MWuG/S3h9L7qA3Lqc+fx7brc7rlqvz59JZi2M5Xg7zAKCLhxB6lnqktj/q+cW1M2of8fUNtA8QeOrkyZ7+/fhfC/4Te8nfeoOOP2iLvbWLi7hMXTFHAMIhAKFcROyUgyiIRb1SRi6ozUsGChplb5/NKIXxFl9J3fmzaXEBm4nJ0AYi8hKvMTvabcx+2L/frwKlIksZbslYFY3tV2z0L15DYdCV90+FtpL3j/4V/F/J+Af9DUSYUQn+B08VwxjyX/QvPHfwFlH/YikYJ1bzgQ6Z3IJ+CtB0FUR18iD96+Xv4sWFdBFeRqM/dD7yMPHpp//Xsv5buEhbB9uj9gff08UY4fAN+HYp+p8725WvaHj6N+0frp7RPYpKf4w39g1y/Ncy/cGjw75/AMI2QCgeO1U0hahuhk/FQk+RB45uU7KAKKljbeUrXYqRw568LBwCCnEPmfYlHhYIjs06hNGlLxO26D/TJiuOoL8aKONJVY7Bf+qt1KUrlTeTwZC/0D8EJ6F/FUyF/RE6rBX7G4CwDRAS8GUgphuR8z4E27snYDEf+LBlAVEucMXSK2eGR/LxTWLOjDT/FfZB4EflxLR5DmV2ZF4SXY7UmS76IVBEHTV20X/QP/gvTxJsUiYTtJA/88yE/gE/hP5VPSF2A7Yo7E+RD9pmO4iyWu1/AMJWQGggjt44MyjqZTDQJYJjXkOLiwGiQBl4k6UEA20C6nzd3C77K+CuGDMz7LIHxQuvPkMPUK4f/WcwrgAZNFO6Bv1ty4HwtfGc8FXwn8pPyB8nl1mfcGIb+ifviVXwFPoXPBL2h46Zok/pjLhZ7E8AwlZASMOgnkHP9ALwxMtARgDgoEeuPJeFxTx8NDgSArRlbx4YaVFmqkUZl3aEqQw4SpuYtUT/7vRZ0D/4L+RPjVDRG6F/DKyE/s1AlkBFt0FxNSnsz1q3vwEIWwGhoX3zpNAzCMYpoE0FifsMGBZFrGBSQZyBR3NBi2BmTx4332p7qN/8i/7VMxr0D/4L+fP6Afyg+oNh6B8CwdC/4sm0lSoFgUWP5qXhvD0q7I/Y5TVofwMQtgJCM7ziyXNCROGhkDnmKaBNFTYMF04KM1RFDU9GrdB9uij16F8Mf9DfHZoBH3KPj5/dk9/Ip0wH/4X8hf4J/at6IOwPJgphfz3eIAAOQDgsIMyzb1viNTCnwA3KtsxCldC10ZY826MldfG8eQZ1Kdiuj5A8lOkpyOIJ4+w/+gfdBCRyCcjueeIsOOgPIBj850FzyF/RG6F/3CTb9DYAgupym6SH/pXrz8L+GK+sEfsfgLAVEBJ8kDHU2NJrpSeFTYnQE2igruz5U48Nn+G9gjTaGcjYZm2ZvfD0soAe16cA0aLQov9Cexh98QQF/cX7HPxnsptPCCooCvmjB1knDaF/TIeE/lXHhnyvvtg7nXyXdAaJoBf3sJuDJPRvcQzdjPo3AGELINSPaRdAh+PmvAsQAEQH3cqz54rC48PSRnlODVT2FBL80XMoAAeXSpZno/+gP/mh8FHwX6GFnzyF/BVjXnRIRSvoGqdvOGml0Q/9F/qX+ga8EfZnddufAIQtgBDKkwpU4nkW6RgjK9WiPFTJ0nuF5V6eflSDxbYuvUKjRcVs/fUBnnymLPmokpe+RKlH/1ReQX/ynvFb8J8to4f86cqE6ZvQP3n7idcZCoxNv9rEP/Sv8kzYH7PZPBi6iux/AMIWQCiK8fl5XAAAIABJREFUIX/BgALBZWSCNygOMImGqlhUmejdg6jv9gBmBVMOBiiQQZptlb7KF0xKnvwuglXrN/oP+ouxN48PDFjwn8lhyJ9eb0WdQR6REHqFshP6h95R6PHQ//a1rMwnSpOwP2XCTbvL8Ga2/wEIWwDhiRMn0vHjJ+Qj3MdPnkgnjp9IJ04cT5qvoeYh/0Q6fqLUkTjSVh/lEj+Oenj2pLV3IknbUo7nj1fp6D/oj4/AB/8V2Qr5g14K/SM6VXRy6N+wP2F/rxR/BCBsAYQTExNJ/sYn0gT+JibSuM9DelzzxsfHc7nUYVqeQ9m4Plu1o/nsQ59jn9oey6L/oH/wX8hf6B/qR9MHoX/FroT9CftL+7BS/BGAsAUQzs/Pp063kzScT/OdeYkj3fzr9uR1cx0tQ1rbkjTb6nTTfLdur+Paiv6D/sF/kMOQv9A/tZ70Ojj0b5M2YX/IH2F/wRvt+CMA4RCAEEzVFfCmAqbMpSBlvtNNXQN5wnyd+QQw5/M6BvxqkFeEV+trmm03lVv0T4YGbREP+iu/Bf95WQNgCvkL/eN5IvSv2pawP0oH6E2ZXJrTJewvbep8CkDYAgi7893UMQ9eFigzOsJYwlRlJiZGGgzXAZELItf8jvMwGqCZ71hdE9puaQvAJ/oP+gf/qQc95M8MWugfAf2hf3Xyo56fAnaELmF/wv6uAH8EIGwBhOKJ6pqHEMBwviMeqi6XeEXw/FKWA4GsI0tdCvTybISeDLRdebwg2AYW5fmOLCeLhzD6D/oH/4X8YaJI3RL6R/Unt994I0gahf5NWMkigBZ7E/ZHVxLC/lb4IwBhKyDUmRcAWcd578Rr413Ots9QPIFcXkbY6eTZrJThma6CSk2roLKseAXrGV/0H/QP/iuyEvLnaCEAkSsOnJx2dTUi9E/oX7NTtDFhf8L+qhMKGKPoEfBHAMI2QMhZZkOoOvDUDChTLyIIXZS0AD0ARJmtEuxZuczWSl2tY0w7oI/oP+gf/Ec5aoaQnZC/0D9Fp4b+tVWusD+927bC/ibgiQCEr3nNL72mBRB2Oh07UIJ9gYqm9YCHLdvYUoVfCiboKwa7a7PUoqCAzGVPlD0vBkziuqdQZnNd9Bn9k95B/+A/yAX5QeQr5K9nKTD0j3pJQ/9yohT2R/cfh/0VXCHOrf74IzyELYCwEFCZCcAtu1thjMwgIex2QGStlxmQe3xsEPAsQB7bzW2JJ7D0oeWlHmf70X/QP/NM8F/IX+gf1aWhf8P+hP29YvwRgLAFEIo3AvsDhdnsVJct46pXsIA2f9UBAJ0a7rKXpwaBlm8AMdcFoER/0kdXvSHRf9A/+E886jLRCvlzXsHQP0WvFlqE/g37k22qTJwLb1T5YX91FdIcVgEIWwBhUTa6XKeKRgFiBm22/KteQXgNFezxQmmtR/e9gkrZA2iDoF5GvZKmg71P3vMjdfT6mfJbon+hMUFz0L+AJfBL8J/IUMifGUED0NQf0FOhf3iwgBPz0L+wO2F/1rb9DUDYAgh37pxIkzsn086JnWnnzp1pYudkmtypcUlP7EyTk/grdZCPOhO+HtpBHbSF+lPazoS1u3Ny0sonpB/0y7/ov9D2RqY/FCrG/mqPv58g4KSxznB1gqGX7prh5/KheafLBMUBAKljVxnZHZgCFPIJes6kEdqfm6Bcj/6VhsH/If/KA8vVf+Dna6F/0e714H+RR8oewussf+w/+G9l/He19f9y+f9K+g9A2AIILy4spAsXL6aFixfSwsLFdPFi48/yFpB/oVEmz12U5/ncAupcWHDtXJA4+sDz0o70saDx6P+moD8MEBQ3x5khxlPG1vhmueM/OTUl3j9sRyib5Iu3WZW3LQ8REDJ0wHB0dDThT7ZA2OEoKn6EAh777Hed7+rm4+vZPyZOFy8G/4suCPlflvxjsu3l8Erlj/p/cufEFckf5XRsZDSNjoyJLKpMjkh8BPI5MprGTE5HR8c0PjaWUDY2OpLGxkbThg0b5I/yzFCeQ9vWjs+Xtq1d9s/fw73p/eR/CnIY/Lcs/qPeZ3i1+O964Y8AhC2AMOG/y5clSJcT/m/9z9fJ8cuXl36WFfv1Ef3f0PSH8E9OTsm+LsQ5lPjROb6C8Zd2BWgWD2D2+vH+qAz+ypaGUseA3nw3jY6MpJGx0XyYSQyCPSseR7Yjy0YFcGrZ9e0fnnW8e/4v+P+G5v88ThbJPH+F/J/bHXL8wTMAhOB/8k/+LSuQP/Z/8cIF8foDaBbZMnmj3FAeObmyrT5aH8uQHflcGoGaB25NMFcBOAF4ChoBGL+dAaGBSoLA0QIy/fMaH8vyz/6HkX94mgBowv4ZF/WzzWQSF2aeu878z59wJf0HIBwGEJLSLvREz9nMRMi/XOgjVnEpJSVKkA36ZzXet4SZCPnX+2hh0+i/ALYmnZZBfzFEzkOYac/xaLbNXlvof/HiBdmqAOXtl4kRL4apgLe8tAQjJX8Eid3seVDPAAEeL01nPW0rg0CchjeDdz37h7cVRtjB6UEUrPNJb/I+03Wt0m4L/aP/gQQkB9eUZfVXif5YYcHWHvAs4v1/JH6y/dAhxx/yLSsAeT/38uXPyw+9cuWjBcPL30MPPZS+/9BDy5b/lfS/c2IiA+t6oDMF6+xXefw5rBKSB+tfaKnljX+/JviqVRkz2TfTVSUkrGBI/ut5vLRQF7G/K+g/AGELIPQ0LgNp48DCeljycLGYYa5WZbhEnxkISzW0VJ2Zmy2RqjbZr1lsaTamP9ulpJzpqsU6s7SbY1XtVd9/BoTZM3F13h9bFLC3FCBOAaBduEyvBEMzVAr2cD+mAj48A0OAUD0DY+ohlCVjM0JWV55teECwRE3geT3755Ix2KlmNUvVmZnrSuTq0D/6v7noTzkE/yM+kE1YIAzjEgP0L9qC1xpArtwX664cG0L+VDZN5lYof+PjO3TJ+Nsb0vj4eJ6sUe4Z9pP/lfSPvfHY7lLkwGhFkjGUGv4fLWAxw1yjynCJAfSP/imHRiuSjGEmLCNawGKGLM2CIRmu9HKKL5W0XUztyNWgp5X0qdCb1cwpaa6G5EFikYVM5s6zkRxcofeZZk5JR/9GWZKkETK5FP1piKB0vSEqzzRbKeml6I/lGhyiqWf3BGn8xnXtXcBvEPBWnSzt5D1L6vEzDyHqcj8hwaULFUzWh1hy+3I9kt69qcameCqvtH8sVYmHJ/N6oSRiSj2jYSFlrtSb1cwp6aXoX/rKTUtEn7Y2SlO5Um9WM6eko38jG0nSCJnMxF1i/CmH4L+LC27LQVaubKW0Ogz9IYeYpJDPOTnC7RG4e5b5DPvxP8tWKn8AgJjU3XfffWnDffel0dERAYXXsn/sIbxwcYFEy6FSz2hYSNkoz8k8YiWnPDQM/ctzGov+QYdrQ//wELZ4CDMLkocZliExfmUBQ8tuBLlUIjnlajEPoYu7KCszS9NMMWStOsylEskpV4l5CF3cRVmZWZpmiiFr1WEulUhOuUrMQ+jiLsrKzNI0UwxZqw5zqURyylViHkIXd1FWZhaMD07kQeljmXep//iMNp1T7hHmXZa21BCVpVu5UsZ5/sr1OwR5DGsPBvcOwVgJwBTg5+rCyyGHSpiH0MUzUFQDSM/jtehfAKHQsdDCDwWJxVJNM8WQteowl0okp1wl5iF0cRdlZWZpmimGrFWHuVQiOeUqMQ+hi7soKzNL00wxZK06zKUSySlXiXkIXdxFWZlZmmaKIWvVYS6VSE65SsxD6OIuysrM0jTkxcuhB4R8orSoTdctsJ0SarnfurFS+SMgXIn8wTOI/YOQ4Yf/6eH08MMPyxYQ7A8c3zFud9Y6WaXHkjLLtE0Wh5V/6DTQVKhGUjF0o1PohZiroAXVv7lUIjnl6jAPoYu7KCszS9NMMWStOsylEskpV4l5CF3cRVmZWZpmiiFr1WEulUhOuUrMQ+jiLsrKzNI0UwxZqw5zqURyKlcKQDgUICxDkyknERKUYaPUTX+qGt41LgVVad2IpfrXYC7D+tHL0X+mXkWhq0x/GAxcDYDPEcombPZ6hfTHSVuAIxgT9UoUL5x+lNyMQN7rp948Ufj22UM8ixPCOFACgyLP8b4xXDUDECjLxubpsLsd1YAV78f17B9XM6khKvxcjV/OZi7DXCCR4H/SpXGg7Srz/0DteIX870eTb+LzSr9aihOx2OsH/sck7WqNvwBN5yEssjG8/HWyx15lTu77G0L+6BkE+Judnc2e/tnZPeIlhEyP79hhy8eD5X8l/eOgHOVwGPrXY4OzKHxqbfDfanj/AIRDAsLmYPt0ZntRtJfzoaxcJ1fIOVWExZKZEzlS1e2XYE3IH0QvyyEr5wrMqEMWS25O5EhduU+KNddq/xfEQ7hTll8vXLzQSv99+/Yl/PE/0k/SOaEeD3gIBeC5Wb4YJPlUFwAiv1Oqy7+4cFjvJizgEctKcqXFSDll7NvMYA8ehXz1DD0O9YEWNYZWTzwQV79/OVTS4mkl7RCSZGuV/+L9lRsuXFjQU8Z2/VPmkUygnCMRyiGLJTMnckQmeX7JeCXyJ3LlPHbDyB/BIE4hAwyiX3r60d6eGQBEvZYGdbH9Y5D8r6R/9dT397R6SpJSIX83v/0NQDgEIATD5zlOD9rqJxr980RwDLT5Gj6uwuX/VYMX/StNetFWL/V8ToELFrsG9FcPAjwTupl9qf7Pds+m+x+4Pz3wwAPp7NmzddUMbvRdsX8HF5jDm5C/LCHfwS6euwzQsJ/JlnizsRGvhAI7GBJ4GWAY0Baek3rOSOHOwYNzc7ZUjD67shzV1v8cnrlK/QOcYjM7vKM24hIG/9+4/F+YmCNWcq6H/LE33NXGCRQ9W4P6h+xBBptyqG/g/02yjw7X2ai8QHaWL3+QN5l4tcifTs46sj9wBFfJjI2mmdk9Wf5xfRRAIOU+ew3HRhOWlrNcYwLp5H+5/eMdcaBNPK1h/9aM/Q9A2AoIqYhV7XiVR2woeb6AGiqHSxbmWl55ZWvIiDXhW4r+3Zh4wjiKuho9ub0ZrpEctUgdyKOkP4CbXHdhh0oGtftv//Zv6cc//rFsDMfmcMSRV/7LnQorwKjhQlxR/gbcaFRgnMQTyOVfD+xgDJCWPBivcqhEjZoCveYnFWWv0uhompiYsGcLyNS2ilFj/6gLwyV7mbwXcwX9E9D6QyVZJpagvxQ50hV6MrZkIStlOC4Z+RGL1IFW8Xm5vmsuR5cszLXyuyInP+I7cdmo4otyfddcji5ZmGtVredHfCdVjRuuf93Lq1ssCiCsiCnvOlgO80u7F7W9ibjOxoE68r9OsOxzZ0vwv8hwnoT1lz/yv3gGbc/gntmZSv7lXsGRUQGnlH8ARu4xxLNZXzj5X07/fB7gGiBb/qvZQLN8niOdPuD/XbLQVXT1ctQidRD9XyP5D0DYCggdv1ZR5dDMt9ThPsPVb9aWdLOueK/KQ83iUoJYs0XLGfBQs7akm3Wj/2KHM4VrqpdUoah4CHfahbi4/6zPf6i9bduTAgY3b96cNm3enO7bcF/atm1bqd2gP6580D2EAHXFKyFfGzEvn18eJlik8mcI4zUCAzMykpef8Zy2o0vLNEKyV2mPLk+pt0KXpQf1PyPLVro/cceAqzCG6Z9GCH3CKwqaNtmzEAqxQn/mS86Ah5q1+9Zt0H9AU9Zds8WQv740HUCtvnWvkP4iLwbcakBYcwtkDid1N2/anCCLmJyJHA7oX/fyllPGK5E/BW/8frJO5rz8kf/hoYdXEB79GVsmVtlT+Uc+vjbCA1+Uf3gKCRbFY+/AaQGv7f2LzNt+x54L4iloEgb/gwxKBSVMX542mjWp1bfuAP6zJhpBs8Wro38CELYCQi5WudHSsWiwgx+vXMFnWpxlDDW7TvnHon+lzY1Lf3/4A/FaTehYYr8SDM+DD/5DWlxcTIuLC+nBBx+UPJT1G38YNSyfytItAKDM+OH5w+Zx9fzp5+y8h0Lz1ftXQCSWmWBM9C41gLyy9AUwKIBxdEz2KtWGCpdXW5sD+pcN7ubRUA+FXonjQeRS/aOeGjb9vZMT/kslwf83Ov97bdWmzYps1Bxfp3yLw4+/TswA3DqNa2dKe/v27W3I4aLIIQAi5LD3v8uyZAw5vBL5K7JAUFbkr8n/uBCaewbxLl7+IMP49F0/+cczEwKIe+VvOf1T/nUP4YUy9eIgMeyrtUDBXKGXnLmsrlOn/GPDj395anBr5bfVdepUaQn1tezGtT/+12p88Nu0vX8AwlZAWJPbk9rHC+NY/aqwMBOXefoPTKlXyqN/TwFPVh9/NemvhmhC9ggpIKx14tmz3fTA/Q+IITpy5GhmkKNHj6b77tvg9jHV46/t6lIVvX3Fa9c8edz46gjBm50yliWlsTG9dxB3p8lexHnZdyRGRjauz6jRw7P+wmrnbRjU/+zsjHoosHzc8BRiKWxQ/wpMeQBGQS+W3y8u9L++x4+5j7+a468DSsORh9exbRnXkH+ShaPHEPmFTivRf+pRV08e77HU3rRd7Bu83+Tw6NEj9kMuJ5XD+9IDD9yfsMc3P2MxL4eD+F+BG73p3K6hfC1LwSJTmPhA9or89eN/AZ4D5E+8gDKxW578a5vL67/foZLGaBmFEAT/e9pk3CsUKnx9o8t/AMJWQNhgdCcC9aCXgooxHDbQfP9veaapAEuvJeZrS7zZkVVoZjPte2ZeabPOKb2WWKk7oKMB2Wx5tfZPDyGWZmA8+L4gB/Yr/cj2DT73/POZG1jn+eefF6D44x//qNpPCKqjXfUQOkOTr69wS752OS76B3D0Rku8D/Pz+d4y7lOC10GWie2j9wB0BJ3aBsCZega1PfM2LtH/HrsWA0ZLPYX6u/E8Tkoi3/fv+/OGEXuXcFpb/wv+I68YQUowoKCZzbSG/t/S1GrQP7jyCSAG/AY55H944yKHGxJkjjRhneeff87kUPf1Fq67nPQWAVsyXoL/l5I/Wba1yZnKl8lTnmzpQS/KhBz86iN/XE5GPXry/N2I2rbqAW1LbwFYSf+TO3HtDD2EpJQLm0S0omY20xr6f11bjRHx9OfzvrbEBxQ0s5nW0P/rW2QtzVur/QcgHBoQOkaqeAfo3zKa+WDyKs8zYImXx11lZuaZl5bJv66adMC6zfzo/7rQH9/dlb1+1XUXGIzLaduT28TQYK9SuZfLj/3ltGmT7mN6ctuTvkCuu8DlsDBw9DIIOIOhyIYJwM2MSfYKKpATkCV53XJdhRkgDwaxD1CBo3roxLB1ytLWcvrXU49YnsaXFMr9aPRC0uD5kMvFagTn5S45/ZYxyEHVrMwt/zb5PPhf+aZJlzUm//ItY7m3s2sXxBf9iz2C2LLRTw7BPpDNTZs3SR3dT0hiYsnYvmUsB7h0y8Zy5c/zezPe5P+l5E/3CY4tW/6bffr0oP55/ZNSwv1L0gjXhf1bTfY/AGErICSmoGFyRqoSDNXJxYBlZ5CPWGN9H2QDGtLI5aej/0I1o0XJcLRzdMrlOXJN6O9PN+JUXu6tN7Ks/uEhxCleAYGyl4gzf10eFg8BgGEGhwocFcC5ZatOOWWMpSOeJgZIk71KBiSzxwF7Bt31NsvtH5vh4RHEMrEuH9f900uYjVKjf7kQ9wI9hEayDAwx1DfW+DvmK79Nf6YVZUZY1vizXX3a8XW8v8qYIytoBa/glOy5ndcL4nN5jqyI/roUTTmEDC5f/jyvt/G/7PcbIH86sRrRSSLkZkj5X0n/vJg6+E+FuXDR6tU/AQiHAIR5BkANXUx+pWDAMIVplIn4CPMZMr+EymS+PMcdONT6uST6F1IoPfCvo0yVYj7DQnfGVk5/+VLJJO4LnM8fg2+OE/tlyF5L2Ns/lqrkCyj0AMpdfwB66hFUT4IaKC4JKXhT4EjDg7Jvb9iQNmzYkB586CEJ4S3BJ7B42GNsdCSNjOkltzjFCMMDb8QYDqPI3WejcvpRgR7uQkOZgj54A7kkLB4MfGLr4YdlfyT6/P5DD+X+y+/jkpmG+K2dri5vyaESfGmCxAn+JyUszJQJ+RdSKD0A3HAyFuBHl4wLnRhj2CBoBvK+nHF4q+Vi6iuQP/I9w3LIo5f/OTFDXTk84uSf8od3XI78s1+Gw/QPWi7gkFzIX4NdyBk0MZrGv66kSjGfYaPBJfnvetI/AOEwgNAP7aARbeb3TTPTwjpoclMliHyywXGFr3IFy+qbZqaFdRD9kzykqlOEuShHWEk9Ezsn8EURLFXZ3qVmPUkz08I66KF/NkR+X6B50/KMn3uQePJYyuHhAygk6JpPG74NQPjt9JAAwm/L0hi+izo2psBPgKEBQfVC6DU1jBPo8b4z5udwZMzAI8DkmHxzFaATgFD6tP71d5clbpySViPF34yLqe3TdUPSX0aCpOWw9E0zsyY8c3tkK/onNQtpMrFykUaa+X3TzLSwDnr43xtCPll+SG//AC96H2g31YdKqMDZSt0xc3vatvGHTBNoqlzphKuSwRb5437cYfg/t0sg6OSf8pfrDCn/K+kfp52pzwbSiMOQK1hG3zQzLayDKx5//hQJ2RUzJc3MumPmDhp/NDGwTtU+E/4By5MG2IqFdeA64TOs74pKlutsUH+uijzHhy2sA+kkAGELIMwkZMTRmFFzINuo9K8ouT1FLsMZH7TLkhwywk5dGP2TOAgZdwRibk+Ry7gC+uMAhOwhlC+VlKVO/wukJ9edlrmMPv1nQyTfJabXrwA9vXoCgIob0hHqYRDxHtBYdOfzHWUwJLJ/UMDfSLnegl5HA5z0JEi4zP5nZ/ao95CHSxr9e89GNmyufz1UosCaFGqQx5OWC6ghf8L7pFhFIpWKniKX0SAwS3LISN2spG4U/QNPPfbcAvz4b4rjR8rP73kHl7HE++uWED1UonJFr56Gw8ifyJHJVhv/QyYGyZ94CO1LJcuR/5X0D50Gr6vQz5FKMtw/N8r46yj3/6GS21PkMpYY/7X0/gEIWwCh8L3jmxpv+AKVkN4cJzmMyl7nJWo2i3zax+sf0/NT2V1PGP07ENFDnV5M6Wnu40Z/8UzsxKetulmB9mm1ZA1JfwBCHlYRI4L9QmZU8j4jLGPlU8a65JpBlttbSE+elHXm047xHerR4z7CXNc8dTmtfQ7bP/YPsq9y0th9gxUg1T7fRYMmvyn315Vlchjh/J+nuY8H/2cSMVKRh5nNcEj+y4/5Rn38BqO/yOGkXTtDT31+CRdZ5vvD24gDFrJfb4Xyl2VyCP4XGc/yUMtf8RDaPt8h5X8l/RdPfU27kqqYQbJ7c0rtHFsm/Ss2qzqoEtE/Jz6Z0AMiS9A/AOEwgHAAXT2jCms2Zhm5XAtluHI0Dx5yJFcCi2mPzfaav8NVlmizPsu1MPonDDS6aIB/S4bFlkV/XjuDvX2VZ+Iyvk6yTb5IsnnzpnT58v/Wnkp3kocyLK/iRLLvf0FOL9t1FzBE2Rj5/UPINyDIk8E0JvgaiRkg7PMbHdPN6Lp8BFA4LqeBUbZndo8BtbIc1hWvnS07D9H/7MyMegblu6rj0t5S/asXRL2aAg7tFCdAsCxVNfk5+L+mgGMWiTbpxXItXPXyL1ssDLgp/xi5RA7xlaAN8oWgy/9bCVP+vSynjPHlElxQLaeM8ajRUyZmuPD5CuRPPPdduyvUJnCD+J/grZ/8cbJFuZK6Q8j/SvqfEjnERfsD/iN/UYOucf4jv2RqkT4S4h/zpVq+BpovzwhQy09n/nM5ddTaQaZErwL9AxAOAQjpElei12Oy/FRzFDmadUuuFtmoAhN17eWkXMuMMnTN+Kx4f6WG/OsJY/SCwcBsGkpaDJGjo/9uKu4/y+ATdS4nuRMNn7BrftcY3Yghwr1qdkltB0DPGSUaDoZiJLhMLGHZQ1iWmnR5mQZFl4/H5MBI+TpCWbJC28P0j2e1j/oOQv62Qf1LeXWNju4h5FKVkmlp+jtyDxF1A8goQ/e0zwr+V2rIv54wjl7DR10DjDJ0jfisYenPewjBU4PlUO8hlK7YCeXQfV+cRah3YeGCeAivRP5UNiGPtfz143/kcclY4k7+i4ewTNykDR4yGSD/K+mfE7Nh6e+Gb4mooyyjDN1TPiv6V2rIv54wjl7DR10DjDJMKQUgHAIQCrEd0ZT4liGBK8wov+QxxhDPD4pXbWtiQJa1IIFrLfo32haaMMbwatMfV83I0i4M0QWeji29dc+ela+RwPuAryKwf34h4f4HHkj4ikL5T58lIITC15OHCvBUuathgbePp4nFMJiXzefhnjF4FnAwhMZDjJsZD3gKCeZwuTSMlvZRjM5S/e+ZnSnLxDvGxZgtp38YP/aHEPvAKk8rCVYIVCRISFVojcHXVMljjGGzOZ+vXfTmVAIrlayOBK5+9P+q0V/kZUIvpoZM8j+ODuUQ3vgjJoeogzjyHshyyCe0BbQrS8Z2SGsl8ge5q0Feka0m/+OqKZXDUofyBzmGrBJYevnHpIzXVDXlbzn9U/7zkjHIUJOkZEi+Kwz+f9X4X7j1CukfgHAIQEh2Z+jlw+ep+tB/S36J1VLFfCxXlCddNGcyjyEKGGeYK1uk5JdYeapuIfov1PPUYi7zGNbUgydvoQBCbsLmwzZS+i3jDfLd1PpbxhvS3r3lG6q+D4AiXDsjn7vKp3HVS0jjomHxBGbAJ8vFxSOhS00jzsNogBLXvcjdhFg+HpWrZ+gphOHDUu5S/eueQf1Ost8ziDZ1j6D209Y/ASGunqFngiQkTRg26c96Pix1Syz4vx8tVo/+EeBmewiLh7l+537fFP+Hf1j6m+IX5ItBeq2UyBcvqM4gr13+VC714vcclwmZyh/5/+ChQ3lyBVDYlD+Ro5HRDC4p/5BZlbHRNDc3JzLt5S/3mVcYavln/5A/rasXxGNfJinIMOSvaBJPk9WgfwIQtgJCG/I88jnix79wiOQOqOOAHKSsrmUpCXy5oyxrAAAgAElEQVSJz/eiWHdfN+afr+vlkui/JhlTQqBMpTJiOStHMmFlqUo+Ko+lKuy56a2DytibBC8hvpbQs1+Jz8ij+rycbpzUzeziIZC9R+q9w3UtorjdPkFV5AUE5guru/NpdERBW/ZG0JPIu9XmO/n0MbwM0pb00ZHN9IP6R114LMZ3jJshWXn/fB98rg/GXf8zWmaS5kimv0Sq7CpR1cslwf/kOKOPUUaCTKXCyzkrRyq61o0NqFNaExGpa1lKAl/i89GlL3M/4TK3WGDPbcfxj6tjT3Nf7ybI4Wb9StA2fiWoT/+QQ9yNqXtvVyZ/3Le7lPyR//PF8WO4OH6mkj/e+enlXz4ZaVdG6aTMwB51hGw1UaA3TP/0Pu6EHPKb4pnsOdJL2JwzoI4fvZC/BicbzSTw9PP5ILAvywRvZA+o458eQP8AhK2A0IjeIGCvV80NAqMScgeEG7xBg+qqsImcFf1XVLuR6A9vxOSkgigBMhy8xviX/YQbZImquW8wj7UJrvd4AJD52bt47WzJV5S87TOiUdFTyPAm6kZ2eg8U6Pkl4eIRQNmhuTnzSpTlKuQv1f9BPHOV+oenAl7R4uExqgT/37D8r+xOpndWp8H/hb9d3ZJZxXpqDDH+Ii84VIJPSC7gQmU02at//+3f/j/Zs4tlYvz1k0Pfv7SLpWjnPVuu/InccX9fd7D8gf/h2duxQz32kFt4/yh/lGP2jzK5QH4Mn4q0SZl4Ae22AJP/5fYPD3/lqR+C/nkASbwB9G+gl/yYj7CJnBf9Xxf5D0A4LCDMnKmRXjXjK5CdGVoZkwzdEPe05xGPbzo3lRvpW6qZjTpMMoz+M+2uhP4wGHkPoXi2SGCGedBkr+AD9z9g+5W6S/Yvnkd4CGlIXIi7z7KXwOVrXRgc56mbnxcvHr5AUl+dYZ4E8RZyCck+h9U8sdzo41r2L54J9+m6TCQX6RkvV1YMTi/9pVrOzpFe2BDyV1G0mbgR6V8mUDjt38dTz+G+nFQOH7g/7xvseR83/l6+KYvL5X8BegBq4q3jZGtp+ZMDX2P61SBu48iAcL6T9uwpy8QZDIqc9sr/SvqfwgXx/vonxwQ99HJlIX+O0TxderKZ0Wfa4vjPN8H4taJ/AMIWQIiPnvO/EmNOCXvKGhmarDMlVWf1zGij/0KgEit0Z6ynrJGhyTpTUnXWiugPg4EvGUDpIi7/NdrVpP6LfUz4k1SjnlcNUMZYkpXlWuxX4n2Dtg9IAKHF/VIQjU4BjF29mHp0xIFLXlWjxkkApLSle5rE8MmF1J3r3v/OnfalEoxGyB9Z3E3fclaO9GGjXIaIlte1JFVnrYj/S/uuy0a7mqwzJVVnXVH/MoHitTMXuOVAf1O//vdCDt3+Xdb0Pwn8x4nZlcgf5JNLsQoqh5O/HTt2JH5KcmZmj+wTRBoAEV8ZwqljgME2+V9J/5iYXXATM08XN9IS7SlrZGiyzpRUnXVF41/9pka7mqwzJVVnrfn+AxC2AMLCZD2cQy2rVayYyF2TDT+3NeaNXGkfsWYfPu3jbMg9bcXRvxIi/9uPbA5kOAqumP7imdg5KRdE46sl+O9q9M9vJNPrhxDADcBT8gDgDBAixAXV/GpCNgC2x1A9C2PybMd9Eiu3xf2C1ofv08evR/9YMlZg7QfPx23UfJbFg/+VEPlfTyOS7Srzv2P47Gl9NfqHV3ACXyrJ3xS/OvpX9vJauyvlf5Uhld3lyp94CnGPqH0jXL9BbmCQe3db5H8l/eO0f57g9timrOSUq4zPQv4y5yuBbjL5C0DYBghlQMsg+/EtuaZp+wkNilCxnxK2xmqAKJXZoCGL0pM9IuUll9V9KfOi/2tNfwGEcg/hgM3sGJYVjD8OqMhmduzPs8tnBejZZnH1CpSlXn/VBAyAgj3dSzQ6ogalmY80DFSui3vS0J/00VXv4HXuf3IKm9m9p7Vwuufwkkte96XMC/6/1vxfKP3q0h9XzeCqFPB0ATJXPv44WDG5c0q8cCuVP+zlxe9aqfzh0Bb2CuJQGvY9Ahziuigv8z7e088K+oenfkE8rUXS/AiXXHKAL2XeldPfTa8rCxv9g8ae5j6+MvoHIGwDhI6uJdpLeOTkXEtwtlSe05gW59o9oE8VePMpn3bPWrZ16TvIs3X/JOLRP2jgaChRTeeoK27Sz420FKlnQu8/E0OEZ8U50b8RLXZlEtV0juZTk7qHUJZ0s0FRgJhBG66GyVdgwGuoIJAXSqMe9x7BUGhdBwJtqRhexg72HnrPY+6zHD4Rw5Mvk4bX4+r2v3Nip9zn2Et35jjaWRZycq4lqjHmo8H/q1b+cRBJ9vJ2unYfaOYIN/rKJxVvSDWtm6PuUUxO4LUugG758sdnr0T+4CncsGFD2rDh23qqn5O2IeRvJf1X9xD2ULDKMJ6yPNDuKui/ugefcoNTd6mp6H/F9A9A2AoIjfnqIHOnOn76F1pun8FhSaWWHGsjijr8s2gJon9SS0hp9LSAxMnJHuXEkqtD/7y0i9ON3EPox2qF/aNdLNt4gIaTjnmZV7x7bm8Sl4/NOyjeDAC6znwaGR3RC20J/uS6Gb9fkICPngyE9ucA4vXoX083Yukd42RjVQccYnO89i+0XGmiHmmW1LnaaCmL/kELo0cd3JD0x6XwPNyFfX8cSUTqkWZJnTto/CHTmKQImFuh/MkhFJNFkasVyt+D3/9++v5DD2VwitPAeW/iEvK/kv51ydgu+L4Jxr8MeD2SVzr+0toaef8AhK2AkCqRSiTrwt7IgCpVNhI9GZZV5ZfmNXtAYanWaLcUVE8i0ZMR/QtJKro06Teg0D4xJ18yaABCtlA9iURPRn/6w6hNTulSFbxy5ZCI7SE07x0MlYBEGgSGDhjSQygHVOxwinoNFAAKeOSdhtKuAc+uev+uZ//qmSjfUFVyVUQjaetwQJUqG4mejP70Z+NavXqIRXU4oEqVjURPRvQvJKnoUkir2QMKSzXxCuIgBCZAfSdmqItmqqZc61V+aViuldo5cUXyRw+dHBCxO0FVJnUrB5aDcUCEXwwaHR3T+NiYXiuDCd3YqHkIN2SPP+VanrO7CPl5O5QhX9pG+0ijzshYBpQEk/3kX08Z82LqAcQpZGrQtRRUTyLRk2FZVX7z+QGFpVqj3VJQPYlET0b0LyS5HJ+u+6XXtABCGGV8NB0KBjNQKAeJX1ywsDd9YYF5rL8gbfh8bUPraR/2TNXHRTnhFv3f+PSfnJwSJYtx9eOs/LLy8VegaV47u0xajYt59DL4o4ev8YksA3fYQzgyVj5dJ23Ys00wmT2LGWhe3/5xYpvyEfIX+mc5+g+AEPxL/rlS+SP/6VK0l63lyZ/cB+q2bgiQMwDXBHMVgBOgqKARQO/bsmQMQKgXzRfwZ+kGANS2xhLlnwByGPnHO/P9hZ6VbQr7Rx7TsNDjaur/603/8BC2AEIsFcBjAcMMAcEf4jBaOT05afmTsrSAZ+S5nVNWp/H8pLYpz8uzk9JHbg9tT0zYX/R/s9AfngmO/dUcfyhvv0yMuAdtoty5HAWQl/8IEutlZnoFeGm1XGLd423EPin8+Y3wJX4t+xdZC/4P+RceWL7+oxziIIjq1Kujfylnq13+dILYCf5bIf/RBlxt/vP44FrhjwCELYCQhk9Du/DTjCSNJRUFQ361Ac/UyoOzSoQWb3zhgf2hHEuETEf/uldGDlcE/XXJh3RwYA48GPxXlsFD/ooOyTpHtgyE/hF9Hfq3LB83ViDC/hTZWSv2NwBhKyBselfIJPzGqylWZ5SFeexqEAWJtuRGL45s1ldvCy87zeCSRt72c+HUp8zYmu3L9SB69xyBKMPo374IkGkW9CdvKJ8VegT/mfw6uRNahfzZZDb0T+hftVXUIQRHuL0Ad58yn2HYn5vX/gQgbAGEyuRl6YwfKc+eh3z9Bo0sQ3dpcAYmCiZFwYgBcnUNLJa7pFDG8ui/AGZVQEF/m5gE/9mdiU5WKG8EeUzbUnvIH3UTaWYGX0Aw8xC6OGlpACDkL+RPgF/on1WlfwIQDgUI6RX0MyUAE1OYea+VzqbF4NhnvwAoAfI62WNod8RhyRgfS4cSlmULm2nZ3VIKRMvsS2dl0T9nobr8FfQXegT/2V7HkD/ontA/6qHhF0FC/4b9CftL7LA0/ghAOAQgFAXrvAxqhOEuB5H1Wg7kYfkN9z3p3VAcAHOrA/hxlk2lbW1msIdyW6rKYLNRNwOi3F70T/oF/YP/Qv5C/4T+LbYH9kKWdbO90DJv06g/ZRUm7I9t0aJ3vD7Qt9rtbwDCNkAoBzvU0IoQySeAiucuM4hdNCoCSPAo3r7CWCJ4snFX87Q9J7x255uCQfQJLyK8k9F/uVgVtAv6Z75zvMbtBlnZB/8VLz5PZof85e9dh/7h0rnp4NC/dohRdWzYn7VnfwMQtgBCGlnuYSOogzKVmagYGPvcF40zQvP2VUub9PZx30VeRuasrYBH9hf9G03Muxr0L17k4D+lhRgu530XsBzyl5fRe1YbQv/ovq/Qv9WBkGxraL/EXoX+zfrETSpXq/0PQNgCCNUTA49U8Urp0q8Kil+eIFhpem8K8/D7sQom/RIymU7aMEUlcQGZ0X/QP/iPchXyhwlk6B/wQ+jfssIU9qfh8TUHTdhfOq/a8UcAwlZA2NGlWyhgeiE62LwOA83PiXkPoeZjqdeDmBLnoECh08h3TbFpugaK0b94gIL+wX8hf3b/ZOif0L9hf8L+Xn38EYCwFRCWGZjMSG3W0YyDOdWjZyCPxotud6SxRwXLNfJnrnieVJZ2DXRKXZZH//QMNWlePKigUdA/+M9NwkL+8nKgLAWG/gn9G/Yn7G8L/ghA2AoIG0DD7TvJnjwQmfsDuc8gA0ccCClfLOE+DfV6ebBXA0AcotA7D6P/CugE/YuhJ+gJ/gv5C/2TL/CvJ4qhf8P+hP2VZXM6pwSjmOMq4xTFHwEIhwSEnGWLsoEBzsAEwM3AHA20LSfDa6XLzE3ieyDIfTB6khj1MXhoU0LzfEX/SsugP3gj+C/kjzok9E/o37A/sooU9tecBcAb4Inl448AhK2AkJdS01MHRaxx8RACGGZwCDBnZQLqTGkTMFoevYR5KdQYOXscASjd9TY6443+lQ5B/+C/kD/IQugf072hf8uqQdifvCJX9vwbYA77Kw6qpfBHAMIWQCiblwno5K5B9d7lJWIBc+rNg5IuoEXBIesxn6E/UKJ1cJu8LW8YQETd6J/gWJU/vaekqwp90J9LAoW/gv+o+Egb8EyhD732GspELuRPjWnoHwFYoX/D/qw1+xuAsAUQwohUhsSUJfNzyJPHUs5TxzQ6tswnblz1cMlzWB6Wi6eRx2e0Py0vM5tsyKL/PBvOtJeZn528DPo7Xgr+yzwi+ywpTxaG/IX+Cf1rk6SwP9mjaDY/b0XwE8lVbn8DELYAQgFiUBrGCLqvj14FDeUAiDARDA3W7fWbqtkYUen4NiROA+W8jlaHADD6V89g0F8nCsF/Nnmi91yUNeUo5C/0T+jfsD9hf9VOmHNpGfgjAGELIFRPHVzntl/FAJt69Dqyf1C+FWkGikBOnnN7WzI4FG8Wlq6wzOk8OLmuzdRyGmAx+g/6B//JXt2QP/OQQ0+E/gFPhP4tDoqwP26FzdtQev3C/gqeGIQ/AhC2AkIDbTBE2RgZQGO6o3v/oKAzcDHGk7TUg/K2gyF2TYgKr3o1dK+C3+MERYey6J+gPOhflF3hK92OILwU/BfyB71DQ8iJZOgfXbkJ/avLw2F/3DawsL9YVSD+CEDYAgi3bNmSNm/ZnDTckrZstr8tW0qelaOO/PWpsxVlm7emLVs2p81Sb3Pastnim9kH8ly7OR79B/3BI8F/IX+hf6gjs04I/at2J+xP2N8BNmJY/BGAsAUQbia4M3AGJaTEBUhTALcVII/gjSAvA78tafPmXkC3eWtR7B4gStsOgEb/vSAo6A+aBP+F/IX+ATgM/Rv2J+yvOZKuEH8EIGwBhHClYjlOPXub8wlX7tVgKJu5ZZ8CXNB+j6CmpbzL+Lwa9M1b9E5DLu3gua4uEaNdLAuy/7zcLH2UpWX2L8Zxi7Y3TP/+9+LAhixBuv7pjRq2f99ev/7Vy1ro5+v367/t/RVEb7ETclhKJW2Ho7+vj/7p2V0p/X17eH9MArZu2Vr/Ljf+vv4w7x/85+/h7OV/T8/gv+C/skfK6YVlyF/ov+XZn6b8hf7jGYGbi/8CELYAQgAx7MnhUlVmfNmn4wa7QyMFQGf53MsjYQF6Chh0CVA2RTsgqfvkzPjhOetf85ttl/7x+zBL0j2H7f2jPQGTvFuRv9n2G3HGNWz/uT3Z89jbP+lHAJvrD+ifv21Q/wqACTD1RnZtu0kj7qmq6d/sH4BV6Gfv39a/7tMq9M/t2fsXgD5c/5lnBvRP+uV6wX9FzuRk/9LyR/oF/9k+1Bb5b/I/6Rf853XbYPmHjs97OZ39CP4L/hPeaJG/V8v+BiBsAYQQYPzpfr+tJuQd/Ui2ATmUd/Ps0z4Xk6+qqT0bqig6ec+HpM3rV+J2SMX6FiXS0YurCUQ6tjEYClp+31ZdPhKFDVDR0j89gqXPcmABoFIYcrN64Ibpv+39xQMnHkz8Njt80/Pe/A3t779581YDwPr+bf1X79mn/+r3mVcYz+DdV/L+aE8Apo1PW/9VeZ/+g/+W5v+28a/Gt8/4t9EfB8bEe2xAPPhPJ1jUP230r+jbDf3Xpn9F5yyhf4L/gv9Upoazf8PqvwCELYBQgJUsGWONHh4pnRXK3YNiHABiOFMkoEHaeaq4/ItZAZ7hEqW0p8+jPSoBAKaOOzGa86Wf/v3LgIuHkL9n6f7JTAyb/YvLH+3xDiMDv3zX5b4/9v1t3bw5vz/7Zdjsv+39edCHz2s4PP3r5zpycAjLRJK/Avo3+9fxoAfTll/c+Df7b3t/Fejgv+C//vIf/Kd7jYtchf6jrIAmsv1oCf0jKySh/1as/1eL/Q1A2AIICUww4OrxUdABkIavjFARF9BmSwXYl2dgqiMeHyhyVeYIpT0IoCwRlnZQltsSL1+5yibn28zR9889dfJ7DHQu1T/qSXsD+lcAsmUAMNVnff/+t4kXs/H+erCGAIlGrb7KR2k53PvjfbduNQDHd6HHcQXv75fE8rssg/75GfwGLhFtoYcVHs96/Nvoz3EM/huO/5v0h1x5/g/+C/7z+rdN/kL/cZVpZfIn+jT0n9jYfvb/RuW/AIRtgDAbeD0pLPf10FvmwJQeDKDhN7AFcGeGST1t6uaGkafCyYwh4FKBku9DDN2AMg8myxKvA1tL9C+gzQBUvz4UsG5W0DhE/23vr+3hkAW++qL7MhFf6fvLKdvsEdUvyegBmJW9P98Xv2cl9G++v4zHls0Dx7+N/kobA8cCMIP/mmPj+b9JfwWIRf6C/6CTiv4J/iuT8NB/eqgOXsKmjPWjDXXTUvIX+g/8VfRP0/63yR/t0Urpv1L9F4CwBRAK02PPi90VqANkoEMORGg8C4kBSBUsMIV9eUQumTbvoSxBb5V9idXyMIGmHCRBu/xqSQE5g/pXD6F54ATA6TJBbqPRv+bbZdlcnnb966GIrerBtP2R6HtQ/23vrwBus+3BJF0G9y+HSZZ4fxWYLambva4qgPI7VvD+aA9jLF6EFdC/+f5oD8vkK6V/8/2D/5T3gv+gQ9r1T/Bf6D/dp9jf/jT1f+g/2A+zISvQ/6vF/gYgbAOEAEHw0Niln2AaBSFd3Q9nHqUMlgBQcOBDNqEbWDSAgmdZT5ewHGCgkicI8t5HeV5n94P6B0PiTwDNEP3rEiaBmTMy1j9d/vKbh+if7zWof9KP9dr6r2afffrHJd/6vurRY7uD+sd7ePo3+xcALIdoqECpIGzfJ+hibQwz/hhfzribs0H9rcYbHO+W8Sf98BuG6T/4D4dAivyRfuST5vhnkMXxaJG/4L/Qf7IffEj9H/y3tP5tkz/SL/TfyvQ/6dem/wIQtgJCNSp5SbZbfzgbS1UCQgAWnBER8EEgKJt5CQAUfG3ZqheqYoAEaNj9gxQMbRPP6HPaj95T6E+osX8ZcLeE2tY/QAqAxaD+dZOxO8Rg74aTlv36l3dY4v3RHn6jvqsuGS/Vf9v7C2AFgFsh/Zvvv2ULviKDQzQcJ9J+OPo33x9tEbCCLzI4wXijjxb6N98/+M8MSvDfUPIX/MeJnOrl5cpf6L/Qf0UH65Yktan97R/kTVeYzJ6bI4l24WbhvwCEbYCwyytQOtUhEhlogDUDfQKSPDjJ3iRbZmUa4CBfGYMyAxwobwAq6WOV9C8Cs2VL6q7R91d+wfep1+b4x/uroRg0/gT8pFMOV4n8830Gvb9MTFex/ov3X5r/28a/utfVbKkAtrC/4mS5WvgjAGELIFRCK2gTT48wI9IEigR8ZUmRSwlgcgV8XEIuswcqCIRlMHUmQq8dwtXSv96jx1PGNR38++/ffyD97LHH0v79+8V7udT7nzp9Oj35L0+muUNzulfPFMUg+s/smU3PPLM9g3COge8fHsfVSH9dQq7pHu9vRspNxl6t8Zc9tjiV2cJ/L730Unr8icfTxMTOzMfKr/31z8ys8XznTN7iwnFnSP4/ffp0+pd/eTIdnIM8qRwsJX9eTmRPWov8US7ZL0P2L322vL/2Gfp3rdkfeuCu9vjPzs6m7c88owcdwfMt/CfytB31azuxWvg/AGELIKyUlnnzoMDo2dNyW3rlDBch/9wzbCsvS2KfoSlRKeMSsxgoKD0DogSGrq2brX8KtL6nvZd7/+ee+0V697vfndatW5fWr1uX1t1yS/rt3/7ttGt6V5kB2fufPHkyffZzn01vfvObpP6tt96aPvjBD6afP/usLkmT9jIeeqL7/e9/f1q/fr20/Y53viN97Wtf032ea4T+YnT5rlwWd/Rf7fx3o78/PCB5i0Ef+d+9a1d63/vem3n4tevWCf9///vfFz0hekT4XXUPlq/e/z7w/Lq0bt369M53vDN97atfVflojP+JkyfT5z73ufTmX32zyNNtt96W/qOXp1Wgf2708Q/5w1YaN2GVQ5DF/sn36/Mp6KXt76G5Q+ntb397Wv/a9enOO+909sPat4vR3/++96V169eLfMAmfBU2gTqyT//ve//7svz9+3fAhpg8ceuVk7+b1f4HIGwBhFC05Q93MumhA8njyV0yEUNTuABtCh7JwOZVxOyiZ8+g7XXJ/XXdPWr8DTdv/3qIZqsC4Mb7j4+Ppze96U3p3/0f/y79zVe/mh586MH0J3/yKTFmEOyjx47aGOj7f+lLXxLD9Z73vCf9/d//z/SJT34i3Xbbbeld73pXOn78eN4HCPrPzsyk22+/Pb3hDW9I/+WLX0z//ZvfTO++812iCL73ve/luqIIbNan47266K8TiLXLfzf6+3PCVHRN4b+DBw+mt73tbWKM/vIv/jL94/f/MX3jrrvS61//esnbuGljMWTz82l2dne6/U1vEp7/ovE8ZAPAUHi+IX+Up/e+573p7//n36dPfPKT6dbbXpfe9a4708vHXw79l3Xyzat/b3T+b9O/2FKBfZ3D2N9PfvITYh8wabrzjjuz7aBXdWZmVuTjjW98Y/riF7+QvvnNb4rtWHfLuvTd733X6hf5mxEb8qb0K7/yhgR5+uZ//2a6E/J0yzqVJ9p9hjex/Q9A2AoIyybSoqwx07CDAZ2ydAymZh2Z7eQZD2c6vWHeT4jZBer7WYa0tzr61z2EXDIudMD733vvvSJcD//g4er9P/Unf5Jeu2592jg2JgYPtH1y25NiBGGsTp0+lbpGf3j81q1fl/7qr74kY0D6f/jDH07r1t2SHnpIPSkYo7m5gwISoRBmZ/eoMV3l9BeFmz3ONf2pjFcz/93o7y97CHGoqY/83/+d+8XA/d3f/V3RL/OdNDo6ktavW58+/omPZ0AIGfnQhz4ssvDQ9x+y/E6am5tLt9/+xgSe37NnNuc/+eS29Mvr4Ul5l8gT+//a1/5WvOl/9aUv5UMs1G0IQ/+F/oe+oP5V+bp29g/2Ax508uAg/tu4cVMCEIRMvPPX3pnuuAMewqLv8Ds//OEPiTw99NBDeT+/ysftJh97shzi7s4PQ57WrUuQJ/YvNuRNWn82y9O1e3/8bvZ9LeUvAGErIDTl5xW1nBDVARJBEOCny786EzPXNGcMLkS5fOFD2jNG7fk8nPVJVzQY+ibvXwEhBLr3/b/61a+m3/+D309Hjx6rhPd73/uuCOJ/+2/35vf/+t9+Q4zdj3/0YxEQ0v/okSMy64MnRPLm59OpU6cSlpN/4zd+s+wRsf7vueceAYo/+MEPBIirkJHuDLmkf/PTnzTpR38o9nh/yqw3Htdv/OUUPu/BJOAy+X/k0a0JYHDu4EGVA9M/k1OT4vX70Ic/JHKDMTx16qQAvN90PM+xx8QLxvKHP/yByVMnff3rXxd5+tGPfpRBIuofPXokvelNt4snRAzqTa5/SIPg/179ezPIf74GDXw4wP4eOXo0veMd/z796q++Jc0dnEvvfOc705133JHtAXjgZLYJv5E6nTNaZvrv3nvuTevXvTaJTRAQ2TEbsj795m/8hmwxEjts/d9zL2zI+vQDyJPJKviLvNYvvNH5LwBhCyDkoELZqtHkgGMTN+MWGqPIM/bZM8TlehXu20E7sjTZzR5B/TC8bQoX5iwbxFdL//7amWHf/8///C8EEI78vyN5dvTxj39c8uD2b9L/d3/3d9PrbrstnTl9RmiLpWjM7P70c5+trn1B/4/85CeybHzP3fektUB/f+3BsPQn7yEM/r+28i/XHgEQLkP+v/KVrwh/f+ub38yGbWJiXDx7n/3Tz+VJEPXPo48+Kgbs7rvv0a+WdOfTxz/28bR+/WsTNsvLeLv+IU/YinHm9OkY/9D/r6r9g3cQNqTo/FNVIeYAACAASURBVF77+5d/+Zeyzegfsa+2O5/e8Y53pDvuuKOyv+MTE7Ia9dnPfa7H/op8rF+X7r7n3gzqaENQv2n/H330EZG/e+65O8tO3qt6k9r/AIRDAEIoVCpLGkkwhw4+LmjVcix/YgYgn2ZzXkG5qBpp5xXMbWZFYx4KfOpO8gg2FVDe7P3rvYFFoNve/+f/+nMxRhDoUydPZvr/9nt+O/3yL69POBHZpP/HPvbx9Np1t6TJqSmpv2nTJhHYu+8ygXX0Hx/fIWWf+tSnTNBXN/2Ff9z7t9Hfz3Rz3bwFQsFRk/7B/yuX//wlnyXk/0ynk/7263+bvvTlL6Xf+73fE+D30T/+mC71Qmd0ugn7CW+5ZV26+667VGZE7+gEc3xH4XmOKQ5u4bAV5Ik8Qv3z8Y99TGRk2uQJRjb0n9Ig9P/1tX/ZQ2h2tUn/n//rv6b1629NH/jgB7L9hYcQ9sPbX8gHnAR3313kQ4HefNoB+bhlXfq02AS1v7AhOOR4F2xIg/9VntanP/n0p0QuVoP+C0DYBghlxgwDaADNDpLIFQqOQZRZCogrAI7LTuZhEO+g1lPFW5Qs2lDm1HKJr5L+uQcEoJi0HPT+e/fuSe/8tV9Lt956W3rs8ceEJnzm7W97W3rLW96qV2g06P9nf/ZfRdj/+Yl/FgH9zv3fkWXhDffdpwJroBxtYaM+BP0DH/hANnKrmf7gR+GnIejPWfhq4r8b/f3Llgrog/7yf+rkKTl9j2Uq7Jf91V99c3rooQfFg0f9853vfEf4+j7wvMhH0T8H5ubE4P3hB/5QeB7y97a3vT295a1vURlo6J//+md/Jv088cQ/Z5nF9UVCS7TdkD/+btF9kLVG/8F/PDi49vT/lcpf3lLRh//ggPmd3/0dWR2amJjI+lz3EN6RJ/zgv/v/n+/ItgnIR9P+4LolbKn4gMkH6sOGYB/7hvs2aLuuf+wjBLgUG2K8nnn/JuX/AIRtgDADQc4MTZihPM3jQkWH62Qk7mYxej+RPgMFCSaUvKxQrcyWljNDSdvFOHAPIYER9iHeTP3T4LW9P+5Z+63f+i0xXHIiskH/99rVG7KM1aD/Rz/6x+rRmJ4W4cUyA4znN77xdRVmR/8Xd7woxu7TNrsD3ek1kTFYZfSXd3LvL8a6ocTi/YssUt4yyDF+uFbyB/nYupmHrria0Cv/hw4fSnv27En/+I/fTx/84H8UfpflL/y+bkc23sNIff3r3zBdVJbWwPOYBH36U59WsNadT5AnHCpRj3v9/h/944/KnqppyNM1fv+Qv9A/S+mffE+n2QNv/777vX8Qe4FrYLz9VQ+hO1TSnZfvy6tN+EaesIhunJ9PO158QeTpU5/+dOZ3XAcFefrG19WGePl/4YUX6/qrwP4HIGwFhAbgBPEXhUnGyAzI2XUGEnhOFTpnInwG+XgOt/ZLHTHMnD1yZk1v4eroX64NcAav3/vjypjf/4M/EKB29913O+G2PZXdTvrkJz4pRm3Xbr2f0NMfdw2+7rbXpTNndPlr586dajA/81lpy9N/69ZH0vrXrkv33ntP8XSI92x10h908u/fj/7qvY33p+cr8xa/Y+33AXsvnuiG4oGlgVmO/MuESb6lPTz9jxw5IqcicXL4xInjwuM7J4znP/uZHv2zdetWkZ177r036x+5omP9urQb8tTg//f9zvvT614HeeLm+9B/HFvKUuaR0P+qr2nTxPZdPfunDoUyYSL9T5w4kd76lrem2153W/rBD3+YNm3anDZv3iR/b37zm+W6JtxS8eyzPxf9R5vwmc98psf+Qj7gIcThK4wzxhb1saXiM5/5bHVFGfp/5JFHtD72HK6S8Q9A2AoI4fWzWTYUJsCbML3uF5ITwzQYIgRWV2YLjBdQB0bSZ6BcDei4r56AETFTyopG4qu//9Onz6T/9J//swC4r3z5ywPf/66770rrXrs+PfzwwyLgpP/hw4fFOL773b+uS27dTsKXTHDK+Nd//d3pzBk1ZqT/17/+t3pC7Ac/rL46s1bpX/htbfLfjfz+//f/+l/prru+IXujmvrnIx/5v4SPn376aTFikKPbbr1VLnlXnufnNbt6onjdLemHPwTPq/6566675Pl/+qeHDUDq+B8+/JLJ07tD/4X+V365Ae3foUNzwr/w4ukfLpq+RZwKsrUC+evXpY9+9GPC37iq7LbbapvA+wnhVUcbP/zBD7L9OX36VPrlW/WOW0yMvPzBhuDid5Unc+6QV25S+x+AsBUQcqA1LIbDgzaUIa1KVurYTAlxcYUjje+S5hkUFbUCFVXQ7noT543grJSzFk2vrv4//4XPizB+8QtfVMM04P23b9+efvnWW9Mdd/wHuUKAtPmbv/nr9Nr169KXv/wVFWaj80c+8hFZ9vred3EJtdL/4IGD6lm5/Y1p7769ZggxDmuX/mud/27k9//8n/6pyMbY2Fg2VPi9e/ftS295y1uEl0+ePJH1D3iel+ZS/xw4cEDq/cqv3J727d2nvN6dT9uffUY8IJAnXFnDpeG/+epfS59f/vKXM1BczfrnRh5/6rigv181U/uHq8UAyHCVEq5/+eEPfphDfJDgrW99q5Q9te2prP8/8pE/Et7+3j98T+Vgfj4dPKjyAW/7XsiHsz8iT+v0Emraf9T/lTfqvZ5qQ1aH/Q9A2AoIO/YNUPPmcXnXL/lmTx9BI0Ee08Xrwn0S6nXUchX45jNIq2dQZiXsYxX2j5viMavDJ7NwrcwnP/lJ+frIJz7xyYQlrW9+61vFm9qdT1/5ypdFoHFC8lvf+lbC6WL5Usmdd8qXShSYK2337t1rX214ffr85z+f7rnnrnTnnXfIRuHvffe7ztitXfqvdf670d8fl7FjKwR4/C/+4s/Tgw8+mHCP5q+989cMtH3F8fF82rN3j3z55w2vf0P6wue/kO66+27jeRg15Xmvf/T6Gv1UJGTtYx//eLr1tlvlsurj+FKJ6JzQf8Inq1D/3uj8v1L+w1eu+KUSrrohxKFFfskH8oFrmHAaGd5BfKkE9KBzBxMFyNPtt78pveH1r09f+MLnE7YzoT62HOk+d5MNWyb39kfbunnsfwDCYQAhvXy2r0Bm0VkxwKukYKJ4/xTIyaxTPIMF+GGGwT8VRB4O0SVoyUPbHf3sHdrgLJ/Mtdr6/6M/+k/i9seVMRBK+f7qLfZN43W3pP/zQx/KBz5AixPHT6TPfPYzCXtEACSxKf4P//AP0/ZntpthrOm/afPm9N73vlf2T6H9t7/j7QlGMOhvExbxpq5d/lO5vbHf/6lt29Id/wETmXWyZQLLYOD///E//q6v/sE+qve+9z3iKcT3WmEc//or6j1v6p/jIk+fFRAJ+bj1VpWnZ7dDnla//rkZxr84EmzLUtgf09+D7S++TwxAyD3BtJ/gf1wnA5sAfsc1TZCPbBP62F+Rp/e8N8ufyNNf/7WtKq0e+x+AsBUQ0k2tilFBhMW5pwIMZALKmYjU88vDtvEcYI7CLYDRNqfzeWVafC8ZfejMAwxMxRz9F1qcPnkqPbltWzo4d3Ao+u+e2a2gkTfUC+3NM5gVLMY76B/8d2PKH5Z+f/aznya5XgM6grpngP7ZPTOTtm9/RreqoM4S+uf0KcjTkwnXb8T435jjH/q/6H/wchv/k14S9uF/sQnbt5tHEG0vrf+1PuRJtxddaf+KAQp+aOuf7yOY4Cq8f7P/AIQtgFA/pm0zgHxth33HEkANg2Kgrsy8FTASHEpoClvBHRgPF1orA2KQWQflcjULTi1JfwpOhFGif7u2J+iPCYTwSfBfyF/oHzPk9eQ99K+zQ2F/Mo8oqAr72w9/BCBsAYTKPFQ0BIAFyLEcwJB7/iQvewetbofLmEibVwp1/N1FPc9YPS5VZwAa/We6i/fUllFsz2XQn/RwfBL8V+Qu5E+X20L/hP4N+1MOaoX9TQEIWwChePTgrRPlqV6Z4uVTg0sPoQI9BXF6AbOBP3dHUf1sAXxYovEgh/Wif3WnB/2VDrzTsuYV8g5CjQf/EQyrN1nkSLypzDfZzBMK0lDLQ/4cHUL/hf4P+yfbkla7/g1A2AII6W0SA2t7ENTo2ib0atnXeRJhaFyZN+C69wGHRnSPoJTlulgibjxr3zeV9mQWA+MV/QsQz3TrA9ZdWdDfASHZexL8F/IX+ifrhawrQv+G/Vm79jcAYSsgdErTgTwBiALOykxaNppiedd5BEXhEMTRPW/P6Rq+enV0r2IDUIrXMPrPSjvonycZwX/1sjg8eiF/6uUM/WN6lPo59K+uHIT90eXhsL+6n1ImQTX+CEDYAgh37NiRXhx/MWm4I+14cYfEkW7+jffkjec6Woa0tiVptvXieNoxXrf3omsr+g/6B/9BDkP+Qv/UetLr4NC/TdqE/SF/hP0Fb7TjjwCEQwBCMNW4gDcVMGUuBSk7XhxP4wbyhPle3JEA5nzeiwb8apBXhFfra5ptN5Vb9E+GBm0RD/orvwX/eVkDYAr5C/3jeSL0r9qWsD9KB+hNmVya0yXsL23qjjhU8poWQJhSSpfxjwt9nGVao/xb8kustFS3cNlVcdHcGPMY1k/nalWk1C2x6L8fLS6noH9hHU8h5jKPIfIZZ8i6DEt+iZWn6haC/qRaTSHmkoIMa+qxVh2WuiVWt8784P/gv8I75IqSU7jGlzHO0NdHvOSXmM8t8eC/G4n/wkPYCgiNoTNf50gtA1V2lajq5ZLLRSS0gpVIkGsV0cpZOVK16ySwPFPXkFR+OvqvScaUEChTqdAyZ+VITd0qu0pU9XJJ0J8UN/oYZSTIVAr6k0qZJDlS8RWraeaAOoWaonzqWpaSwJf4fLTuy9xPqLKrhKvkng7+b1DS09nTz+cH/R0HVXxVE9PTb0C14L+aZJYKQNgKCI2hGgzUi+odEzIq4eUG4ZcQase7bCJnRf8VHYP+mTOMLo5jGA3+EwBDcjQpVtK9sZ5nQv5C/hybhP4pxFBZcRLDqIRh/0iOJsVKujfW88x10j8BCIcFhI0x68fmpQqHk6GVMMnQqdie9rzGKQ3nWE/9XIIIO2BohUwyzPXwRM7UytF/RdFmoodeVQXSkqEVMsnQ0bynvaB/RdFmoodeVQUSmGHQXyhAcjAM/stc08NPIX+ZNv0iPfSqKpHBGFohkwyD/zLVeuj5KvFfAMIWQHjZDUzm4zyMJdJT1sjQZJ0pqTqrx6MR/RcClVihO2M9ZY0MTdaZkqqzgv6NqUHwX2GQEiPXlbCnrJGhyTpTUnVW8F/wn4NJKYX8FQEpsSJ3jPWUNTI0WWdKqs5a8/IXgLAFEJLhitet5NSSq/lE+pkBexiuFnLXmjDj4HS/hlxtK47+M+WVnv3I5kC+o2DQv2JoUMYTz8eNaj7L4sF/Soj8r6cRyRb8V4tdTjWJ5dM+TkLmBzOrBv8pnfK//cgW/OcYx0ebxPJpH1+9/BeAsA0QCh8oM+BfzxYll0zlS5lnD/UTQqvuZ4Hag2tHoprGv67E4r05rmeNyoO+ntWwrOjf00aIVUgoRVreKAn6C5WUNoXRCulyTAjn61mJZQX/edoIsTLplMm0vFES/CdUatKukC7HhHC+npVYVvCfp40QK5Mu+A+kUPo0KONySS5PR+bdXPY/AGEbIHTjWqK9A18xiyU4Wy3PaUyLXRsS1XSOuuLm82RQn4/q+RFLRP+ZIp5UQqeKNlJN6+Zo/0etnd5C5ORcS1R9uF+gxbm2Pahp+VcruCeaUfes+0U5156P/jNFKgIqeVyZRDWdo664elgSvYXIybmWCPpnilQkVPK4MolqOkddcfVw0N9zWiYNyJVJZongv0yRTCdElDyuTKKazlFXXD0sid5C5ORcS9yM9A9A2AoIbZjrIPOIOv76F1qucErNHCypc7XRUkbW9TzIUv6A6B+UMKo0iJOTckIrp0r9xn6loL+jpanNJm09FaW2ZFhuozAng/4NTiNlQv5JCZW94L8sbyF/GboJbxijNPkl7J+TmQZxcnIZ+jcAYSsgpIhm8hbd1YwNqFJlI9GTYVlVfmlcswcUlmqNdktB9SQSPRnRv5CkokuTfgMKS7UGXUtB9SQSPRlBfyFJRZcm/QYUlmoNupaC6kkkejKC/kKSii5N+g0oLNUadC0F1ZNI9GQE/YUkFV2a9BtQWKo16FoKqieR6MkI+gtJKro06TegsFRr0LUUVE8i0ZNx49A/AOEQgDB/yqJxF1AZ8jrmxzvHL/fzBrjnWLFfH9x/2K/MNcEom0I6x6P/QgsSyockVD8aB/2VUv1o42locZISyRwP/iu06EOzXNiPxsF/SrF+tOlDy8xzwX+ZrWDDPF16yMbCfjQO/lsz/BeAcBhA2CM9ztD5MidUIn1M+zoSt4KlhFSEcGAD/YWb1RHyr6dvZFjF6J+U6KVS0L/wSS91+tMt+E8pRdkjPXroF/InJAn901+OQJzQP6F/BnNH/xLqmyvQPwEIWwChp3EBUqbhWThA4bOYYa5WZbhEn9kZSzW0VJ2Zmy2RqnYv8/B5ecAlov8eWpE6FUXrzEL2HKtq97RZZ7Ax1X8uVY1O1SIrMcz9MlLVrrtDleo5l4jxr0njSFVRlCRjSLLnsKrd02ad4RoJ+tekCfpnelQcRZZhmPmOkap2boOldYZrJPivJs0a5L8AhEMCwixMmUlMkJw8sU5vVjOnpOmNz5zIIguZZNsINW9whd5nmjklHf0bZUmSRshk0L9QQGlilOlDoN6sZk5JB/8F/wkFyBKNkMnCfaH/lCZGmT4E6s1q5pR0yF/In5e/AIQtgFDZxU2diixlDJfreMpqZs+/+XGJ5JSrxzyELu6irMwsTTPFkLXqMJdKJKdcJeYhdHEXZWVmaZophqxVh7lUIjnlKjEPoYu7KCszS9NMMWStOsylEskpV4l5CF3cRVmZWZpmiiFr1WEulUhOuUrMQ+jiLsrKzNI0UwxZqw5zqURyylViHkIXd1FW/v/b+7ZdWZbjuLYt+X63bNO3I4qkRFEUKZJf5Bf7wfD/2IB/wv4IgsAB+AUGDAswKD5RD4ZtnCPtfYzMqsiMzKqe6Vlr7cvaOxYwk5fKrp4VHdUdU30ZpEaMCBZV1UarOxFREXJmyScXxUiNGBEsqqqNVncioiLkzJJPLoqRGjEiWFRVG63uRERFyJkln1wUIzViRLCoqjZa3YmIipAzSz65KEZqxIhgUVVttLoTERUhZ5Z8clGM1IgRwaKq2mh1JyIqQs4s+eSiGKkRI4JFVbXR6k5EVIScWfLJRTFSI0YEi6pqo9WdiKgIObPkk4tipEaMCBZV1UarOxFREXJmyScXxUiNGBEsqqqNVncioiLkzJJPLoqRGjEiWFRVG63uRERFyJkln1wUIzViRLCoqjZa3YkoiiQILwnC3DSBnDsAFLa10tevUkH6cmzz0lo7mdG+AlnYumg+cLVdUKz1x1AT/saZPX+YTfsKZGF5Cf5FHvGvIKTxl4xzYAo6lUQz2lcgC1sX1f4PuGj8AQlniMbf6fiTILwoCOuupkYgm+k/G3qhA1EWBUhUi2bPRhBOLd5EqNT6hb/4p/Gn/U/bScYOsuVniGYPIwhnvxBlUan9r/a/r33/K0F4QRDagI/vWMvelvYMqbspid2F9TEmY6IvqoI7qvl9LBfLaP2AamMT62zMnHtTtGd79Rh5LGlW+E80xL9KmBKBMZzMnHviX44lhmn6Ay1+1/7P0ND+Z3BinW1hEs0aTtEx2Vs1/pJLBacRSBDeFYQg4gCMKYdjI4i2wXemeKnzqrHr64to/Y5IhWGkOHcT4puNtEGoLtzpVKP120GKMQm8CM5wbzZGlfhPOIU7nWrEP/FP44/HRIwX2p2Ee7MxqrT/efuNBOFdQUh8Ke4gGVPNfU5Qfa/e1vq3l1zopKtZ0HucdD5ZqFd73Gu1fvo+WXYPuVHC64gK/y2nTti6rRX/xL8YXxp/ffdM0PicocVcsx1TGn+OwMAp0dpipf2PBOFxVxBisp7YErwKp47VMkxbU7TVZWvEy2j9Axvhv1LnjDVneeMV2mAH12ok/iUCGn+DGxp/69A5GzVneY0/7X/ADdiPa/+rGcK7gjAPDTycu29EL5u4BzPGabb9wKCdbu0tPgR3y77WL/wLH3owY/EPQwkAwc4RHWE4WMAtZ9nX+NP4K3zowYw1/jCcABCsxp9rgoAjHAD2XvY/EoR3BWHb0fHm2W+zRcqhbFh+P+8s15oeVy/soEasDynEvGbkUJMCdWRyrell7fTWTryhpxEPy+/cI6pGLteaHldvVzQLak/5n/Gae01Waf2GQKKe3oQ3zQqit/U04mH5PbsS/kBpYJKop8dobYGeBbWnRJaR7zVZpfUbAol6ehPeNCuI3tbTiIfl9+xK+AOlgUminh6jtQV6FtSeEllGvtdk1ee9fgnCy4KQ6FTYZLN6M9HzJg1LbqH04HUsTsXoM3ZNo83fqcxXgNqe1/qFf+GE+LdDIIcPgYWkxt/chQ1s/J1g0v5H+38d/+aA6OPiFR5/JQjvCkJoCv6mMv1CABxqqC7aw5mdUYzFuo0DktY/0CJccZDewkh10R6O8HcoCI/OO8TiH5AIQZSoafyf00jjL3iyOtr/nBMnxps72v8EHoNGNK7e4fFPgvCCIIxvQG0TDeLaOzYZPBTGHmFW9HbUjT6sOpcgnwbHWIKq3B2xvVNLiZCH5TWjz7581Gr9Da5AZgI+4o4fbw0sAds69G3Vl49a4d/gCmSEv0Mx8LB3QqZEyMM2QMW/eZBlfMLX+Gt0CWQ0/hyKgYe9EzIlQh62AfrRjD8JwiuCkDft2Rbt+W2M5LTVdDblqWitPwcaIOwjque3MZLTViP8AQ+wpQNhNIWDoml7fhsjOW01wh/wAFrhDyQ0/oFE58hZvtd5jOS01Wj8AZ7ANBPhhYOiaXt+GyM5bTUfBf4ShHcEYWxCOI0HFuZkrhXtCz27NFGCdv6jz7EiVLTm8im0/kBJ+It/ZWwgcIaAJkgyVm2AoTQsnFg2HY0/gGMWfuJjnmeXJkoI/wIYkAkLp1SNQPwDOGbhV6A8uzRRQvxzwCQI7whCR4l4U/nGDRiclYjbyO81WZeN2t7EMfv1w/jipTk6bI7WTyK+YWNhB5Fj9pfCddFN716UO/FNRVlH+zylrQTe0ZrZ96/130CqN3HMvrb/Qq4Cz9I6E9r/aP+zGTtBl04ijtnf9FGao8PmiH+n/JMgvCIIG58iJPa5275lBF9Hox/Zw43jvGU8O4VC9F5OGVM23bmYJUa/lIhkNLoz6kYXo9re53I+ULL79dpJauP+0YP+/wrQhHVuHOGP3VDSbTInE4DMgex8qugGbYOKvR6dubW3KYNnfpiRH+srXWr8dTyFf0Vg8kj8m+Om8wX4uB3jLFwcM3znOAt1/MGRePCs41nZV3ZWA9eJI+oQjsZL+z8JwguCELMpgSsAf5LFVooRUTYsuqQqHMZSV6DoSZZ6hgtL/XFK//9Aw98ZGMLruksdwIWlTjgl/Aca/s7AEF7XXeoALix1winhP9DwdwaG8LruUgdwYakTTgn/gYa/MzCE13WXOoALS51wSvgPNPydgSG8rrvUAVxY6oRT7xN/CcILgtC3E28hTnieGuNbTubgwdriZ/7gBLeOTFlA608EHSrCS/hPqiQm8GDFP42/My5o/9NHx0BE+9+JQ5jJIDfEJu1/X/X+V4LwgiAE3WF5l8G5GCspV4q3Pwy9LWdmd/0hB6v1J5KMifBPBBKX9BK1yiA+M8HV6A052Lo0qqrN2vS0/h0WGv/iX44dZgiyyMFaHj4samEzn14uVXsQ/kCtIoQsEISt6KGq2qxNr/aO/Mc1/iUI7wrCueGw/WIoVgLUdBS3IqJEfJNCCa+Hl+e81XIblu3pkxou0/obkowz48d54S/+MTc0/gKBAksJoqSMHu1/tP/ZMcOpw/yZfqTCKUtXME9qdPxLmE7GnwThXUE4edcAXL9VEQnhusUVAMxfFHCu+kuF1p9ktoFNAA13SUztIvwJmSRzpdsSLcuIf+IfsUTjL8HQ/sewoD0GXLfa/wKOzpiMV29Z5j3tfyUIrwrCts12NM8SbE7Y2YIQlgbR0h/vcbPj8Jb6aDEHK4CdjQhho86WiOQo1voLoj1Y8CoFwBJ2NiKEJcyX/oR/QbQHC16lAADDCn9HAHDAin/BmoVPGn+Bzc5Z8CpFIBjsbEQIK/4FagueH4h/EoR3BOFb2jDB49iM6SxtLTHCmvSoplzMcUrrTzTSS9zhLW0tMcKa9KimhH/7aiD+JUHSA+vSLm0tMcKa9KimxD/xj2SSnQlJgqSXvIO3tLXECGvSo5oS/z5z/kkQ3hGEGHA565aZOnJHHko/BuAy4Oogp958MJ7Hu46oejZr/YH8wHMHG+1kCUHhXwhtyDB47E/UODV98W8AEe+MEWAT/+qwi6iDxTH7ADIWDKqKfwOneN/BJv4RcdjtYHHM/qfLPwnCe4LQeTDIYO9Mi8yCVNyK3FxoNwhnOX8LHGugftwdsb1Ty/TXDK15uL4g182KmdL6GRsHKyH0ptHeWoS/ozSwSaIldOE5cFw3W2ZK/GNsHKyAbpBstLcW8c9R6tgldOE5cFw3W2ZK/GNsHKyATvwzKAY+DRnKAi7GEbnXdfyXILwnCGm7prtu+EKWGeDbai43vNFMfbg74nCpuS8PgnLeymORGWj9gQhD5TgVbLxs1Ia7X3T2szZaJrIzKOugTzCao3ouOGJ/HwW0RHdpWfpEkZ3La/2BSAFwwENt7o44XGouC3uwNlomsjMQ/oFIgXDAQ23ujjhcai4LC39mWkBjcAVkMxD/ApHAyZwBD7W5O+Jwqbks7MHaaJnIzuA14i9BeFcQzs1cTXBkTPztG2fWmVLJgZaaHZ1mG6jLHEQrPoDWb0hMVBo4EfodWhFlfbteRPgTlnO32bFlvZr9LgAAIABJREFUFL3aEzPbGiMU/o1pQEbjH0iMsSf+xXjT+Avp5tyYROl80fGPxkwDJ8IH9r8ShHcFIYZowJv7ru6dlJS0BUtipko+Ox/pk8Ysa/1mQ1nSgiWh9TskBZeO30ljljVcs6EsacGSEP4OScGl43fSmGUN12woS1qwJIS/Q1Jw6fidNGZZwzUbypIWLAnh75AUXDp+J41Z1nDNhrKkBUtC+DskBZeO30ljljVcs6EsacGS+HjwlyC8IAjjoXftWUC5yavH2zv8t7vZAFoOhbt14PrDXRt1ARddWRy+1p9YACi2AGqHsfAfSO2wYQynDygtDF/8Syw2mEXjDmPxbyC2w2aDZXBO/Ata2TGMcVlgQ+MOY/Hvs+GfBOEVQbiMHjrQcRsNKh99iLnG/dlwa5D6IDztYD+4UW4Wr2XdlpiFWj+QWFES/smTFZ09buLfQApjD3gs+Gn8OSTa/+zHkYGj/Y/2P+fs2Ldgf/OM/Y8E4R1ByBinkJp7eDSe7PDRDBtlJUHB5tsZWoedUU1Gt+mU6pU8WN4XoEDrX7ACOgXRmkzYwyvVS581gc7G/o+isnVKjyiCjfXCKdV1dVZSlqNA279CQ1AVRAEZLGAPW6qXPmuCOhH+FRrhH3gURoEysME7OKU6+kBrTVAn4l+F5jPknwThRUEYgylIMgcSjSfUrKmeyRiz8cFENE2LEH2bHbnzgnWZnslY65/IApJmEQr/RGBgMpHZALSmeiZj8U/8cwRAiWYRJvu0/xuYTGQ2AK2pnslY40/jj8efBOEdQTjoQl+dciyFhosaRnYkl/dY3J2IqA45s+STi2KkRowIFlXVRqs7EVERcmbJJxfFSI0YESyqqo1WdyKiIuTMkk8uipEaMSJYVFUbre5EREXImSWfXBQjNWJEsKiqNlrdiYiKkDNLPrkoRmrEiGBRVW20uhMRFSFnlnxyUYzUiBHBoqraaHUnIipCziz55KIYqREjgkVVtdHqTkRUhJxZ8slFMVIjRgSLqmqj1Z2IqAg5s+STi2KkRowIFlXVRqs7EVERcmbJJxfFSI0YESyqqo1WdyKiIuTMkk8uipEaMSJYVFUbre5EREXImSWfXBQjNWJEsKiqNlrdiYiKkDNLPrkoRmrEiGBRVW20uhMRFSFnlnxyUYzUiBHBoqraaHUnIipCziz55KIYqREjgkVVtdHqTkRUhJxZ8slFMVIjRgSLqmqj1Z2IqAg5s+STi2KkRowIFlXVRqs7EUWRBOElQZibJpBzB4DCtlb6+lUqSF+ObV5aaycz2lcgC1sXzQeutguKtf4YasLfOLPnD7NpX4EsLC/Bv8gj/hWENP6ScQ5MQaeSaEb7CmRh66La/wEXjT8g4QzR+DsdfxKEFwVh3dXUCGQz/WdDL3QgyqIAiWrR7NkIwqnFmwiVWr/wF/80/rT/aTvJ2EG2/AzR7GEE4ewXoiwqtf/V/ve1738lCC8IQhvw8R1r2dvSniF1NyWxu7A+xmRM9EVVcEc1v4/lYhmtH1BtbGKdjZlzb4r2bK8eI48lzQr/iYb4VwlTIjCGk5lzT/zLscQwTX+gxe/a/xka2v8MTqyzLUyiWcMpOiZ7q8ZfcqngNAIJwruCEEQcgDHlcGwE0Tb4zhQvdV41dn19Ea3fEakwjBTnbkJ8s5E2CNWFO51qtH47SDEmgRfBGe7NxqgS/wmncKdTjfgn/mn88ZiI8UK7k3BvNkaV9j9vv5EgvCsIiS/FHSRjqrnPCarv1dta//aSC510NQt6j5POJwv1ao97rdZP3yfL7iE3SngdUeG/5dQJW7e14p/4F+NL46/vngkanzO0mGu2Y0rjzxEYOCVaW6y0/5EgPKog/MFxHD88juNHx3H8iallG3JBJvAJtgxHHq5RwMkyNOtQ7hEvpvULf+MD7a2CXuEwYdphojUFZ+uyNeJlxL+BjfBfqXPGmrP85LHTq9bUSPxLBDT+Bjc0/t7H+JszhKZ9TAOZFjJN9P3jOH5/aqXfO47j28dxfHEcx78+juNfHsfxreM4/tlxHP/0OI7fOY7jHx/H8Q+P4/gHx3H8/eM4/t5xHH/3OI6/PV9/8zgOe/2N4zj++nEcv30cx2/N1187jsNef3W+wkEDCm0hW9g6QYdYga3MVmortw9hH8Y+lH04+5D2Ye1D24e3f+LfHMfxu8dx2D/33fnP2j+9EYQ5NM3jHRf71lLiHswYp9myJy4k0tfe4kO06shr/cKfuVHpk7wS/zBkgBbsHN0RhoMF3HKWfY0/jb/Chx7MWOMPwwkAwWr8uSYIOMIBYO9l/3NREJp2Mg316gThP5mikAXhv3pMELYdHW+e/Tarx2ISkaOc3887y7Wmx9ULO6ixfyzEvGbkcrGaybWml7XTq4tEc08jHpbfYxFCaeRyrelxtfvouDX0NGJeM3K5aM3kWtPL2unVRaK5pxEPy++xiP7/NmoS9fQYLfcBbGvoacSMPHK5aM3kWtPL2unVRaK5pxEPy++xiLa/tj+TgaYXxD+MnwKQBScNPY14WH7nHlE1col6elztfl0kmnsa8bD8Hoss/0yuNT2uflfrf1AQmpbiGUKbgDPN9VHMENosYZ8hfK4g/Gl+86cNiS2MrYKvfT1vjC25ZZOOHmZN2fToM3YNo8jfS5+2juiAVmA5rV/4EyVO3KQPEQtJ8W9SaGDj7wTTGGMz0fMaf9r/FU7sByCGmvb/BBZA0f7nve5/juP46bxc7tYpY8wQXhWEps3eyynjvzXPSf+ducKnCsLvHcfxB5tTxj+1ITxoysN1+sTfHOpUF+3hzM4ozgWrFwNC6x9oEa7YSWxhpLpoD0f4OxSER2VdRuJfYDHQIl6Jf2OfuKUR4RTt4Wj8ORSER7CsORp/AchAi3il8ffOxt+JIDRtZBrJLq+zy+yeIghNo9klfqbZcMnfi11DiOsInysI7eLI78x/9lQQxgxco6iHNMDNrUM9I3iw0VU4g/DcHj7tHEZ5tJQdrGWppUTIw8Zqw9H6O36BlfAPloh/hkAwQ+PPoRh42DshUyLkYRuhvLYvH7Uafw2uQEb8cygGHvZOyJQIedgGqPg3RfYdQWhayTTTSwhC03AvIgj5xpJHBeG/OI6DryHsgvAPj+P4o+M4/vg4jh8bOCBOECkctEzb89sYyWmr6WzOU8FMbXTRVt9GwqYvWwAL1xUjG83om3bEpzVRC2faWIBjJKetJj8eutL6gURuGkAYLYwvJXudx0hOW43wBzyAUfwDEuIfkOgcOcv3Oo+RnLYajT/AE5hmIrxwUDRtz29jJKetRvi//cYeO2OnjE37mAYyLWSaCDOEO0Fomgp3GZ9dQ2ini/sMIcTgs+8yfp+C8CdBITiNhxbmZLYV7Qs9uzRRgg4+o8+xIlS05vIptP5ASfiLf2VsIHCGgCZIMlZtgKE0LJxYNh2NP4BjFn7iY55nlyZKCP8CGJAJC6dUjUD8Azhm4VegPLs0UUL8c8CO4/jJpyoI/9G848VUK+4yNjWLR8/Yc3TuzRD+xFEi3lS+cQMGZyXiNvJ7PdZlo7Y3ccx+/TC+eGmODpuj9ZOIb9hY2EHkmP2lcF1007sX5U58U1HW0T5PaSuBd7Rm9v1r/TeQ6k0cs6/tv5CrwLO0zoT2P9r/bMZO0KWTiGP2N32U5uiwOeLfKf8uCkJ+BuFuhtC0Fz+H8IPNEOJZhPZhuiD858dxPE0QNj5FSOxzt33LCL6ORj+yhxvHect4dgqF6L2cMqZsunMxS4x+KRHJaHRn1I0uRrW9z+V8oGT367WT1Mb9owf9/xWgCevcOMIfu6Gk22ROJgCZA9n5VNEN2gYVez06c2tvUwbP/DAjP9ZXutT463gK/4rA5JH4N8dN5wvwcTvGWbg4ZvjOcRbq+IMj8eBZx7Oyr+ysBq4TR9QhHI2X9n9PFISmrWzSDaeMIQj5odQf5JRxF4T8cOp7gtCexM3XENpt1z5DiNmUwBWAP8liK8WIKBsWXVIVDmOpK1D0JEs9w4Wl/jil/3+g4e8MDOF13aUO4MJSJ5wS/gMNf2dgCK/rLnUAF5Y64ZTwH2j4OwNDeF13qQO4sNQJp4T/QMPfGRjC67pLHcCFpU44JfwHGv7OwBBe113qAC4sdcKp94n/FISmffgaQtNGdpcxriHsM4SmrfhXSt6JILSfLrFfK+m/VHLrGsJ7gpB/rcT+Kbtb5uavlcQ24i3kyZlwQ43xLSdz8GBt8TN/rI9b5ydYUjPhhhq1/oltYgIPVviLf2dc0Pjro0P7H0eACcMJz1Oj9r/a/zI/6FhPLPloj/8Xn0HIgtA01UsLQvxsndn46brnCEL7+TpTqX2G8EmCEBsS1rY3fFjnAL1lPr1cqvbAM8Ncje6Qg61Lo6rarE1P699h8bacGecKIIocrPBPJjEmwIvxycqazbzw1/hP5uz4hBwsM4lz2Uuyi729L/6Jf8mcHZ+Qg/2U+feCgrD/jvEjp4zfqSC0Xyux6UxTsSwI++8Z25So/Z4xnzb+cexEgg3hJIuYIZ49qSEhaYqyVs3IDbdwfllRfgZepPWcRbROrb+hxDgzmJwX/sQgplVLM34nZeKf+FeoweOM+cN5jb820BJBhqwxK4toaY2/hhLzjMHk/KfPv80dxqaJdg+l5t8xxgwhfrbOJuM+qCC0J2DbnSw4ZWwfxm4ssRnC/vN1dmMJnkVoU5837zSOwdQG0PqtikgE1y2uAIieWBZysvjoIpJafxnAwj+YMXEhxsAV/3ysAY6OWMartyyj8afxRzTR/ifBGGOFRgxctzr+AY6OWMartyzznvY/G0HYn0Fomskm00xD7e4wvvc7xvilklvPIbw8Q/jbx3HsriF894KwbbMdzbMEmxN2tiCEpV3s0h/vcbLj8Jb6aDEHK4CdjQhho86WiOQo1voLoj1Y8CoFwBJ2NiKEJcyX/oR/QbQHC16lAADDCn9HAHDAin/BmoVPGn+Bzc5Z8CpFIBjsbEQIK/4FagueH4h/H0AQmqazF+4VsftGniwI7Tfx8GslNkNor3u/Z4wZQpvy3M0Q2hTpD47j+OFxHD96SxsmeBybMZ2lrSVGWJMe1dQyo6H1J0DpJe7wlraWGGFNelRTwr99NRD/kiDpgXVpl7aWGGFNelRT4p/4RzLJnnyUBEkveQdvaWuJEdakRzUl/n3m/DPNM7WPaSDTQrsZQtNOV2cIoctu/Y7xTUH4V0gh8l3GpiD7DCELQrtoEYLQRCGeRYgbS+w5Of06QgjC3Z3G9rMtP8KAy1m3zNSRO/JQ+jEAlwFXBzn15oPxPN51RNWzWesP5AeeO9hoJ0sICv9CaEOGwWN/osap6Yt/A4h4Z4wAm/hXh11EHSyO2QeQsWBQVfwbOMX7Djbxj4jDbgeLY/Y/Xf5NQWjaB4LQHjnz3fk0Fru8zjRTv34QzyA0rcWPnDEdZpqs31Biug2njFkMmsbjGULTgscVQbg7bQxBiOsIrwjCfmOJ/fOmiOPGknFMHGSwd6ZFZkEqbkVuLrQbhLOcvwWONVA/7o7Y3qll+muG1jxcX5DrZsVMaf2MjYOVEHrTaG8twt9RGtgk0RK68Bw4rpstMyX+MTYOVkA3SDbaW4v45yh17BK68Bw4rpstMyX+MTYOVkAn/hkUA5+GDGUBF+OI3Os6/rfnD5oWYkFoj+kzzXRVEJoW2wlCiEHTcQ8LQp4lxAzhUwSh3WmMn7DDz9dBEJ7eWEKbldx1wxeyzADfVmlBd0cz9eHuiMOl5r48CMp5K49FZqD1ByIMleNUsPGyURvuftHZz9pomcjOoKyDPsFojuq54Ij9fRTQEt2lZekTRXYur/UHIgXAAQ+1uTvicKm5LOzB2miZyM5A+AciBcIBD7W5O+JwqbksLPyZaQGNwRWQzUD8C0QCJ3MGPNTm7ojDpeaysAdro2UiO4PXiP9GEPIDqXeC0DTVu3oo9XaG8KmCkJ9FiEfPQBBevo4wNvPc2rHRJ0vGxN++MWr9DqGIiDo7yqDOLF65CFpBUq3fkJioNHAiFP79yhiwF8iBTollcK9iG5iiB0/UGnQWtcJf+BemgRna/wEJjJnYl2n86fgXHMjdcufLSx//n3j9oAnCl3rkzN1Txs8RhLtHz9h1hDtB2K8j9NPGNlDHRuibIodweCclJW3Bkpipko9etX6H4gSchKnhmg1lSQuWhPB3SAouHb+TxixruGZDWdKCJSH8HZKCS8fvpDHLGq7ZUJa0YEkIf4ek4NLxO2nMsoZrNpQlLVgSwt8hKbh0/E4as6zhmg1lSQuWhPB3SN5+881xHHb9oGkfu6GETxfz9YO4ocS0FK4fhCA0zfWcZxDeFIRXfq3ELlC0O1jw6BncWIJnEfIvltiH7zeW4LQxBKFNkcZ1hE4rXP/XngWUlKse8y38t7tvw7QcCnfr0PoHUDtsCEK4gNLi8IV/YgGg2AKoHcbi30Bqhw1jOH1AaWH44l9iscEsGncYi38DsR02GyyDc+Jf0Mp+jopxWWBD4w7jz4h/JAhxdzFuKNmdLmZByDeUQBCaFrMX9JlpNb6hpF9DyGLQtN9yyviqIMSjZ/jGkp0g7NcR3npAtT9+ZiHOTIA/pR1Js3iVAgSz8BZJnYToEMul3bYgaRavXIS8Waj1n+8khD8fTog7wwXVSgOS4B7iUmTBbBD/gMSC0Pg9xVMA98uh3Cxea8/CH+iJf0BiZYn2fzlOVnT2uH0C44/uLoYg/M788Q5+ILXdg2G/+nZ2/aBpr7MbSl5cEOLGErtTBYpzJwh3j55hQbg7bWz/vCniuNuYt3EeyCZD0LgQZjSgGTbKSoKCzbcTtA47o5qMbtMp1St5sbwvQIHWv2AFdAqiNZmwh1eqlz5rAp2N/Q9FZeuUHlEEG+uFU6rr6qykLEeBtn+FhqAqiAIyWMAetlQvfdYEdSL8KzTCP/AojAJlYIN3cEp19IHWmqBOxL8KzWfIv3m6mO8uZkG4e/7gozeUsCA0Lcd3GV+eITy7jvCeIMQsoU1n8k/Y4TrCfrexnTY2AOK0MQ2XNp5my6ZgTfVMxpiNDiaiaVqEsfIg6XnBukzPZKz1T2QBSbMIhX8iMDCZyGwAWlM9k7H4J/45AqBEswiTffg+M1s2BWuqZzIW/8Q/8S9EhV1DaNcP8uygaaJ+utgm0/h08SPXD5pms1PFu9PFzxaEmCXsM4S76wghCE3R8nWEu9PGmCX8/hgu9NUp9yWh4aKmMGtk+3ss7k5EVIacWfLJRTFSI0YEi6pqo9WdiKgIObPkk4tipEaMCBZV1UarOxFREXJmyScXxUiNGBEsqqqNVncioiLkzJJPLoqRGjEiWFRVG63uRERFyJkln1wUIzViRLCoqjZa3YmIipAzSz65KEZqxIhgUVVttLoTERUhZ5Z8clGM1IgRwaKq2mh1JyIqQs4s+eSiGKkRI4JFVbXR6k5EVIScWfLJRTFSI0YEi6pqo9WdiKgIObPkk4tipEaMCBZV1UarOxFREXJmyScXxUiNGBEsqqqNVncioiLkzJJPLoqRGjEiWFRVG63uRERFyJkln1wUIzViRLCoqjZa3YmIipAzSz65KEZqxIhgUVVttLoTERUhZ5Z8clGM1IgRwaKq2mh1JyIqQs4s+eSiGKkRI4JFVbXR6k5EVIScWfLJRTFSI0YEi6pqo9WdiKKo3UzCs4N2r4VpJZwuNg2F2UHTVnggdb9+sD+U+uwZhCYGX1wQ2sWLuI6Qf8KObyy5d9q43FwCpFborAVZWFQPmw88bRe0kr4cXeyX5972FcjC8hL8iyhaf0FI+AdzxT8bM4UddRDNaF+BLGxdVOMfuGj/AyScIdr/5IhzYAo6dRBp/IEyG1yAG2wtecr+h2YHcTPJ7u7ie9cP9l8oMV1mk3Z8uvidzhDaivosIX6x5NZpY/vH+mljPKTaZwkrxPsIm8NOP9iuL05DoDwKkKgWzZ6NIJxavIlQqfULf/FP40/7n7aTjB1ky88QzR5GEM5+IcqiUvtf7X9f+/6XHjWD2cF+utg003NOF7+TGUK+seTstPEtQbg7bWwXTPJvG/u1hDbubcDHd9xlb0t7hvzeQ0nsLkY/VhJ9URXcUc3vWr/wJ86IfxgqG5tjLRsz557Gn/Y/2/30YMxgC79r/2toxDFL+5/ctSze4E1NZ869j3z/M++fMO1jZ0r77ODZ6WK7R+Pq8wchCHc3lDz5lDEEoU07dkHYn0fY7za28904bWxK1y6QPJ0lHLuDPKuUm9dOydJOhBsqI3LhJd8T1Em4vJL4NL6g1j/wc4QCr46pxTcbaQGqC3c61fgywn9A59AEXgRnuDcbo6psp1hkOtX4MsJ/QOfQBF4EZ7g3G6NK+BNO4U6nGsdM/BvUcWgCL6JTuDcbo0r8I5zCnU41jtm74N98ysrZ7CDfTGIaCjeT4PpB01o4XczPHzw7XdzvML4kCPuzCH9r3qqMO1V2ghDXEd6aJewPqbYLJpdZQmJrc8cWiu0G2cEJWqJXe9xr/dtDLtSbs8W83uPMnCzUqz3utVp/kY4dHuHPCHRGiX/bMTUh62htazX+NP5oiA3OUKK4nVEaf9sxpfHnCHS2bLEav1RyZXbwkV8nuXL9oGm6LgZPH0wNQWgL2IJngvDKdYS3bi7hWUKcOv7Omzd/+X8CzOFAi4UoK+OU4F/zllk6ubMEJuvpaIEuoq++pijoDVp/YFYxqhHDJvwHNuLfSp0z1pzljVdogx1cq5H4lwho/A1uaPytQ+ds1JzlNf5u7X/evHnzv+dj93Cq2O4stkky00Y2O3jlZpKnPpD62YLw6mljzBLaOW4IQjyC5tYsoV1M+e2vvvrqf+TOKeFkao127LhmdeFkDmZM82ZPXJh12c5rr1le0lpK3IMZa/3AEwDBWl74J4kYF2Am/jEq7Gv8af9T+NCDGWv/i30JAILV/vdDH3+++ur//fd53aBpH5sUw4Oo+drBPjvIp4shBl/idHGZIbTfsLMEXqYe+wzhmSC8d7cxROHv0LWEpnz7tYQ+S/ib3/zmvzFlQWe3Jw09jXhYfufeUDVyuXtNj6u1fppsacBUJFPEMPK9JquEvyGQrEuvwdwhi+aOLWLhP5DN94BsIXOinh5Xuw9gW0NPIxb+BhSjwMABpZFL1NPjavfrItHc04iH5fdYJD4XMrnW9NAWFh1HYjg9jZjXjFwuWjO51vSydnp1kWjuacTD8nssov8/v4k7KIl6eozWLFpSlgDeaETMyCOHGlvKtA7dSPJSs4PPuX4wfsu4C0KcNsYp40dOG+8eUr375RKIQlxLaID87pdffvkfFiALmjarNBM9b5um5BJ+9nJxKkYyDs2jzd+pzFeA2p7X+oV/4QSzLv2kDxUjKf7NITyw8XeCSeNP+z/t/+eA6ONCx59Xdfz5xS9+8e/ar5KYFsKp4t2jZjA7eO9h1LeeP2ha7ux08V1B2GcJ+caSR24u2c0S2j9sotCmRyEKv/je97733a++/vp/2pZNvk8/E3l05bpoD2cShGJasrhxQAantP5ETfg7FgkIUYd4Eu3hiH/nwBGG9jU7MRse4YoxniW0LNVFezjC36EgPAi54gr/gGOgRbwS/8axeEsjwinaw9H4cygIj8myr7/++k9/9rOf2U/23jpVbHcW25lVm1DrYhCni/HLJP1mEjxu5soDqXG6+GFBuDtt/MjNJbiWEI+hwSwhRKHNEn7x5Zdf/vsYne4QoASwudRSIuRha38WDSJze/i0cxzLRUshuGWppUTIw2r9HQHh3/kTXBH/GlkCGY0/h2LgYe+ETImQh22Aem1fPmrFvwZXICP+ORQDD3snZEqEPGwD9LPn389//vN/uxGDmB206wYhBvujZjA72AUhThXvZgfvPW5mKwj7aeN+HeGV08amUs8eQYNZQohCvsFkuZ7w17/+9X92Ep0xque3MZLTVtPZvJmlKByvnEbXyG5jJOuKkW2jSeunA9EpRjfxRiO2G3oR/o5MhUH8Bz1AG/EPSOSuqWOEip7fxkhOW434B3gC00yEFw6Kpu35bYzktNUIf8ADaN/T+P/Vn/3Zf5picHfd4JVTxV0M8uzgThDypX/QdbhfhMVgmSHsgtAKsTA6NKX56CwhHlRtdx3b1Ke9+AYTnDouovBb3/rWt0MUYoPFWMCWNAu/Fnl2aaIEbXxbEi1h4dRuPcpJcivaF3p2aaKE1l+QBTJh4ZSqEQh/gGMWfgXKs0sTJcS/AhiQCQunVIl/hoDGH8hhFn4limeXJkpo/BXAgExYOKVqBK+Zf7/61a/+ywUxiNlB6CXTTvbCg6i7IHyp2cF3IggfmSXEqWOIQjt1bC+7/TpOH3/t1xQaGVaWrJktg2gntm8vWe6Ufa2/wGRBgWdpnQm/1+dGZW/imP3N2kqz1r9HQPhr/G/GTpClDyKO2d/0UZqjw+aIf+LfhjvBkk4ijtnf9FGao8PmfAT8+4u//Iv/NW8isWsGMTNo906Y3rFL5zAzCDF49VTxvdnBR04XPywId6eNcXPJ7lpCu+PY1KwpWzv3vXs24V1RaDea2N3Hdpu2PafwzZs34+HV7VtW8MVZYm/zu8RkzTAj75RxohB5en/UhHqkvK9eP9czPsdYz6gbS43mkUd/Izd77f1hZbBU7G6vR/to1P+v7Z9UDPFu5JhEEf+BxBhhfTxh3MFifAHBXo92t/am/U9AAcwc8QmU+Cf+YWyZ7eOJ27w9E4NXk0dIIxyNH3T8vXnz5v9+/fVXf/qbP//z//rLX/7yP37xxRf2iyQsBjH59RQxaLoKN5P02cGzm0lMu+GML58uvnnKuJ82RgdmHzltvJsl5FPH/XpCiEIDx14Ay2YK7WVA2sue6G0vA9de350/Dv37x3H8wXEc3z+O4w/n6wfHcfzRfP3wOI4/ptePjuP4Mb3+5DgOe/2kvX56HAe/fnYch17CQBwyTqutAAAMTUlEQVQQB8QBcUAceB0c4GO4+f04j+M/awLTCKwZTENAT5i2gM4wzWHawzSI3TVsmgT6BHoF+gV6BvoGeufWTSS3ThU/ZXbQtBwLQtN8/CpBF4S76wj7LKHd1vzoLKH9kzg/btcT3rqmEI+k8VPI87k9BvTvEfC2IewFYXhPHO4EYheJIAfIwrYTSvE6yISJMBEHxAFxQBz4UBzgYzZ8HNfZ2rF/JwDviUAWgqY/IARNm5hGwS+Q9FPEuJu4nybGI2ZMG5lGsle/q/jW7CAeC9gfNXN1dtD0n/+xQmT1eEsQ3rq5xKYxeZbw1qlj3GTyiCg0xe0/dUfC0JQ5zxhCHJqC7zOHPHtoqt82fBeJ+HYAslyxTDL5dRZWeAgPcUAcEAfEgZfmwJVjM2pwXGeL4z9mAM2aRugzgZgNZCEI3WFisAtB0ylPEYNnzxzsYrCfLoYgxM2/OKt7VRBCD5ZZwi4Ib4lCfACzu1lCFoV2LeHZ9YQmCvE4Gpw+xo0muPvYplkx5dpnC/uMIYRhnzXEzCELRJv6xcZnQrAPwsimeBYWwkIcEAfEAXHgtXCAj+ns4/iP08BmMZFkmgEvnBY2XWEao88I7mYFTbPgFPHZzCBuIDEdtBOD/a7iW6eKH5kdNG3Hk4FbQfjIaeM+S3hFFOLW6X6TyS1RaOfaIQxxCtmAZmHIM4Z8OpnFIQQiZg+xobHxmRDsgzCyKZ6FhbAQB8QBcUAceC0c4GM6+zj+Qw+YNY3AAnAnAnlGsJ8eNn2Cu4ghBE3H9NPEt8SgaaUrYrDfSMJ3Fl+dHYzTxaYKWSXeEoR8c4mtCFOTmCnsgvDWqePdncc7Ubh7gLUp7p0w5FPJmDXs4vBMIHaRyOQAYWTzm5OwEBbigDggDogDr4UDfExnH+JvJwD7TCBEIM8G8qlhFoKmUyAGIQR3N5DsZgZZDL7EqeJ+M0mfHbwpCG+JQj4v3QXhlVPHfD0hi0K+0QSnj3fXFfJs4S1h2MXhTiDalK9tcLzsW8DuxYSRn9+ehIWwEAfEAXFAHHgNHNgd2zHzBw2A08C4JpAFYBeBV4TgblbQdA1mBnGKmG8gORODV04VP3V28GFBeOtaQvsQPEvYZwrtH+HrCW+JQjyS5t5s4U4Y9llDnFKGOMRpZduweNkGx4vJwD7IIpviWVgIC3FAHBAHxIHXwgE+prOP438XfxCAOB0MAYgbRTAbiFPDPCPIQvDerOBTxeBTTxXvZgefJQivnDp+aVHIs4V8GhnCENcYYtZwJw5ZILJI3AnFnWBk4shPIS0shIU4IA6IA+LAx84BHNe7NQ2Al2kDvEwz4GUC8EwE4tTwmRDkWUE+RfyuxeDuVPFdQbi7jvDWaeN7grCfOuZfMcFMoT1pGzOFuPu4n0LezRbuhCHuSN6Jw51AtI2KjdxFIojQBSPIIpsDR1gIC3FAHBAHxIHXxAE+xrPPmgDibycAMRPYReDuOsFHhCDfQIJfIumniU1L8cygaS1cuseX85lGw8sEIL9M2/VX3GEMpxfsBKF1ipW8pCiEMDRBuBOFt4QhHlODWUMWh/cEIs8iMgG6YGSiwGciyc9vVMJCWIgD4oA4IA58SA7gOH1m+/EesWkCvEz44WXijwUgZgK7CDQ9YiJwJwSvXi/4LsXgpdnBp4pCVqS7u47vzRRittAEIUThrdnCM2GIWcN74pAFom1cbOxuQYhuQRrZfCaksBAW4oA4IA6IAx8rB/pxHHE/7iOG+OsC8IoIfFQIYlbQ9A8LwafODJoOw6QdzwrC3038Qf8tdleMjthihX2W8BFRiEfSdFEIYcizhXhmoZ1vN1HYhSHflbwThzZ7yDOIfRbRNnQXi0wKEEX2XEQLG2EjDogD4oA48LFygI/p7OP4z9Y0Al7QD7A28cQzgRCBuHMY1wj2GUH8DJ1pGxaCXQyaNuJfIbl6mpjFoGkz1mzwdxpvEYJI7Ioth87YPkUU9htNuijEdYUQhX22kIXhLXF4JhB5BhEbtwtFkIDJIX8IZuEgHMQBcUAcEAdeOwdwnGfLmgA+xN+ZALwlAnHDSBeCLAZN8/DMYBeDppmuXDP4VDFo+u7m304UshBk/7misN9sgtnCW8IQ1xjeE4d4bI1tsC4QTdHzTCI2OkggO2ZUhYNwEAfEAXFAHPiUOYDjPyz0AVvoCBaAu5nAnQjEjOAtIXh2ivilxKDptp22uykGrXG3kOVYCLL/UqKQZwufIwx55pBPLdvG6yLxTCgyEXbCEcSRHVPnwkE4iAPigDggDnzMHOjH9V3Mwq+LPxaAfDrYNMdzheDuFPG7FoOm6y79vWtRiJtN7B+2WUK8MF1qghAvTKnaaWS8TGnz6eSz6w2xoe6JRIhF2E4KxWOWVTgIB3FAHBAHxIFPgQM43p9ZE314sZaAb2cp+XQwdAj0CfSKWegY6Bqz0DvQP2ZNE3UhePZomSunic9mBi+LQVOMjwpCW+mVmUL+RZMzUWigACgGD4AyyOYDfGwMtthg/fQyNmgXitj4sGdEUX7MtgoH4SAOiAPigDjwmjiA4/vOsjZgn7UEawz40CFdn0C3sJaBvmEheCYG8YxBsyYA+cWai8/adv9Mz12aHUTRWSd9ZRzzB+QPbj7/YyYG+QVV3AECcAym+QC5g4+NYhYbqlvesPB5w8sf09/CQTiIA+KAOCAOfC4cgB5g2/UDYtYaXYdAn3TdAj3TdQ70D2si81kzdT3FWos1WPfPdBx03mV71pHl+0o55g/a/4nnCkMDtIMM8M32DWMxb7hbQhEb2iwTQr7wEAfEAXFAHBAHPi0O8DH/zO/6YacxWIN0fQIRaPYlhKBpKNZYrL26f0vDXRaCXHirw75yjvkDm9+FISvfroothmLuAFrMAHfwecOcCURs0L6he3xGEOXPZ1+FjbARB8QBcUAc+Ng50I/3PYZO2NmuM7oOYY2y0zDQNzvtw9qo66auq1hzdf+WdmON97B/q+P+ITjuH77/cxbzP78DB8CZ3QHLwPeNgrhvPMS7DX0118mjeJ2JFSbCRBwQB8QBceBDceDq8XxXB53QLXRFt6xFdlqFtcxO67AW2mmlrqdYa3X/lmZ7WAD2BW51bm39w3Dc/wmLd/8sg7EDi8E8E4d99tA2UN9ou7hv8FvxjjjK7U/VCxfhIg6IA+KAOPChOXDrmN7bdhqh51j8mb8TgJbrumWnbVj77LTRTkOxxur+Pb3W9d2T4nsr6R+qx/2f2v3jlmNwzN8B2EG+JRB3IhEbs29kxdcEtHASTuKAOCAOiAOfMgegE7o9E387AWjaZKdhus4500NdN3Vd1eN7Ou1J4u9soXsr6x9uF/d/8AyIq+LQwH5UIPIG7Rtbcb1GU3gID3FAHBAHxIHPiQOsEW75O+2xE4CWuyoCTft0nbTTUj13T5+d6bpn5e+t1Nr7B93F/R9+RBiezRzyhthtKORubWC1nU9/CxthIw6IA+KAOPA5cQC6YWdZc+z8LgItvqV1ui7aaaeeu6LJniX67i185QP0D30WdwAsvgWYte1A3m2Ms9xuw17JfU6DQP+rdvrigDggDogDnwoHrhzjdzVnOmKX32mTe3pmp4HO9FLPX9Fi9/Tci7Rf+SBW0/+Bs3gHyhVxeCYQsWF2G+25uR1plNufuhcuwkUcEAfEAXHgQ3Hgucf73fLQFzt7TwBa+5neOdNHPX9Vf72I2Hukk6sfrP9Dt+IzsK4AjZrdhjrL7Ta4cvuLYYWLcBEHxAFxQBz4VDlwphN2eeiNK/ZM19zSQr3tqt56RMO9eO3VD2l1/R+8F5+BiPyVDXFWs9vAyu1PyQsX4SIOiAPigDjwuXDgTDdcyUOfnNl7uqe3P6KxXlzgPbXDRz50/4evxmcAc/7KBlPN/Ws1hZEwEgfEAXFAHBAHzjnA2uPMv6pvet0jmuqpuu2dL/fIP2G1HYRH47ONcC8vkp+TXNgIG3FAHBAHxIHPlQP39MNZ+6P6pdc/qp/euaB7qRU8+o+hvgP0nPhsoyl/fmGrsBE24oA4IA6IA+LAngPP0SR9WeieR+1L6bQP0s+j/yzXdwDfZ6wBsR8QwkW4iAPigDggDrxGDrxPDdHXxdrmUf+DiLd3vdJHQTir70Arfv7pd2EoDMUBcUAcEAfEgedx4Ey3PJp/13rso+v/UYAerRexn0ds4Sf8xAFxQBwQB8SB43hUfzxa/0EF2v8Hb5nyqbW5S4AAAAAASUVORK5CYII=;" vertex="1" parent="zkfFHV4jXpPFQw0GAbJ--17">
          <mxGeometry y="216" width="160" height="386" as="geometry" />
        </mxCell>
        <mxCell id="zkfFHV4jXpPFQw0GAbJ--26" value="" style="endArrow=open;shadow=0;strokeWidth=1;rounded=0;endFill=1;edgeStyle=elbowEdgeStyle;elbow=vertical;" parent="WIyWlLk6GJQsqaUBKTNV-1" source="zkfFHV4jXpPFQw0GAbJ--0" target="zkfFHV4jXpPFQw0GAbJ--17" edge="1">
          <mxGeometry x="0.5" y="41" relative="1" as="geometry">
            <mxPoint x="380" y="192" as="sourcePoint" />
            <mxPoint x="540" y="192" as="targetPoint" />
            <mxPoint x="-40" y="32" as="offset" />
          </mxGeometry>
        </mxCell>
        <mxCell id="zkfFHV4jXpPFQw0GAbJ--27" value="0..1" style="resizable=0;align=left;verticalAlign=bottom;labelBackgroundColor=none;fontSize=12;" parent="zkfFHV4jXpPFQw0GAbJ--26" connectable="0" vertex="1">
          <mxGeometry x="-1" relative="1" as="geometry">
            <mxPoint y="4" as="offset" />
          </mxGeometry>
        </mxCell>
        <mxCell id="zkfFHV4jXpPFQw0GAbJ--28" value="1" style="resizable=0;align=right;verticalAlign=bottom;labelBackgroundColor=none;fontSize=12;" parent="zkfFHV4jXpPFQw0GAbJ--26" connectable="0" vertex="1">
          <mxGeometry x="1" relative="1" as="geometry">
            <mxPoint x="-7" y="4" as="offset" />
          </mxGeometry>
        </mxCell>
        <mxCell id="zkfFHV4jXpPFQw0GAbJ--29" value="lives at" style="text;html=1;resizable=0;points=[];;align=center;verticalAlign=middle;labelBackgroundColor=none;rounded=0;shadow=0;strokeWidth=1;fontSize=12;" parent="zkfFHV4jXpPFQw0GAbJ--26" vertex="1" connectable="0">
          <mxGeometry x="0.5" y="49" relative="1" as="geometry">
            <mxPoint x="-38" y="40" as="offset" />
          </mxGeometry>
        </mxCell>
        <mxCell id="zkfFHV4jXpPFQw0GAbJ--14" value="Salary" style="text;align=left;verticalAlign=top;spacingLeft=4;spacingRight=4;overflow=hidden;rotatable=0;points=[[0,0.5],[1,0.5]];portConstraint=eastwest;" parent="WIyWlLk6GJQsqaUBKTNV-1" vertex="1">
          <mxGeometry x="360" y="490" width="160" height="26" as="geometry" />
        </mxCell>
      </root>
    </mxGraphModel>
  </diagram>
</mxfile>
